<svg id="Layer_1" data-name="Layer 1" xmlns="http://www.w3.org/2000/svg" viewBox="0 0 171.41 186.08"><defs><style>.cls-1,.cls-2{fill:#606060;}.cls-2{font-size:36px;font-family:HelveticaNeue-Bold, Helvetica Neue;font-weight:700;}.cls-3{letter-spacing:-0.02em;}</style></defs><title>logo</title><path class="cls-1" d="M42.09,87.33c6.06.09,18.68.29,23.6.4a6.75,6.75,0,0,0,7.26-7c0-2.66,0-34.65,0-34.65-.57-2.63-3.5-1.7-3.77,0V79.19s.74,4.33-4.37,4.33-23,.29-23,.29c-9.52,1-11.39,14.86-1.16,17l35.54.07V97.09s-30.42.1-34.55,0C36.86,94.83,36.86,89.32,42.09,87.33Z" transform="translate(11.59)"/><path class="cls-1" d="M65.53,54.62H57.9c-2.63-.56-1.71-3.49,0-3.76h3.87l-3-3H45.57c-2.63-.57-1.7-3.5,0-3.76H55L48.94,38c-1-1.39.4-4.12,2.66-2.66l8.52,8.53V41.27c.27-1.7,3.2-2.63,3.77,0v6.39l5.91,5.91c2.84-13.26-5.74-31.25-31.64-26.69A4.18,4.18,0,0,0,34.67,31C35,46.47,48.29,60.13,68.09,57.18Z" transform="translate(11.59)"/><path class="cls-1" d="M104.6,36.56a4.13,4.13,0,0,0-3.45-3.38C80.87,30.12,70.52,45.72,71.33,60L85,46.34c1.4-1,4.12.4,2.66,2.66,0,0-.7.71-1.86,1.86h3.52c1.7.27,2.63,3.2,0,3.76H82.06L79.29,57.4H83c1.71.27,2.63,3.19,0,3.76H75.53l-3.39,3.38-.22-.22c0,.21.09.43.14.64C93,73.07,107.3,52.54,104.6,36.56Z" transform="translate(11.59)"/><path class="cls-1" d="M113.1,90.53h-8V89.11a1.89,1.89,0,0,0-1.88-1.89H77.1a1.89,1.89,0,0,0-1.88,1.89v19.51a1.89,1.89,0,0,0,1.88,1.89h26.15a1.89,1.89,0,0,0,1.88-1.89V107.2h8a2,2,0,0,0,2-2V92.55A2,2,0,0,0,113.1,90.53Zm-12,16.54H79.22a.82.82,0,0,1-.82-.82v-15a.82.82,0,0,1,.82-.82h21.7a.81.81,0,0,1,.81.82v15.16A.68.68,0,0,1,101.05,107.07Zm11.18-3.91a.7.7,0,0,1-.7.7h-5.29a.7.7,0,0,1-.69-.7V94.57a.7.7,0,0,1,.69-.7h5.29a.7.7,0,0,1,.7.7Z" transform="translate(11.59)"/><rect class="cls-1" x="97.42" y="93.68" width="3.19" height="10.12" rx="0.92"/><rect class="cls-1" x="102.72" y="95.21" width="3.19" height="7.06" rx="0.92"/><path class="cls-1" d="M143.24,68.33A68.41,68.41,0,0,0,78.16,0V2.88A65.56,65.56,0,0,1,136.33,91c-.23-.24-.45-.47-.69-.7-.79-.79-1.59-1.56-2.42-2.29l-2.11,2.12,4.72,4.7h0l1.46,1.45A68.2,68.2,0,0,0,143.24,68.33Z" transform="translate(11.59)"/><path class="cls-1" d="M6.41,68.33A68.15,68.15,0,0,0,12.71,97l2.18-2.17A65.56,65.56,0,0,1,67.53,3.2l-.47.64q-1,1.38-1.83,2.79L67.7,8.34l3.78-5.46h0V0A68.41,68.41,0,0,0,6.41,68.33Z" transform="translate(11.59)"/><path class="cls-1" d="M132,100.39a65.54,65.54,0,0,1-111.75,4.2l3.75.89.69-2.92c-1.06-.31-2.13-.59-3.22-.85s-2.17-.48-3.26-.68l-.05.21-.09-.14L16,103.2a68.43,68.43,0,0,0,118.14-.69Z" transform="translate(11.59)"/><text class="cls-2" transform="translate(10.68 168.77)"><tspan class="cls-3">r</tspan><tspan x="13.36" y="0">ecyco</tspan><tspan class="cls-3" x="116.03" y="0">r</tspan><tspan x="129.38" y="0">e</tspan></text></svg>