<svg id="Layer_1" data-name="Layer 1" xmlns="http://www.w3.org/2000/svg" viewBox="0 0 114.25 118.43"><defs><style>.cls-1{fill:#fff;}</style></defs><title>logo</title><path class="cls-1" d="M916.88,569.6c8.5.13,26.22.41,33.13.56,7.84.17,10.19-6,10.19-9.78s0-48.64,0-48.64c-.8-3.69-4.91-2.39-5.28,0v46.43s1,6.08-6.15,6.08-32.34.4-32.34.4c-13.37,1.39-16,20.87-1.63,23.94l49.89.09V583.3s-42.71.14-48.51,0C909.54,580.13,909.54,572.4,916.88,569.6Z" transform="translate(-905.16 -483.71)"/><path class="cls-1" d="M949.79,523.68H939.07c-3.7-.79-2.39-4.91,0-5.28h5.44l-4.17-4.18H921.76c-3.69-.79-2.39-4.9,0-5.28h13.3l-8.57-8.57c-1.43-1.95.56-5.78,3.73-3.73l12,12v-3.68c.37-2.39,4.48-3.69,5.28,0v9l8.3,8.3c4-18.61-8.06-43.87-44.43-37.47a5.87,5.87,0,0,0-4.89,5.83c.4,21.67,19.12,40.85,46.92,36.71Z" transform="translate(-905.16 -483.71)"/><path class="cls-1" d="M1004.64,498.32a5.79,5.79,0,0,0-4.85-4.74c-28.46-4.3-43,17.59-41.86,37.7l19.22-19.23c2-1.42,5.79.56,3.74,3.74l-2.61,2.61h4.93c2.39.37,3.69,4.49,0,5.28H973l-3.9,3.89h5.18c2.39.38,3.69,4.49,0,5.29H963.82l-4.75,4.75-.31-.31c.06.3.12.61.2.91C988.4,549.58,1008.43,520.76,1004.64,498.32Z" transform="translate(-905.16 -483.71)"/><path class="cls-1" d="M1016.58,574.1h-11.19v-2a2.64,2.64,0,0,0-2.64-2.64H966a2.64,2.64,0,0,0-2.64,2.64v27.4a2.65,2.65,0,0,0,2.64,2.65h36.72a2.65,2.65,0,0,0,2.64-2.65v-2h11.19a2.83,2.83,0,0,0,2.83-2.83V576.93A2.83,2.83,0,0,0,1016.58,574.1Zm-16.93,23.21H969a1.15,1.15,0,0,1-1.15-1.15V575.05a1.15,1.15,0,0,1,1.15-1.14h30.46a1.15,1.15,0,0,1,1.15,1.14v21.29A1,1,0,0,1,999.65,597.31Zm15.7-5.49a1,1,0,0,1-1,1H1007a1,1,0,0,1-1-1V579.76a1,1,0,0,1,1-1h7.42a1,1,0,0,1,1,1Z" transform="translate(-905.16 -483.71)"/><rect class="cls-1" x="73.13" y="94.8" width="4.47" height="14.2" rx="1.29"/><rect class="cls-1" x="80.56" y="96.95" width="4.47" height="9.91" rx="1.29"/></svg>