<svg id="Layer_1" data-name="Layer 1" xmlns="http://www.w3.org/2000/svg" viewBox="0 0 105.51 105.44"><defs><style>.cls-1{fill:#fff;}</style></defs><title>logoS</title><path class="cls-1" d="M929.24,536.93c4.67.07,14.4.22,18.2.31a5.2,5.2,0,0,0,5.59-5.37V505.15a1.47,1.47,0,0,0-2.9,0v25.51s.57,3.33-3.38,3.33-17.76.22-17.76.22c-7.34.77-8.78,11.46-.89,13.15l27.4,0v-2.95s-23.46.07-26.64,0C925.21,542.71,925.21,538.47,929.24,536.93Z" transform="translate(-901.73 -469.59)"/><path class="cls-1" d="M947.32,511.71h-5.89a1.46,1.46,0,0,1,0-2.9h3l-2.29-2.29h-10.2a1.47,1.47,0,0,1,0-2.9h7.3l-4.7-4.71c-.79-1.07.3-3.18,2.05-2.05l6.57,6.58v-2a1.47,1.47,0,0,1,2.9,0v4.93l4.56,4.55c2.19-10.22-4.42-24.09-24.4-20.58a3.23,3.23,0,0,0-2.68,3.21c.21,11.9,10.5,22.43,25.76,20.16Z" transform="translate(-901.73 -469.59)"/><path class="cls-1" d="M977.44,497.78a3.17,3.17,0,0,0-2.66-2.6c-15.64-2.36-23.62,9.66-23,20.7l10.56-10.56c1.08-.78,3.18.31,2,2.06L963,508.81h2.71a1.47,1.47,0,0,1,0,2.9h-5.61l-2.14,2.14h2.84a1.46,1.46,0,0,1,0,2.9H955l-2.61,2.61-.17-.17c0,.16.07.33.11.49C968.52,525.93,979.52,510.11,977.44,497.78Z" transform="translate(-901.73 -469.59)"/><path class="cls-1" d="M984,539.4h-6.14v-1.1a1.45,1.45,0,0,0-1.45-1.45H956.23a1.45,1.45,0,0,0-1.45,1.45v15.05a1.45,1.45,0,0,0,1.45,1.45H976.4a1.45,1.45,0,0,0,1.45-1.45v-1.1H984a1.55,1.55,0,0,0,1.56-1.55V541A1.56,1.56,0,0,0,984,539.4Zm-9.29,12.75H957.87a.63.63,0,0,1-.63-.63V539.93a.63.63,0,0,1,.63-.63H974.6a.63.63,0,0,1,.63.63v11.69A.53.53,0,0,1,974.7,552.15Zm8.62-3a.54.54,0,0,1-.54.53h-4.07a.54.54,0,0,1-.54-.53v-6.63a.54.54,0,0,1,.54-.53h4.07a.54.54,0,0,1,.54.53Z" transform="translate(-901.73 -469.59)"/><rect class="cls-1" x="61.24" y="72.23" width="2.46" height="7.8" rx="0.71"/><rect class="cls-1" x="65.32" y="73.41" width="2.46" height="5.44" rx="0.71"/><path class="cls-1" d="M1007.23,522.28a52.75,52.75,0,0,0-50.18-52.69v2.22a50.57,50.57,0,0,1,44.86,67.94l-.53-.54c-.61-.61-1.24-1.2-1.87-1.77l-1.63,1.64,3.64,3.63h0l1.12,1.12A52.48,52.48,0,0,0,1007.23,522.28Z" transform="translate(-901.73 -469.59)"/><path class="cls-1" d="M901.73,522.28a52.63,52.63,0,0,0,4.85,22.13l1.68-1.68a50.56,50.56,0,0,1,40.59-70.67l-.36.49c-.49.71-1,1.43-1.41,2.15L949,476l2.92-4.21h0v-2.22A52.75,52.75,0,0,0,901.73,522.28Z" transform="translate(-901.73 -469.59)"/><path class="cls-1" d="M998.56,547a50.55,50.55,0,0,1-86.18,3.24l2.9.69.53-2.26c-.81-.23-1.64-.45-2.48-.65s-1.68-.37-2.52-.53l0,.17-.07-.11-1.62,1.62a52.77,52.77,0,0,0,91.1-.54Z" transform="translate(-901.73 -469.59)"/></svg>