<svg id="Layer_1" data-name="Layer 1" xmlns="http://www.w3.org/2000/svg" viewBox="0 0 137.47 164.73"><defs><style>.cls-1{fill:#b6df8b;}.cls-2,.cls-7{fill:#bc907a;}.cls-3{fill:#f26675;}.cls-4{fill:#a2cd73;}.cls-5{fill:#b7dd8e;}.cls-6{fill:#8db22f;}.cls-7{font-size:20.81px;font-family:HiraKakuStd-W8-83pv-RKSJ-H, Hiragino Kaku Gothic Std;}</style></defs><title>logoC</title><path class="cls-1" d="M977.3,483.85c-21.48-3.25-31.24,15.59-27.6,30.15,19.9,7.69,33.43-11.78,30.87-26.95A3.9,3.9,0,0,0,977.3,483.85Z" transform="translate(-887.41 -452.36)"/><path class="cls-2" d="M921.26,535.23c5.75.09,17.72.27,22.39.37a6.4,6.4,0,0,0,6.89-6.6V496.12c-.54-2.49-3.32-1.61-3.57,0V527.5s.7,4.11-4.16,4.11-21.85.27-21.85.27c-9,.94-10.81,14.1-1.1,16.18l33.71.06v-3.63s-28.86.09-32.78,0C916.3,542.34,916.3,537.12,921.26,535.23Z" transform="translate(-887.41 -452.36)"/><path class="cls-1" d="M914.22,481.8c.27,14.81,13.2,27.91,32.32,24.73,5.07-12.6-2.17-33.39-29-28.67A4,4,0,0,0,914.22,481.8Z" transform="translate(-887.41 -452.36)"/><path class="cls-2" d="M949.51,505.15l-19.23-19.23c-2.15-1.39-3.49,1.2-2.53,2.52L947,507.67Z" transform="translate(-887.41 -452.36)"/><path class="cls-2" d="M949.77,513.6l14.75-14.74c1.39-2.15-1.2-3.49-2.52-2.53l-14.75,14.75Z" transform="translate(-887.41 -452.36)"/><path class="cls-2" d="M966.09,500.62H962.3l-3.57,3.57h7.36C968.58,503.66,967.71,500.88,966.09,500.62Z" transform="translate(-887.41 -452.36)"/><path class="cls-2" d="M938.37,491.52v3.79l3.57,3.57v-7.36C941.4,489,938.62,489.91,938.37,491.52Z" transform="translate(-887.41 -452.36)"/><path class="cls-2" d="M936.26,500.62h3.79l3.56,3.57h-7.35C933.76,503.66,934.64,500.88,936.26,500.62Z" transform="translate(-887.41 -452.36)"/><path class="cls-2" d="M924.56,494.23H934l3.57,3.57h-13C922.07,497.27,923,494.49,924.56,494.23Z" transform="translate(-887.41 -452.36)"/><path class="cls-2" d="M960.05,506.82h-3.79l-3.57,3.57h7.36C962.55,509.86,961.67,507.08,960.05,506.82Z" transform="translate(-887.41 -452.36)"/><path class="cls-3" d="M988.64,538.26h-7.56v-1.35a1.79,1.79,0,0,0-1.79-1.78H954.48a1.79,1.79,0,0,0-1.79,1.78v18.52a1.79,1.79,0,0,0,1.79,1.79h24.81a1.79,1.79,0,0,0,1.79-1.79v-1.35h7.56a1.9,1.9,0,0,0,1.91-1.91v-12A1.91,1.91,0,0,0,988.64,538.26ZM977.2,554H956.49a.76.76,0,0,1-.77-.77V538.91a.76.76,0,0,1,.77-.77h20.59a.76.76,0,0,1,.77.77V553.3A.65.65,0,0,1,977.2,554Zm10.61-3.7a.66.66,0,0,1-.66.66h-5a.67.67,0,0,1-.66-.66V542.1a.67.67,0,0,1,.66-.67h5a.66.66,0,0,1,.66.67Z" transform="translate(-887.41 -452.36)"/><rect class="cls-3" x="75.36" y="88.89" width="3.02" height="9.6" rx="1.51"/><rect class="cls-3" x="80.38" y="90.34" width="3.02" height="6.7" rx="1.51"/><path class="cls-4" d="M1017.23,517.2a64.92,64.92,0,0,0-61.75-64.84v2.73a62.23,62.23,0,0,1,55.2,83.61c-.21-.23-.43-.45-.65-.67-.75-.75-1.52-1.47-2.3-2.17l-2,2,4.49,4.46h0l1.38,1.38A64.65,64.65,0,0,0,1017.23,517.2Z" transform="translate(-887.41 -452.36)"/><path class="cls-5" d="M887.41,517.2a64.71,64.71,0,0,0,6,27.23l2.07-2.06a62.21,62.21,0,0,1,49.94-87c-.14.21-.3.4-.44.61-.6.87-1.18,1.75-1.73,2.64l2.34,1.62,3.59-5.18h0v-2.73A64.92,64.92,0,0,0,887.41,517.2Z" transform="translate(-887.41 -452.36)"/><path class="cls-6" d="M1006.56,547.62a62.2,62.2,0,0,1-106,4l3.57.84.65-2.77q-1.5-.43-3.06-.81c-1-.24-2.06-.46-3.09-.65l-.05.21a1,1,0,0,0-.08-.14l-2,2a64.93,64.93,0,0,0,112.09-.66Z" transform="translate(-887.41 -452.36)"/><text class="cls-7" transform="matrix(0.88, 0.48, -0.48, 0.88, 14.04, 137.4)">r</text><text class="cls-7" transform="translate(25.95 143.72) rotate(17.31)">e</text><text class="cls-7" transform="matrix(0.99, 0.16, -0.16, 0.99, 40.91, 148.22)">c</text><text class="cls-7" transform="matrix(1, 0.04, -0.04, 1, 55.85, 150.57)">y</text><text class="cls-7" transform="translate(71.66 151.17) rotate(-4.09)">c</text><text class="cls-7" transform="matrix(0.98, -0.2, 0.2, 0.98, 86.85, 150.07)">o</text><text class="cls-7" transform="translate(102.82 146.63) rotate(-20.44)">r</text><text class="cls-7" transform="translate(115.77 141.83) rotate(-33.73)">e</text></svg>