<svg id="Layer_1" data-name="Layer 1" xmlns="http://www.w3.org/2000/svg" viewBox="0 0 132.05 237.99"><defs><style>.cls-1{fill:#37396a;}.cls-2{fill:#f4f4f4;}.cls-3{fill:#f06f7c;}.cls-4{fill:#f4d311;}.cls-5{fill:#fff;}</style></defs><title>blander</title><path class="cls-1" d="M923.47,658a17,17,0,0,1-10.49-.1c-3.8-2.52-6.79-5.61-7.25-10.43-.15-1.48-1.15-1.59-2.28-1.85-7.21-1.65-10.58-6.2-9.46-13.4q4.57-29.54,9.46-59c1-6,5.09-9.42,11.25-9.55,4.83-.1,9.68-.16,14.52,0,3.07.12,2.65-1.82,2.65-3.68s.4-4-2.66-3.66a45.4,45.4,0,0,1-5,0c-7.83-.08-13.27-4.79-13.87-12.54-1-12.74-1.67-25.49-2.45-38.24-1.18-19.23-2.4-38.45-3.48-57.69-.62-11.12,4.92-16.77,16.13-16.79,4.95,0,9.91-.06,14.86,0,1.95,0,3.28-.31,4.11-2.37,1.32-3.31,4.21-5.25,7.09-7.11a17.25,17.25,0,0,1,11.11.1c3,2.09,5.91,4.22,7.22,7.86.58,1.59,1.95,1.5,3.3,1.49,5.61,0,11.22,0,16.83,0,9.23.09,15,6.17,14.62,15.36-.19,4.51-.42,9-.78,13.52-.17,2.14.54,3,2.73,3,4-.09,7.92-.05,11.88,0,8.06.07,13.14,5.38,12.14,13.38-1.62,13-3.56,25.94-5.6,38.88-.86,5.5-5.27,9.06-10.86,9.29-3.63.14-7.27.17-10.89,0-2.3-.1-3.38.41-3.44,3-.12,4.95-.6,9.88-.9,14.83-.53,8.85-5.83,14-14.59,14h-3c-4.38,0-4.24,0-4.3,4.38,0,2.44,1,3,3.17,2.92,4.94-.1,9.9-.13,14.84,0a10.48,10.48,0,0,1,10.35,8.94c3.25,19.76,6.48,39.52,9.52,59.31,1.18,7.69-1.88,11.87-9.36,13.72-.95.24-2.06.18-2.18,1.54-.43,4.82-3.4,7.93-7.08,10.57a18.82,18.82,0,0,1-9.9.63c-4.51-2.54-7.82-6-8.43-11.4-.16-1.36-1.27-1.34-2.26-1.35H933.23c-1.14,0-2.22.16-2.35,1.68C930.48,652.31,927.32,655.39,923.47,658ZM952,454V454c-12.32,0-24.63.09-36.95-.06-2.93,0-2.9,1.37-2.76,3.47.62,9.34,1.16,18.67,1.74,28,1.19,19,2.34,38,3.63,57,.34,5.1,2.3,6.74,7.41,6.75q27.06,0,54.11,0c5,0,7-1.91,7.32-6.92,1.78-28.23,3.47-56.46,5.31-84.68.19-2.94-.87-3.56-3.51-3.54C976.22,454.06,964.12,454,952,454Zm-.09,184.39q23.09,0,46.18,0c3.92,0,5.31-1.47,4.72-5.23-3-19.23-6.13-38.45-9.13-57.68-.52-3.31-2.15-4.64-5.54-4.63q-36.12.12-72.25,0c-3.39,0-4.91,1.36-5.44,4.71-3,19-6.12,38-9.17,57-.71,4.48.51,5.82,5.11,5.82Q929.17,638.42,951.93,638.4Zm51.19-121.15c1.76,0,3.52,0,5.28,0a4.39,4.39,0,0,0,4.73-4.11c1.81-12.51,3.63-25,5.32-37.56.49-3.63-1.15-5.28-4.9-5.34-4.07-.06-8.14.11-12.2-.07-2.53-.11-3.13,1-3.25,3.28-.63,12.09-1.43,24.16-2.11,36.24C995.57,517.26,995.61,517.26,1003.12,517.25Zm-51.26-70.56q18.78,0,37.57,0c3.05,0,3.69-.92,2.67-3.83-1.19-3.4-3.85-4.63-7.21-4.65-5.6,0-11.2,0-16.8,0q-23.9,0-47.79,0c-3.52,0-6.61.69-8.15,4.3-1.32,3.07-.56,4.21,2.79,4.21Q933.41,446.71,951.86,446.69Zm.33,109.66c-3.51,0-7,.13-10.54,0-3-.14-2.44,1.85-2.39,3.52s-.78,3.88,2.44,3.82q10.38-.2,20.76,0c2.89.05,2.5-1.83,2.48-3.54s.62-3.94-2.53-3.8C959,556.47,955.6,556.35,952.19,556.35ZM986,645.62a7.37,7.37,0,0,0-1.63,0c-1.33.32-3.51-1-3.81,1.19-.26,1.95,1.24,3.45,3.1,4.16a5.52,5.52,0,0,0,5.83-1,3.53,3.53,0,0,0,1.56-3.41c-.4-1.58-2-.84-3.09-1A14.25,14.25,0,0,0,986,645.62Zm-67.77,0a6.36,6.36,0,0,0-1.31,0c-1.34.32-3.51-.94-3.86,1.2s1.37,3.42,3.17,4.13a5.17,5.17,0,0,0,6-1.24c.85-.9,1.64-2,1.19-3.23s-1.87-.79-2.91-.86C919.79,645.58,919,645.62,918.25,645.62Zm34.11-214.47c1.17-.71,4,1.22,4-.95,0-1.91-2.91-2.14-4.93-2a4.87,4.87,0,0,0-1.91.4c-.84.42-2.21.7-2.09,1.8.15,1.46,1.56.59,2.39.74A15,15,0,0,0,952.36,431.15Z" transform="translate(-893.78 -420.77)"/><path class="cls-2" d="M952,454c12.1,0,24.2.05,36.3,0,2.64,0,3.7.6,3.51,3.54-1.84,28.22-3.53,56.45-5.31,84.68-.31,5-2.34,6.91-7.32,6.92q-27,0-54.11,0c-5.11,0-7.07-1.65-7.41-6.75-1.29-19-2.44-38-3.63-57-.58-9.34-1.12-18.67-1.74-28-.14-2.1-.17-3.51,2.76-3.47,12.32.15,24.63.06,36.95.06Z" transform="translate(-893.78 -420.77)"/><path class="cls-2" d="M951.93,638.4q-22.75,0-45.52,0c-4.6,0-5.82-1.34-5.11-5.82,3.05-19,6.19-38,9.17-57,.53-3.35,2-4.72,5.44-4.71q36.12.1,72.25,0c3.39,0,5,1.32,5.54,4.63,3,19.23,6.11,38.45,9.13,57.68.59,3.76-.8,5.22-4.72,5.23Q975,638.42,951.93,638.4Zm24.42-33.69a24.34,24.34,0,1,0-24.29,24.37A24.33,24.33,0,0,0,976.35,604.71Zm10.41,3.58c2.58.07,4.87-.67,4.87-3.62s-2.25-3.7-4.86-3.69-4.41.77-4.72,3.51C981.78,606.78,983.75,608.27,986.76,608.29ZM917.92,601c-2.89,0-5.13.47-5.43,3.52-.22,2.3,1.69,3.72,4.72,3.8,2.64.07,4.79-.74,4.83-3.67C922.07,601.87,920,601,917.92,601Z" transform="translate(-893.78 -420.77)"/><path class="cls-2" d="M1003.12,517.26c-7.51,0-7.55,0-7.13-7.57.68-12.08,1.48-24.15,2.11-36.24.12-2.31.72-3.39,3.25-3.28,4.06.18,8.13,0,12.2.07,3.75.06,5.39,1.71,4.9,5.34-1.69,12.53-3.51,25.05-5.32,37.56a4.39,4.39,0,0,1-4.73,4.11C1006.64,517.28,1004.88,517.25,1003.12,517.26Z" transform="translate(-893.78 -420.77)"/><path class="cls-2" d="M951.86,446.69q-18.47,0-36.92,0c-3.35,0-4.11-1.14-2.79-4.21,1.54-3.61,4.63-4.3,8.15-4.3q23.9,0,47.79,0c5.6,0,11.2,0,16.8,0,3.36,0,6,1.25,7.21,4.65,1,2.91.38,3.83-2.67,3.83Q970.65,446.71,951.86,446.69Z" transform="translate(-893.78 -420.77)"/><path class="cls-2" d="M952.19,556.35c3.41,0,6.82.12,10.22,0,3.15-.14,2.5,2,2.53,3.8s.41,3.59-2.48,3.54q-10.38-.2-20.76,0c-3.22.06-2.4-2.12-2.44-3.82s-.58-3.66,2.39-3.52C945.16,556.48,948.68,556.35,952.19,556.35Z" transform="translate(-893.78 -420.77)"/><path class="cls-2" d="M986,645.62a14.25,14.25,0,0,1,2,0c1.1.13,2.69-.61,3.09,1a3.53,3.53,0,0,1-1.56,3.41,5.52,5.52,0,0,1-5.83,1c-1.86-.71-3.36-2.21-3.1-4.16.3-2.19,2.48-.87,3.81-1.19A7.37,7.37,0,0,1,986,645.62Z" transform="translate(-893.78 -420.77)"/><path class="cls-2" d="M918.25,645.62c.77,0,1.54,0,2.3,0,1,.07,2.43-.42,2.91.86s-.34,2.33-1.19,3.23a5.17,5.17,0,0,1-6,1.24c-1.8-.71-3.49-2.1-3.17-4.13s2.52-.88,3.86-1.2A6.36,6.36,0,0,1,918.25,645.62Z" transform="translate(-893.78 -420.77)"/><path class="cls-2" d="M952.36,431.15a15,15,0,0,1-2.54,0c-.83-.15-2.24.72-2.39-.74-.12-1.1,1.25-1.38,2.09-1.8a4.87,4.87,0,0,1,1.91-.4c2-.12,4.91.11,4.93,2C956.37,432.37,953.53,430.44,952.36,431.15Z" transform="translate(-893.78 -420.77)"/><path class="cls-1" d="M976.35,604.71a24.34,24.34,0,1,1-24.14-24.52A24.33,24.33,0,0,1,976.35,604.71Zm-7.24-.16A17.09,17.09,0,1,0,952,621.74,17.16,17.16,0,0,0,969.11,604.55Z" transform="translate(-893.78 -420.77)"/><path class="cls-1" d="M986.76,608.29c-3,0-5-1.51-4.71-3.8.31-2.74,2.25-3.5,4.72-3.51s4.85.77,4.86,3.69S989.34,608.36,986.76,608.29Z" transform="translate(-893.78 -420.77)"/><path class="cls-1" d="M917.92,601c2.09,0,4.15.89,4.12,3.65,0,2.93-2.19,3.74-4.83,3.67-3-.08-4.94-1.5-4.72-3.8C912.79,601.45,915,601,917.92,601Z" transform="translate(-893.78 -420.77)"/><path class="cls-2" d="M969.11,604.55a17.09,17.09,0,1,1-34.17.18,17.09,17.09,0,1,1,34.17-.18Z" transform="translate(-893.78 -420.77)"/><path class="cls-3" d="M916.94,498.12c0,1.22.56,1.78,1.77,1.78h9.53c.6,0,.6,0,.6.6,0,5.94,0,11.89,0,17.84a24.4,24.4,0,0,0,.12,4.19,11.68,11.68,0,0,0,7.06,9.09,11.39,11.39,0,0,0,4.39.92,28.69,28.69,0,0,0,5.16-.13,11.38,11.38,0,0,0,6.77-3.55,11.06,11.06,0,0,0,3.18-7.59c.07-4.38,0-8.75.08-13.12,0-.24,0-.48,0-.71h0v-5.83a1.21,1.21,0,0,0,0-.19V490.18h0c0-.53,0-1.06,0-1.59-.06-3.11,0-6.22,0-9.33a8.76,8.76,0,0,1,1.91-5.69,8.44,8.44,0,0,1,6.35-3.31c1.37-.07,2.74,0,4.12,0a7.11,7.11,0,0,1,3,.69,8.72,8.72,0,0,1,5.39,8.29c0,2,0,4,0,6q0,7.08,0,14.17c0,.4-.12.5-.5.5-2.28,0-4.55,0-6.83,0a1.47,1.47,0,0,0-1.59,1.54v11.79h0c0,3.94,0,7.88,0,11.83a1.47,1.47,0,0,0,1.53,1.56c.32,0,.65,0,1,0s.45.1.45.45c0,2.28,0,4.55,0,6.83a1.52,1.52,0,0,0,1.64,1.63h11.63a1.47,1.47,0,0,0,1.57-1.36,2.12,2.12,0,0,0,0-.44c0-2.21,0-4.41,0-6.62,0-.4.13-.53.51-.49a5.77,5.77,0,0,0,.72,0,1.53,1.53,0,0,0,1.73-1.74V501.61a1.53,1.53,0,0,0-1.72-1.72h-6.46c-.84,0-.73.11-.73-.73v-20a11.78,11.78,0,0,0-10.5-11.87,35.11,35.11,0,0,0-4.47-.08,11.61,11.61,0,0,0-2.56.28,11.8,11.8,0,0,0-6.33,3.8,11.35,11.35,0,0,0-2.87,7.4c-.05,3.93,0,7.86-.06,11.79,0,.7,0,1.4,0,2.1v2.64c0,.41,0,.82,0,1.23a.61.61,0,0,0,0,.14v10.83h0c0,.93,0,1.85,0,2.78,0,3.47,0,6.95,0,10.42a8.65,8.65,0,0,1-1.39,4.85,8.4,8.4,0,0,1-6.78,4c-1.43.1-2.87,0-4.31,0a7,7,0,0,1-3.05-.71,8.59,8.59,0,0,1-5.23-8.12c0-2.5,0-5,0-7.51q0-6.44,0-12.88c0-.35.13-.44.45-.42s.91,0,1.37,0h8.08a3.24,3.24,0,0,0,.88,0,1.54,1.54,0,0,0,1.13-1.58q0-8.42,0-16.83v-6.7a1.5,1.5,0,0,0-1.59-1.6h-.77c-.59,0-.59,0-.59-.59v-6.5a1.65,1.65,0,0,0-1.81-1.82c-5.77,0-11.53,0-17.29,0a1.57,1.57,0,0,0-1.74,1.75v6.17c0,1,0,1-1,1h-.2c-1.23,0-1.79.55-1.79,1.77v23.18Zm65.32,34c0,.3-.11.4-.4.4h-8.08c-.34,0-.43-.13-.43-.45q0-2.57,0-5.13c0-.3.11-.39.4-.39h8.07c.33,0,.45.09.44.43C982.25,528.74,982.25,530.45,982.26,532.16Zm2.43-29.32c.59,0,.59,0,.59.61v9.81h0q0,5,0,9.93c0,.4-.16.47-.51.46l-11.87,0c-.66,0-1.32,0-2,0-.4,0-.53-.09-.52-.51,0-2.26,0-4.52,0-6.78v-13c0-.56,0-.56.55-.56Zm-61.78-35.13c0-.36.1-.5.48-.49.7,0,1.4,0,2.1,0,.28,0,.37.1.37.37,0,.85,0,1.7,0,2.54a1.45,1.45,0,0,0,1.5,1.55,1.43,1.43,0,0,0,1.46-1.49c0-.82,0-1.64,0-2.46,0-.4.14-.52.52-.51.66,0,1.32,0,2,0,.36,0,.5.1.49.48,0,.86,0,1.73,0,2.59a1.42,1.42,0,0,0,1.3,1.4,1.47,1.47,0,0,0,1.6-1.07,1.84,1.84,0,0,0,0-.52c0-.82,0-1.64,0-2.46,0-.3.09-.41.39-.4.71,0,1.43,0,2.14,0,.32,0,.42.11.42.42,0,1.72,0,3.45,0,5.17,0,.3-.11.39-.4.38H923.4c-.35,0-.5-.07-.49-.46C922.93,471.05,922.92,469.38,922.91,467.71Zm-3,18.78v-9.81c0-.54,0-.54.54-.54l17.57,0c.75,0,1.5,0,2.26,0,.35,0,.46.11.46.47,0,3.83,0,7.67,0,11.5v8.32c0,.53,0,.53-.55.53H920.55c-.65,0-.66,0-.66-.67v-9.77Z" transform="translate(-893.78 -420.77)"/><rect class="cls-4" x="930.17" y="502.35" width="21.02" height="51.8" rx="10.51" transform="translate(-481.35 1048.17) rotate(-90)"/><rect class="cls-5" x="933.07" y="516.35" width="15.22" height="23.8" transform="translate(-481.35 1048.17) rotate(-90)"/><circle class="cls-4" cx="41.18" cy="110.76" r="2.16"/><circle class="cls-4" cx="46.93" cy="110.76" r="2.16"/><circle class="cls-4" cx="52.63" cy="110.76" r="2.16"/><circle class="cls-4" cx="41.18" cy="104.21" r="2.16"/><circle class="cls-4" cx="46.93" cy="104.21" r="2.16"/><circle class="cls-4" cx="52.63" cy="104.21" r="2.16"/></svg>