<svg id="Layer_1" data-name="Layer 1" xmlns="http://www.w3.org/2000/svg" viewBox="0 0 134.5 160.67"><defs><style>.cls-1{fill:#9ba9b2;}.cls-2{fill:#f0e8d3;}.cls-3{fill:#e75441;}.cls-4{fill:#020202;}.cls-5{fill:#f4f4f4;}</style></defs><title>burn</title><path class="cls-1" d="M951.67,620.24c-18.73,0-37.47,0-56.21,0-2.3,0-2.91-.63-2.88-2.93.12-11.57.1-23.15,0-34.73,0-1.87.52-2.42,2.37-2.42q56.71.06,113.42,0c1.85,0,2.39.55,2.37,2.42q-.12,17.49,0,35c0,2.06-.53,2.67-2.63,2.66C989.31,620.21,970.49,620.24,951.67,620.24Zm35-33.83c-5.32,0-10.64,0-16,0-1.55,0-2.22.31-2.19,2,.11,5.32.09,10.64,0,16,0,1.61.45,2.18,2.12,2.17q15.71-.1,31.42,0c1.63,0,2.15-.43,2.11-2.09-.1-5.32-.12-10.64,0-16,.05-1.88-.68-2.16-2.3-2.13C996.8,586.46,991.72,586.41,986.65,586.41Zm-37.54,9.92c0,2.74.07,5.49,0,8.23-.05,1.54.51,2,2,2,3-.09,6-.07,9,0,1.37,0,1.92-.39,1.9-1.84-.06-5.5-.07-11,0-16.48,0-1.47-.56-1.86-1.91-1.83-3,.06-6,.11-9,0-1.75-.07-2.09.69-2,2.22C949.18,591.17,949.11,593.75,949.11,596.33Zm-9.65.1c0-2.75,0-5.49,0-8.24,0-1.19-.2-1.85-1.61-1.81-3.16.08-6.32.07-9.48,0-1.25,0-1.54.5-1.53,1.64q.07,8.47,0,17c0,1.2.42,1.59,1.6,1.57,3.08-.07,6.16-.1,9.23,0,1.5.05,1.83-.56,1.79-1.9C939.41,601.92,939.47,599.17,939.46,596.43Zm-23.25,0c0-2.75-.05-5.49,0-8.24,0-1.26-.34-1.8-1.69-1.77-3.16.08-6.32.06-9.48,0-1.2,0-1.56.47-1.55,1.63,0,5.58.06,11.15,0,16.73,0,1.5.6,1.82,1.93,1.79,3-.06,6-.08,9,0,1.5.05,1.85-.58,1.82-1.92C916.16,601.89,916.21,599.14,916.21,596.39Z" transform="translate(-892.56 -459.62)"/><path class="cls-1" d="M1027.05,484.81a7.06,7.06,0,0,0-3.56-6.73,2.7,2.7,0,0,1-1.56-2.47,7,7,0,0,0-4.79-6.63,3.7,3.7,0,0,1-2.58-2.94,7.68,7.68,0,0,0-6.62-6.24c-3.78-.65-7,.46-9,3.86-.8,1.35-1.46,1.63-2.91,1a5.77,5.77,0,0,0-7.38,2.32,2.18,2.18,0,0,1-2.61,1.17c-3.74-.58-6.52.68-7.86,4.4-.35,1-1,.86-1.78.85-3.78-.05-6,1.88-5.74,5.49.1,1.73-.88,2.05-1.92,2.68A5.69,5.69,0,0,0,966,488.2c.92,2.88,3.39,5.05,6.09,4.34s5.27-1.11,8-.15a.33.33,0,0,0,.24,0c3.08-1.87,6.18-1.44,9.43-.39a5.28,5.28,0,0,0,4.1-.59,2.9,2.9,0,0,1,2.65-.17,4.43,4.43,0,0,0,4.64-.84c.85-.68,1.29-.79,2.19.06,3.29,3.13,6.7,3.18,9.83,0,1.13-1.13,1.71-.69,2.67,0a6.73,6.73,0,0,0,7.53.34C1025.61,489.47,1027.15,487.39,1027.05,484.81Z" transform="translate(-892.56 -459.62)"/><path class="cls-2" d="M913.76,500.58c-.65,0-1.16.2-.93,1a4.83,4.83,0,0,0-.12.73q0,19.55,0,39.07a3.73,3.73,0,0,0,.12,1.47c.08.19.19.29.32.31a.7.7,0,0,0,.62-.36,1.59,1.59,0,0,0,.75,0,2,2,0,0,0,.68-.32c1.44-.49,3.06-.53,4.21-1.73h0a11.45,11.45,0,0,0,2.94-.59l.71-.26c.43-.17.84-.35,1.25-.55s1-.52,1.52-.81a2.46,2.46,0,0,0,2.36-.86c1.21.06,1-.82,1-1.54q0-17,0-33.94c0-.67.27-1.66-1-1.45C923.38,500.3,918.57,500.68,913.76,500.58Z" transform="translate(-892.56 -459.62)"/><path class="cls-3" d="M1010.75,559.57c.14-2.53-.61-3.29-3.17-3.23-7.49.16-15,.06-22.48,0-1.12,0-2.37.27-2.69-1.45-.77-4.24-1.75-8.46-2.42-12.72-.28-1.77-.54-2.18-2.4-1.42-12.33,5-24.74,9.87-37.09,14.87-1.59.64-2.18.44-2.64-1.22-1.11-4-2.39-7.92-3.6-11.88-.77-2.85-.77-2.85-4.06-.91a1.61,1.61,0,0,0-.49,0Q911.84,548.8,894,555.92c-1.21.48-1.33,1.27-1.32,2.33,0,4.17.19,8.34-.06,12.49-.16,2.57.62,3.15,3.11,3.14,28.31-.09,56.62-.06,84.92-.06,9.16,0,18.32-.05,27.48,0,2,0,2.79-.33,2.67-2.55A109.47,109.47,0,0,1,1010.75,559.57Z" transform="translate(-892.56 -459.62)"/><path class="cls-4" d="M919.4,540.79A2.08,2.08,0,0,1,918,540a1.46,1.46,0,0,1,.1-1.8.74.74,0,0,1,.6-.24c.75.25.42.93.51,1.44s.15,1,.22,1.43Z" transform="translate(-892.56 -459.62)"/><path class="cls-4" d="M958.07,541.6a1,1,0,0,1,1.1,1.14C957.57,543.55,958,542.39,958.07,541.6Z" transform="translate(-892.56 -459.62)"/><path class="cls-5" d="M986.65,586.41c5.07,0,10.15.05,15.22,0,1.62,0,2.35.25,2.3,2.13-.13,5.32-.11,10.64,0,16,0,1.66-.48,2.1-2.11,2.09q-15.7-.1-31.42,0c-1.67,0-2.14-.56-2.12-2.17.08-5.32.1-10.64,0-16,0-1.74.64-2.08,2.19-2C976,586.45,981.33,586.41,986.65,586.41Z" transform="translate(-892.56 -459.62)"/><path class="cls-5" d="M949.11,596.33c0-2.58.07-5.16,0-7.74-.06-1.53.28-2.29,2-2.22,3,.13,6,.08,9,0,1.35,0,1.93.36,1.91,1.83-.08,5.49-.07,11,0,16.48,0,1.45-.53,1.87-1.9,1.84-3-.06-6-.08-9,0-1.52.05-2.08-.45-2-2C949.18,601.82,949.11,599.07,949.11,596.33Z" transform="translate(-892.56 -459.62)"/><path class="cls-5" d="M939.47,596.43c0,2.74-.06,5.49,0,8.23,0,1.34-.29,2-1.79,1.9-3.07-.11-6.15-.08-9.23,0-1.18,0-1.61-.37-1.6-1.57q.06-8.47,0-17c0-1.14.28-1.66,1.53-1.64,3.16.07,6.32.08,9.48,0,1.41,0,1.64.62,1.61,1.81C939.42,590.94,939.46,593.68,939.47,596.43Z" transform="translate(-892.56 -459.62)"/><path class="cls-5" d="M916.21,596.39c0,2.75-.05,5.5,0,8.24,0,1.34-.32,2-1.82,1.92-3-.09-6-.07-9,0-1.33,0-1.95-.29-1.93-1.79.07-5.58,0-11.15,0-16.73,0-1.16.35-1.65,1.55-1.63,3.16.05,6.32.07,9.48,0,1.35,0,1.72.51,1.69,1.77C916.16,590.9,916.21,593.64,916.21,596.39Z" transform="translate(-892.56 -459.62)"/><path class="cls-1" d="M974.14,502c0-1.07-.47-1.47-1.51-1.46-4.4,0-8.81,0-13.21,0-1,0-1.53.33-1.52,1.42q.09,16.06.16,32.14v1a3,3,0,0,0,0,2,12,12,0,0,0,0,4.47,1,1,0,0,1,1.1,1.14c4.81-1,9.27-3.13,13.91-4.68,1.24-.41,1.22-1.37.85-2.41C974.38,524.44,974,513.23,974.14,502Z" transform="translate(-892.56 -459.62)"/></svg>