<svg id="Layer_1" data-name="Layer 1" xmlns="http://www.w3.org/2000/svg" viewBox="0 0 173.35 161.03"><defs><style>.cls-1{fill:#5c5c5c;}.cls-2{fill:#060606;}.cls-3{fill:#080808;}.cls-4{fill:#050608;}.cls-5{fill:#929292;}.cls-6{fill:#434274;}.cls-7{fill:#141236;}.cls-8{fill:#1e1c53;}.cls-9{fill:#585858;}.cls-10{fill:#b44325;}.cls-11{fill:#383838;}.cls-12{fill:#272727;}.cls-13{fill:#a6cfdf;}.cls-14{fill:#e1e1e1;}.cls-15,.cls-16{fill:#fff;}.cls-16{font-size:24px;font-family:DINAlternate-Bold, DIN Alternate;font-weight:700;}.cls-17{font-size:12px;}</style></defs><title>car</title><path class="cls-1" d="M967.72,594.18a21.68,21.68,0,0,1,0-5.69c9.41,0,18.81,0,28.21,0a8.77,8.77,0,0,0,9-8.7c0-5-3.71-8.59-9-8.62-2.24,0-4.49.05-6.74,0a10.42,10.42,0,0,1-10.11-8.7c-.8-3.9,2-8.62,6.27-10.6,3-1.38,6.06-.52,9.1-.72a3.45,3.45,0,0,0,3.12-1.71A2.84,2.84,0,0,0,997,546a10.63,10.63,0,0,1-1.31-1.82,14.25,14.25,0,0,1,17.92-20.55c5,2.19,7.47,6.11,8.4,11.25.57,3.16,3,1.49,4.62,1.64,2,.2,1.33-1.55,1.17-2.53a20.3,20.3,0,0,0-10.8-15.27c-.61-.34-1.52-.36-1.7-1.29,2.34-.25,4.31.85,6.34,1.72,9.58,4.1,16.12,15.65,14.57,25.87a6.2,6.2,0,0,0,.24,2.41,23.43,23.43,0,0,1-6.07,7.43c-5.46,4.45-11.59,7.31-18.8,7.47-2.39.05-3.77,1.37-3.62,3.21.18,2.27,1.66,2.71,3.66,2.7,4.15,0,8.29.08,12.43.14.11.45.41.62.86.73a15.34,15.34,0,0,1,10.82,19.1,16.76,16.76,0,0,0-.32,3c-2.36,2.49-5.47,3-8.65,3q-21,.06-41.91,0c-1.89,0-3.13.31-2.94,2.52l-1.15.22-4,.13-.81.09c.48-2.33-.52-3.15-2.81-2.95C971.36,594.26,969.53,594.16,967.72,594.18Z" transform="translate(-872.65 -458.85)"/><path class="cls-2" d="M881,500.29l1.49.2c.24.55.6.79,1.18.49,6.49,1.56,11.82,5.23,16.68,9.56,7.57,6.73,15,13.66,22.41,20.55a9.83,9.83,0,0,0,7.23,2.75c3.57-.07,7.15,0,10.73,0,9.59,0,15.45,5.91,15.45,15.57,0,10.24.05,20.47,0,30.71,0,2,.46,2.86,2.61,2.68s3.15,1.12,3.15,3.23c0,4.33,0,8.66,0,13,0,2.64-.94,3.57-3.6,3.58-9.32,0-18.64,0-28,0a3.4,3.4,0,0,0-3.5,2c-5.95,11-16.73,16.68-29.27,15.06-10.52-1.36-20.16-8.56-23.75-21a18.24,18.24,0,0,1-.37-2.46A1.59,1.59,0,0,0,873,594a17.15,17.15,0,0,1,0-5.85,1.11,1.11,0,0,0,.4-1.68l.09-.76c.2-1.2.41-2.39.61-3.58a48.46,48.46,0,0,1,4.12-7.59c6.9-10.28,19.83-14.21,31.21-11,9.59,2.71,16,9,19.16,18.49.41,1.13,1.38,1,2.29,1H948c.79,0,1.74.25,2-.93a33,33,0,0,0,.38-8c.5-2.52-.69-3.13-3-3.08-6.35.11-12.85.83-18.37-3.47-2.94-3.56-4.79-7.42-4.56-12.25.25-5.48,1.76-7.21,7.18-7.21s11,0,16.49,0c1,0,2.48.25,2.07-1.55-.69-2.94-4-7.16-7.74-7-4.08.15-8.17-.09-12.24.06-4.56.18-8.27-1.62-11.5-4.56-5.34-4.88-10.4-10.07-15.94-14.71-2.76-2.31-5.25-5-8.47-6.79a14.51,14.51,0,0,0-4.31-3.63A32.64,32.64,0,0,0,872.85,505a4,4,0,0,1-.07-.48c-.2-5.52-.2-5.52,5.31-4.89C879,500.31,879.84,500.88,881,500.29Zm49.1,93.77c-.37,1.9.27,2.63,2.34,2.59q10.58-.18,21.16,0c2,0,2.71-.67,2.42-2.56a23.34,23.34,0,0,1,0-3.24c.31-2.23-.57-2.84-2.77-2.78-5.9.15-11.8,0-17.7,0-4.48,0-4.48,0-5.23,4.22C930.21,592.91,930.16,593.49,930.08,594.06Zm-47.5,9.48A21,21,0,0,0,894.49,613a21.78,21.78,0,0,0,17.09-1.33c3.23-1.58,6.33-3.6,7.92-7.14,4.11-3.94,5.23-9,5-14.36a23.06,23.06,0,0,0-25.93-21.77c-11.23,1.7-20,11.24-20,22.51C878.51,595.57,879.47,599.9,882.58,603.54Zm61.1-38c1.66,0,3.33-.05,5,0,1.27,0,1.8-.42,1.78-1.73-.05-2.82,0-5.65,0-8.48,0-1.28-.47-1.76-1.76-1.75-5.58,0-11.15,0-16.72,0-1.36,0-1.9.43-2,1.86a9.51,9.51,0,0,0,9.17,10.08C940.68,565.62,942.18,565.56,943.68,565.57Z" transform="translate(-872.65 -458.85)"/><path class="cls-3" d="M1024.08,568.34c-4.14-.06-8.28-.18-12.43-.14-2,0-3.48-.43-3.66-2.7-.15-1.84,1.23-3.16,3.62-3.21,7.21-.16,13.34-3,18.8-7.47a23.43,23.43,0,0,0,6.07-7.43c6-9.73,2.54-23.07-5.93-30.39-1.73-1.49-3.42-3-5.76-3.56l-.14-.17a4.11,4.11,0,0,0-3.3-1.37l-.88-.16a2.79,2.79,0,0,0-3-.69l-.79-.16c-.25-1.25.42-2.52-.13-3.75l.14-1.32.79-.54,1.76.21c.62.84,1.46.71,2.31.52l.92.17a1.13,1.13,0,0,0,1.63.62l.87.26a4.53,4.53,0,0,0,3.09,1.43l1.71.91a1,1,0,0,0,1.2.73,1.63,1.63,0,0,0,.34.19c.09.65.53.87,1.13.85l2,1.52a1,1,0,0,0,1,1l.48.51a1,1,0,0,0,1,1l1.59,1.92a2.54,2.54,0,0,0,1.43,2l1.5,2.5c-.16.57.22.88.59,1.2.31.76.63,1.51.94,2.27a.71.71,0,0,0,.49,1l.22.89c-.2.72-.24,1.38.59,1.76l.26,1.8a2.63,2.63,0,0,0,.58,2.76c0,2,0,4,0,6.07a2.7,2.7,0,0,0-.61,2.76l-.11,1c-1.09,1.12-.91,2.69-1.43,4l-.24.81a11.19,11.19,0,0,0-2.3,4.16,1.14,1.14,0,0,0-.15.36,1,1,0,0,0-.84,1.14l-.67.85a1.12,1.12,0,0,0-.87,1.11l-4.51,4.47a1,1,0,0,0-1.13.83l-2,1.58-.48.47.61.29.89.19c.65,1,1.76.93,2.72,1.2l.77.35c.24.49.56.84,1.17.72a1.22,1.22,0,0,0,.36.18,3,3,0,0,0,2.22,1.72l1.93,2.07a1.12,1.12,0,0,0,.88,1.11l1.7,2.82,2,6a16.71,16.71,0,0,1,.12,5.28c-.73,2.06-1.46,4.13-2.2,6.19a1,1,0,0,0-.14.37,1.06,1.06,0,0,0-.8,1.17l-.68.84a1.08,1.08,0,0,0-.92,1.06h0a2.06,2.06,0,0,0-1.52,1.43l0,0a8.89,8.89,0,0,0-3.55,2.34l-1.27.32a.75.75,0,0,0-1,.5l-.9.18a.81.81,0,0,0-1.11.18l-1,.18a18.38,18.38,0,0,0-2-.19h-43c-1,0-2,.22-2.91-.38l-.09-1.57c.22-.34.06-.62-.14-.89-.19-2.21,1-2.53,2.94-2.52q21,.09,41.91,0c3.18,0,6.29-.5,8.65-3a7.21,7.21,0,0,0,2.57-3c2.51-4.69,1.86-9.25-1-13.43C1034,570.22,1029.7,567.82,1024.08,568.34Z" transform="translate(-872.65 -458.85)"/><path class="cls-3" d="M1015.33,517.39c.18.93,1.09,1,1.7,1.29a20.3,20.3,0,0,1,10.8,15.27c.16,1,.8,2.73-1.17,2.53-1.59-.15-4.05,1.52-4.62-1.64-.93-5.14-3.44-9.06-8.4-11.25a14.25,14.25,0,0,0-17.92,20.55A10.63,10.63,0,0,0,997,546a2.84,2.84,0,0,1,.62,3.43,3.45,3.45,0,0,1-3.12,1.71c-3,.2-6.15-.66-9.1.72-4.26,2-7.07,6.7-6.27,10.6a10.42,10.42,0,0,0,10.11,8.7c2.25.08,4.5,0,6.74,0,5.24,0,8.92,3.58,9,8.62a8.77,8.77,0,0,1-9,8.7c-9.4,0-18.8,0-28.21,0-.61-5.74-.61-5.74,5-5.74,7.24,0,14.48,0,21.72,0a9.21,9.21,0,0,0,2.47-.2,2.87,2.87,0,0,0,2.35-2.86,2.77,2.77,0,0,0-2.46-2.74c-2.3-.46-4.64-.17-7-.19-8.33-.08-14-4.46-16-12.52-1.92-7.51,3.07-16.07,10.6-18.16a12.62,12.62,0,0,1,5.13-.76,28.44,28.44,0,0,1-1.69-7.64c-.2-10,5.22-17.46,14.9-20.39.88-.26,1.75-.55,2.62-.83C1008.69,516.82,1012.08,516.43,1015.33,517.39Z" transform="translate(-872.65 -458.85)"/><path class="cls-4" d="M872.94,539.07c-.31-7.29-.29-14.59,0-21.88.72-.28.63-.9.65-1.48,5.07-3,5.72-3,10.41.57.86.64,1.74,1.26,2.61,1.9,6.16,4.61,12.34,9.2,18.47,13.84a5.67,5.67,0,0,1,2,6.42c-1,2.69-2.42,3.7-5.43,3.7-6.48,0-13,0-19.44,0-3,0-5.95.14-8.57-1.66C873.57,539.94,873.64,539.33,872.94,539.07Zm16.71-2.32c3.08,0,6.16,0,9.24,0,.54,0,1.28.23,1.55-.45s-.54-.94-.93-1.24c-6.5-4.91-13-9.77-19.53-14.68-1.3-1-1.5-.41-1.5.84,0,4.57,0,9.15,0,13.73,0,1.47.6,1.86,1.94,1.83C883.48,536.71,886.57,536.75,889.65,536.75Z" transform="translate(-872.65 -458.85)"/><path class="cls-5" d="M1015.33,517.39c-3.25-1-6.64-.57-10-.94,2.82-2.32,6.3-2.46,9.68-2.83,2.64-.29,5.25.34,7.86.68,1.75.86,3.49,1.76,5.25,2.58.75.35,1.54,1.25,2.38.12,8.47,7.32,12,20.66,5.93,30.39a6.2,6.2,0,0,1-.24-2.41c1.55-10.22-5-21.77-14.57-25.87C1019.64,518.24,1017.67,517.14,1015.33,517.39Z" transform="translate(-872.65 -458.85)"/><path class="cls-6" d="M872.85,505A32.64,32.64,0,0,1,890,509.92a14.51,14.51,0,0,1,4.31,3.63c-.62.12-1.23.79-1.85.17-1.57-1.6-3.9-1.76-5.63-2.88-4.12-2.65-8.81-2.39-13.29-3.22l-.69.1A4.49,4.49,0,0,1,872.85,505Z" transform="translate(-872.65 -458.85)"/><path class="cls-7" d="M872.94,539.07c.7.26.63.87.63,1.44q0,19.79,0,39.56c0,.73-.16,1.52.53,2.08-.2,1.19-.41,2.38-.61,3.58-.87-.42-.72-1.22-.72-2q0-21.87,0-43.74A4.73,4.73,0,0,1,872.94,539.07Z" transform="translate(-872.65 -458.85)"/><path class="cls-2" d="M967.72,594.18c1.81,0,3.64.08,5.44-.07,2.29-.2,3.29.62,2.81,2.95,0,1.74-.63,2.53-2.53,2.34s-3.82,0-5.73,0A20.73,20.73,0,0,1,967.72,594.18Z" transform="translate(-872.65 -458.85)"/><path class="cls-7" d="M872.86,507.72l.69-.1c0,2.69,0,5.39,0,8.09,0,.58.07,1.2-.65,1.48A65.08,65.08,0,0,1,872.86,507.72Z" transform="translate(-872.65 -458.85)"/><path class="cls-6" d="M881,500.29c-1.14.59-2,0-2.89-.63A3.12,3.12,0,0,1,881,500.29Z" transform="translate(-872.65 -458.85)"/><path class="cls-6" d="M873,594a1.59,1.59,0,0,1,.46,2.14A1.72,1.72,0,0,1,873,594Z" transform="translate(-872.65 -458.85)"/><path class="cls-6" d="M873.38,586.49a1.11,1.11,0,0,1-.4,1.68A1.18,1.18,0,0,1,873.38,586.49Z" transform="translate(-872.65 -458.85)"/><path class="cls-6" d="M883.65,501c-.58.3-.94.06-1.18-.49C883,500.28,883.45,500.37,883.65,501Z" transform="translate(-872.65 -458.85)"/><path class="cls-8" d="M873.57,515.71c0-2.7,0-5.4,0-8.09,4.48.83,9.17.57,13.29,3.22,1.73,1.12,4.06,1.28,5.63,2.88.62.62,1.23-.05,1.85-.17,3.22,1.76,5.71,4.48,8.47,6.79,5.54,4.64,10.6,9.83,15.94,14.71,3.23,2.94,6.94,4.74,11.5,4.56,4.07-.15,8.16.09,12.24-.06,3.72-.14,7,4.08,7.74,7,.41,1.8-1.05,1.54-2.07,1.55-5.49,0-11,0-16.49,0s-6.93,1.73-7.18,7.21c-.23,4.83,1.62,8.69,4.56,12.25.52,2.57,3.88,5.36,7.11,6,4.74,1,9.53.22,14.29.53a32.49,32.49,0,0,1-.39,8l-21.47-.08c-3.15-9.52-9.57-15.78-19.16-18.49-11.38-3.22-24.31.71-31.21,11a48.46,48.46,0,0,0-4.12,7.59c-.69-.56-.54-1.35-.53-2.08q0-19.77,0-39.56c2.62,1.8,5.58,1.69,8.57,1.66,6.48-.08,13,0,19.44,0,3,0,4.47-1,5.43-3.7a5.67,5.67,0,0,0-2-6.42c-6.13-4.64-12.31-9.23-18.47-13.84-.87-.64-1.75-1.26-2.61-1.9C879.29,512.75,878.64,512.72,873.57,515.71Z" transform="translate(-872.65 -458.85)"/><path class="cls-9" d="M882.58,603.54c-3.11-3.64-4.07-8-4.05-12.6,0-11.27,8.79-20.81,20-22.51a23.06,23.06,0,0,1,25.93,21.77c.25,5.34-.87,10.42-5,14.36a2.42,2.42,0,0,0-1.5.8A25.37,25.37,0,0,1,888.77,608C886.49,606.77,884.93,604.62,882.58,603.54Zm36-12.39c.82-8.31-7.4-17.42-17.2-17.16-9.34.25-17.28,8-17.23,17.2a17.7,17.7,0,0,0,17.39,17.31C911.27,608.49,919.3,600,918.58,591.15Z" transform="translate(-872.65 -458.85)"/><path class="cls-10" d="M943.68,565.57c-1.5,0-3,0-4.49,0A9.51,9.51,0,0,1,930,555.48c.06-1.43.6-1.87,2-1.86,5.57,0,11.14,0,16.72,0,1.29,0,1.79.47,1.76,1.75-.05,2.83-.06,5.66,0,8.48,0,1.31-.51,1.78-1.78,1.73C947,565.52,945.34,565.57,943.68,565.57Z" transform="translate(-872.65 -458.85)"/><path class="cls-11" d="M930.08,594.06c.08-.57.13-1.15.24-1.72.75-4.22.75-4.22,5.23-4.22,5.9,0,11.8.1,17.7,0,2.2-.06,3.08.55,2.77,2.78a23.34,23.34,0,0,0,0,3.24Z" transform="translate(-872.65 -458.85)"/><path class="cls-12" d="M882.58,603.54c2.35,1.08,3.91,3.23,6.19,4.49A25.37,25.37,0,0,0,918,605.36a2.42,2.42,0,0,1,1.5-.8c-1.59,3.54-4.69,5.56-7.92,7.14A21.78,21.78,0,0,1,894.49,613,21,21,0,0,1,882.58,603.54Z" transform="translate(-872.65 -458.85)"/><path class="cls-12" d="M930.08,594.06l25.92,0c.29,1.89-.38,2.6-2.42,2.56q-10.58-.18-21.16,0C930.35,596.69,929.71,596,930.08,594.06Z" transform="translate(-872.65 -458.85)"/><path class="cls-7" d="M950.43,574.14c-4.76-.31-9.55.43-14.29-.53-3.23-.66-6.59-3.45-7.11-6,5.52,4.3,12,3.58,18.37,3.47C949.74,571,950.93,571.62,950.43,574.14Z" transform="translate(-872.65 -458.85)"/><path class="cls-7" d="M928.57,582.06l21.47.08c-.26,1.18-1.21.93-2,.93H930.86C930,583.07,929,583.19,928.57,582.06Z" transform="translate(-872.65 -458.85)"/><path class="cls-13" d="M889.65,536.75c-3.08,0-6.17,0-9.25,0-1.34,0-2-.36-1.94-1.83.07-4.58,0-9.16,0-13.73,0-1.25.2-1.82,1.5-.84,6.5,4.91,13,9.77,19.53,14.68.39.3,1.25.47.93,1.24s-1,.44-1.55.45C895.81,536.76,892.73,536.75,889.65,536.75Z" transform="translate(-872.65 -458.85)"/><path class="cls-3" d="M918.58,591.15c.72,8.81-7.31,17.34-17,17.35a17.7,17.7,0,0,1-17.39-17.31c0-9.24,7.89-17,17.23-17.2C911.18,573.73,919.4,582.84,918.58,591.15Zm-17.24-11.54a7.94,7.94,0,0,0-2.18.28c-1.51.57-3.81.64-4.13,2.28-.25,1.32,1.84,2.05,3,2.92,3.64,2.74,3.7,2.78,7,.13,1.17-1,3.67-1.65,3.23-2.93-.63-1.87-3.16-2.1-5.08-2.57A11.83,11.83,0,0,0,901.34,579.61Zm.4,23.15a11.07,11.07,0,0,0,5.71-1.69c1-.64,1-1.05.12-1.84-5.14-4.82-5.86-4.88-11.41-.66-.27.2-.5.44-.78.62-1.07.68-.82,1.2.11,1.81A11.34,11.34,0,0,0,901.74,602.76Zm11.36-11.35c0-1.89-.37-3.87-.83-3.94-1.43-.24-2,1.2-3.1,1.68-.08,0-.14.1-.21.14-2.66,1.88-2.69,1.92-.12,3.86,1,.76,2,2.41,3.23,1.87S912.76,592.52,913.1,591.41Zm-23.1-.1c0,1.31-.24,3,1.07,3.59,1,.47,1.8-.89,2.64-1.49,3.06-2.16,3-2.2-.53-4.94-.67-.51-1.29-1.64-2.22-1.12-.74.42-.9,1.53-1,2.46C890,590.31,890,590.81,890,591.31Z" transform="translate(-872.65 -458.85)"/><path class="cls-14" d="M901.34,579.61a11.83,11.83,0,0,1,1.78.11c1.92.47,4.45.7,5.08,2.57.44,1.28-2.06,2-3.23,2.93-3.25,2.65-3.31,2.61-7-.13-1.15-.87-3.24-1.6-3-2.92.32-1.64,2.62-1.71,4.13-2.28A7.94,7.94,0,0,1,901.34,579.61Z" transform="translate(-872.65 -458.85)"/><path class="cls-14" d="M901.74,602.76a11.34,11.34,0,0,1-6.25-1.76c-.93-.61-1.18-1.13-.11-1.81.28-.18.51-.42.78-.62,5.55-4.22,6.27-4.16,11.41.66.85.79.89,1.2-.12,1.84A11.07,11.07,0,0,1,901.74,602.76Z" transform="translate(-872.65 -458.85)"/><path class="cls-14" d="M913.1,591.41c-.34,1.11.35,3-1,3.61s-2.21-1.11-3.23-1.87c-2.57-1.94-2.54-2,.12-3.86.07,0,.13-.1.21-.14,1.08-.48,1.67-1.92,3.1-1.68C912.73,587.54,913.11,589.52,913.1,591.41Z" transform="translate(-872.65 -458.85)"/><path class="cls-14" d="M890,591.31c0-.5,0-1,0-1.5.06-.93.22-2,1-2.46.93-.52,1.55.61,2.22,1.12,3.58,2.74,3.59,2.78.53,4.94-.84.6-1.66,2-2.64,1.49C889.76,594.27,890,592.62,890,591.31Z" transform="translate(-872.65 -458.85)"/><path d="M924.11,560.61c-5.64-1.16-9.81-1.61-13.71-2.89-15.11-5-20.95-17.65-15.73-34.19,6.43-20.33,19.85-35.55,36.2-48.48a83.16,83.16,0,0,1,26.73-14.34,39.23,39.23,0,0,1,23.66-.06c8.87,2.74,15.54,10.58,10.33,22.34-3,6.68-7.71,12.61-12,18.65-1.43,2-2.46,3.22-1,5.88,2.76,5.07,1.62,10.35-.83,15.27-4.91,9.83-13.38,15.45-23.39,19a7.76,7.76,0,0,0-4.64,4.3c-1.72,3.23-4.34,6.77-7.48,8.27C936.18,557.27,929.47,558.84,924.11,560.61Zm48.47-51.83c-1.08.58-2,1.19-3,1.61-3.67,1.49-7.27,3.46-11.1,4.23-4.84,1-9.55-2.38-10.28-6.39a8.16,8.16,0,0,1,7.33-9.44,45.47,45.47,0,0,1,14.25,1.08c2.45.51,4.07.67,5.53-1.37,3.32-4.65,7-9.07,9.84-14,4-7.12,1.57-15.11-5.46-19.21-5.8-3.37-12-2-17.89-.49-17.44,4.48-30.83,15.38-42.61,28.41C910,503.29,902.54,514.41,899.48,528c-2.48,11,.52,19.06,9.2,23.54,10.89,5.61,21.61,4.3,31.85-1.92,1.49-.9,2.46-2.65,4.44-4.88-3,0-4.58.06-6.11,0a41.89,41.89,0,0,1-5.13-.41c-5-.83-7.66-3.51-7.43-7.34.25-4.19,3.7-7,8.77-7s8.92,2.53,12.38,6c.92.94,2.8,2,3.79,1.65,10-3.36,18.31-8.85,22.13-19.31C974.52,515.21,975,512,972.58,508.78ZM967.89,506l-.47-2.79a86.3,86.3,0,0,0-10.18.15c-1,.13-2.78,2.36-2.54,3.08.4,1.24,2.32,3.06,3.24,2.87A80,80,0,0,0,967.89,506Zm-25.95,34.09.55-2.07a66,66,0,0,0-7.26-2.88c-.66-.19-1.72,1.07-2.6,1.66.59.84,1,2.26,1.78,2.42A69.67,69.67,0,0,0,941.94,540.06Z" transform="translate(-872.65 -458.85)"/><path class="cls-15" d="M972.58,508.78c2.4,3.22,1.94,6.43.79,9.56-3.82,10.46-12.13,15.95-22.13,19.31-1,.33-2.87-.71-3.79-1.65-3.46-3.49-7.31-6-12.38-6s-8.52,2.78-8.77,7c-.23,3.83,2.42,6.51,7.43,7.34a41.89,41.89,0,0,0,5.13.41c1.53.07,3.07,0,6.11,0-2,2.23-3,4-4.44,4.88-10.24,6.22-21,7.53-31.85,1.92C900,547,897,539,899.48,528c3.06-13.56,10.55-24.68,19.67-34.77,11.78-13,25.17-23.93,42.61-28.41,5.84-1.5,12.09-2.88,17.89.49,7,4.1,9.49,12.09,5.46,19.21-2.8,4.94-6.52,9.36-9.84,14-1.46,2-3.08,1.88-5.53,1.37a45.47,45.47,0,0,0-14.25-1.08,8.16,8.16,0,0,0-7.33,9.44c.73,4,5.44,7.37,10.28,6.39,3.83-.77,7.43-2.74,11.1-4.23C970.56,510,971.5,509.36,972.58,508.78Z" transform="translate(-872.65 -458.85)"/><path class="cls-15" d="M967.89,506a80,80,0,0,1-9.95,3.31c-.92.19-2.84-1.63-3.24-2.87-.24-.72,1.51-3,2.54-3.08a86.3,86.3,0,0,1,10.18-.15Z" transform="translate(-872.65 -458.85)"/><path class="cls-15" d="M941.94,540.06a69.67,69.67,0,0,1-7.53-.87c-.74-.16-1.19-1.58-1.78-2.42.88-.59,1.94-1.85,2.6-1.66a66,66,0,0,1,7.26,2.88Z" transform="translate(-872.65 -458.85)"/><text class="cls-16" transform="translate(124.2 93.26)">CO<tspan class="cls-17" x="27.98" y="0">2</tspan></text></svg>