<svg id="Layer_1" data-name="Layer 1" xmlns="http://www.w3.org/2000/svg" viewBox="0 0 36.97 40.06"><defs><style>.cls-1{fill:#fff;}</style></defs><title>dead</title><path class="cls-1" d="M979.63,535.18a18.46,18.46,0,1,0-32.21,15.73c.62.75,1.67,1.23,1.86,2.25a18.6,18.6,0,0,1,.05,3h0c0,1,0,2,0,2.93a1.52,1.52,0,0,0,1.65,1.6c1.31,0,2.62,0,3.93,0,.53,0,.62-.19.61-.66,0-1.64,0-3.29,0-4.93,0-.42.1-.6.55-.57a16.67,16.67,0,0,0,1.87,0c.5,0,.69.09.68.65,0,1.62,0,3.24,0,4.86,0,.47.09.65.62.64,1.64,0,3.29,0,4.93,0,.51,0,.63-.14.62-.64,0-1.66,0-3.33,0-5,0-.41.12-.55.53-.53.64,0,1.29,0,1.93,0s.64.12.64.63c0,1.64,0,3.28,0,4.93,0,.47.15.6.61.59,1.27,0,2.53,0,3.8,0a1.58,1.58,0,0,0,1.78-1.81c0-1.66,0-3.33,0-5a2.16,2.16,0,0,1,.7-1.74A17.77,17.77,0,0,0,979.63,535.18Zm-25.7,10.09a4.6,4.6,0,1,1,4.59-4.62A4.61,4.61,0,0,1,953.93,545.27Zm15.32-.07a4.6,4.6,0,1,1,4.67-4.55A4.61,4.61,0,0,1,969.25,545.2Z" transform="translate(-943.11 -520.62)"/></svg>