<svg id="Layer_1" data-name="Layer 1" xmlns="http://www.w3.org/2000/svg" viewBox="0 0 216.51 216.47"><defs><style>.cls-1{fill:#546979;}.cls-2{fill:#c3c7c9;}.cls-3{fill:#adb2a6;}.cls-4{fill:#b2e5fb;}.cls-5{fill:#b7dd8e;}</style></defs><title>earthPie</title><path class="cls-1" d="M852.74,554c0,.1,0,.21.06.31,5.79,27.77,20.3,49.72,44.08,65.39,3.12,2.06,4.23,1.86,5.92-1.44,3.66-7.12,3-14-1.77-20.33-6-8-9.69-16.83-7.44-26.87,1.23-5.46,4.13-10.54,6.13-15.84l7.11.42A33,33,0,0,1,904,562c-6.3,10.65-5.6,20.89,1.81,30.89,6.94,9.38,8.83,19.36,2.11,29.8-1.26,2-1,3.14,1.25,4.15,26.53,11.82,53.42,13,80.55,2.43,20.05-7.83,36-20.84,52.07-45.8,14.08-23.14,17.4-54.46,4.43-87.29a12.36,12.36,0,0,0-2-2.7,18.46,18.46,0,0,0-2.55,2.35c-6,8.06-8.16,17.53-10.08,27.1a15.5,15.5,0,0,0-.68,4.25c.86,9.28-3.51,15.81-11,20.27-10.56,6.24-15.12,15.92-17,27.44a132.62,132.62,0,0,1-3.14,15.48c-2.28,7.79-7.1,13.61-15.1,16.13-5.18,1.63-10.19-.07-12.72-4.84a68.37,68.37,0,0,1-5.2-13.33c-1.83-6.56-5.38-9.76-12.18-10.08a45.65,45.65,0,0,1-8.2-.76c-8-1.91-12.25-7.3-13.32-15.45a30.82,30.82,0,0,1-.23-4.75l6.64.38a23.35,23.35,0,0,0,1.43,6.91c2,5.52,6.93,6.87,12.32,6.92,6.5.06,12.52,1.52,16.47,7.18a32.14,32.14,0,0,1,3.32,7.43c1.16,3.13,1.78,6.5,3.19,9.5,2.55,5.4,6.41,6.12,10.87,2.24a19.84,19.84,0,0,0,6.85-11.9,233.7,233.7,0,0,1,5.32-23.87c2.55-8.83,8.91-15,16.43-19.85,5.54-3.6,8.33-8.12,8.76-15a76.1,76.1,0,0,1,9.44-31.49,34.43,34.43,0,0,1,5.45-7.12c1.73-1.82,1.83-3.28.57-5.38a99.21,99.21,0,0,0-31.94-33.29c-29.61-18.35-60.74-21.59-93.4-9.13-5,1.92-5.11,2.23-2.82,6.94,1.2,2.49,2.3,5,3.59,7.46,3.67,7,9.73,10.43,17.15,12.59,6.51,1.88,12.77,4.73,19,7.52,3.69,1.66,5.71,4.92,6.62,8.94,1.27,5.66,3.76,9.43,10.62,10.14,10.3,1.06,13.38,9.55,7.69,19.41A69.45,69.45,0,0,1,962,530.86c-1.18-1.9-2.39-3.79-3.58-5.69A56.94,56.94,0,0,0,971,508.79c1.93-3.82,2.07-7.5-4.13-7.88-7.56-.46-12.74-4.75-14.27-11.68-1.83-8.25-7.78-10.64-14.37-12.83-4.44-1.47-8.93-2.81-13.42-4.12-.3-.08-.59-.19-.89-.28-7-10.71-14.06-21.45-20.9-32.29a8.93,8.93,0,0,0-.59-.84,108.25,108.25,0,0,1,109.5,5.61c50,32.78,63.72,100,30.69,150.27-32.49,49.43-100,63.31-149.47,30.74a108.5,108.5,0,0,1-47.24-71.24C848.2,554.16,850.47,554.08,852.74,554Z" transform="translate(-844.12 -426.65)"/><path class="cls-2" d="M971,508.79a56.94,56.94,0,0,1-12.56,16.38c-11.21-17.91-22.9-35.52-34.52-53.17.3.09.59.2.89.28,4.49,1.31,9,2.65,13.42,4.12,6.59,2.19,12.54,4.58,14.37,12.83,1.53,6.93,6.71,11.22,14.27,11.68C973.09,501.29,973,505,971,508.79Z" transform="translate(-844.12 -426.65)"/><path class="cls-2" d="M907.87,622.68c6.72-10.44,4.83-20.42-2.11-29.8-7.41-10-8.11-20.24-1.81-30.89a33,33,0,0,0,2.88-6.32c8.62.53,17.25,1.1,25.88,1.61a30.82,30.82,0,0,0,.23,4.75c1.07,8.15,5.37,13.54,13.32,15.45a45.65,45.65,0,0,0,8.2.76c6.8.32,10.35,3.52,12.18,10.08a68.37,68.37,0,0,0,5.2,13.33c2.53,4.77,7.54,6.47,12.72,4.84,8-2.52,12.82-8.34,15.1-16.13a132.62,132.62,0,0,0,3.14-15.48c1.9-11.52,6.46-21.2,17-27.44,7.54-4.46,11.91-11,11-20.27a15.5,15.5,0,0,1,.68-4.25c1.92-9.57,4.11-19,10.08-27.1a18.46,18.46,0,0,1,2.55-2.35,12.36,12.36,0,0,1,2,2.7c13,32.83,9.65,64.15-4.43,87.29-16,25-32,38-52.07,45.8-27.13,10.59-54,9.39-80.55-2.43C906.85,625.82,906.61,624.65,907.87,622.68Z" transform="translate(-844.12 -426.65)"/><path class="cls-3" d="M939.35,557.66c7.79.42,15.58.77,23.37,1,7.27.16,10.93-8.45,7.53-14.18-2.69-4.55-5.44-9.07-8.21-13.57a69.45,69.45,0,0,0,14.21-17.09c5.69-9.86,2.61-18.35-7.69-19.41-6.86-.71-9.35-4.48-10.62-10.14-.91-4-2.93-7.28-6.62-8.94-6.2-2.79-12.46-5.64-19-7.52-7.42-2.16-13.48-5.62-17.15-12.59-1.29-2.44-2.39-5-3.59-7.46-2.29-4.71-2.23-5,2.82-6.94,32.66-12.46,63.79-9.22,93.4,9.13a99.21,99.21,0,0,1,31.94,33.29c1.26,2.1,1.16,3.56-.57,5.38a34.43,34.43,0,0,0-5.45,7.12,76.1,76.1,0,0,0-9.44,31.49c-.43,6.92-3.22,11.44-8.76,15-7.52,4.87-13.88,11-16.43,19.85a233.7,233.7,0,0,0-5.32,23.87,19.84,19.84,0,0,1-6.85,11.9c-4.46,3.88-8.32,3.16-10.87-2.24-1.41-3-2-6.37-3.19-9.5a32.14,32.14,0,0,0-3.32-7.43c-4-5.66-10-7.12-16.47-7.18-5.39,0-10.33-1.4-12.32-6.92A23.35,23.35,0,0,1,939.35,557.66Z" transform="translate(-844.12 -426.65)"/><path class="cls-3" d="M852.78,554c15.67-.32,31.33.32,47,1.22-2,5.32-4.91,10.4-6.13,15.87-2.25,10,1.38,18.83,7.43,26.87,4.75,6.31,5.44,13.21,1.78,20.33-1.7,3.3-2.81,3.5-5.93,1.44-23.78-15.67-38.28-37.62-44.07-65.4C852.82,554.25,852.81,554.14,852.78,554Z" transform="translate(-844.12 -426.65)"/><path class="cls-1" d="M886.9,448.71a109,109,0,0,0-25.13,26.94,107.21,107.21,0,0,0-17.64,60.15c2.25-.1,4.49-.17,6.74-.23,0-1.84.15-3.69.37-5.54a6.48,6.48,0,0,1,1.64-.28,47.57,47.57,0,0,0,27.31-4.35c5.77-2.68,13.59.4,17.24,5.65a25.16,25.16,0,0,1,3,5.77l7.11.43c0-.1,0-.19,0-.29-3.42-16-20.52-23.53-33.4-16.54-6.09,3.32-12.77,3.81-19.63,2.64-2.26-.39-2.9-1.28-2.41-3.35,1.29-5.48,2.38-11,3.91-16.45,1.25-4.42,3-5.47,7.68-5.47,7.4,0,13.23,3.87,18,8.74,4.61,4.67,10,5.93,15.95,6.06a10.46,10.46,0,0,0,10.59-13.33,24.28,24.28,0,0,0-2.93-6.92c-6.67-10.61-10.21-22.47-14.14-34.2a5.68,5.68,0,0,1-.29-3.08q-1.75-2.74-3.5-5.5A9.12,9.12,0,0,1,886.9,448.71Zm-2.49,11.17c.63,1.56,1,2.42,1.32,3.3,3.8,11.5,7.58,23,14.16,33.32a13.85,13.85,0,0,1,1.51,3.24c1.16,3.68-.38,5.94-4.2,6-4.39.12-7.91-1.6-11.34-4.47A61.31,61.31,0,0,0,873,493.1c-3.41-1.62-7.45-1.93-11.82-3C867.54,479,874,468.33,884.41,459.88Z" transform="translate(-844.12 -426.65)"/><path class="cls-4" d="M943.94,536.83c-.62.5-1.25,1-1.86,1.49-.37.31-.67.64-1,1-11.17-.58-22.33-1.34-33.5-2,0-.1,0-.19,0-.29-3.42-16-20.52-23.53-33.4-16.54-6.09,3.32-12.77,3.81-19.63,2.64-2.26-.39-2.9-1.28-2.41-3.35,1.29-5.48,2.38-11,3.91-16.45,1.25-4.42,3-5.47,7.68-5.47,7.4,0,13.23,3.87,18,8.74,4.61,4.67,10,5.93,15.95,6.06a10.46,10.46,0,0,0,10.59-13.33,24.28,24.28,0,0,0-2.93-6.92c-6.67-10.61-10.21-22.47-14.14-34.2a5.68,5.68,0,0,1-.29-3.08C908.36,482.45,926.75,509.26,943.94,536.83Z" transform="translate(-844.12 -426.65)"/><path class="cls-5" d="M850.91,535.57c.05-1.83.16-3.67.37-5.51a6.48,6.48,0,0,1,1.64-.28,47.56,47.56,0,0,0,27.31-4.35c5.77-2.68,13.6.4,17.24,5.65a25.13,25.13,0,0,1,3,5.74C884,535.86,867.44,535.18,850.91,535.57Z" transform="translate(-844.12 -426.65)"/><path class="cls-5" d="M884.41,459.88c-10.4,8.45-16.87,19.07-23.27,30.26,4.37,1,8.41,1.34,11.82,3a61.31,61.31,0,0,1,12.9,8.21c3.43,2.87,6.95,4.59,11.34,4.47,3.82-.1,5.36-2.36,4.2-6a13.85,13.85,0,0,0-1.51-3.24c-6.58-10.32-10.36-21.82-14.16-33.32C885.43,462.3,885,461.44,884.41,459.88Z" transform="translate(-844.12 -426.65)"/></svg>