<svg id="Layer_1" data-name="Layer 1" xmlns="http://www.w3.org/2000/svg" viewBox="0 0 408.64 452.45"><defs><style>.cls-1{fill:#e7e6ea;}.cls-2{fill:#b2e5fb;}.cls-3{fill:#b7dd8e;}.cls-4{fill:#f0df6f;}.cls-5{fill:#959599;}.cls-6{fill:#ebf7f5;}.cls-7{fill:#3b4150;}.cls-8{fill:#d1d1d5;}.cls-9{fill:#d9d2cc;}.cls-10{fill:#0549aa;}.cls-11{fill:#f0eeaf;}.cls-12{fill:#d0ca74;}.cls-13{fill:#fff;}.cls-14{fill:#d7eeee;}.cls-15{fill:#c5e7ec;}.cls-16{fill:#ea6d57;}.cls-17{fill:#89c2b6;}.cls-18{fill:#f06f7c;}.cls-19{fill:#c2b49b;}.cls-20{fill:#bdbdc1;}.cls-21{fill:#a49489;}.cls-22{fill:#f3f6f4;opacity:0.85;}.cls-23{font-size:19.97px;fill:#2e4656;font-family:DINAlternate-Bold, DIN Alternate;font-weight:700;}</style></defs><title>earth</title><path class="cls-1" d="M964,696.44q-.63-12.81-1.26-25.6-.91-18.2-1.87-36.38h162.45a4.76,4.76,0,0,1,2.63.38q-.7,14.08-1.42,28.18a14.07,14.07,0,0,1-2.46-.46c-1.58-.57-2.12.09-2.48,1.57q-4.41,18-8.94,35.93-6,24-12,47.9c-.61-1-.34-2.14-.34-3.21q0-34.56,0-69.1c0-6.24,0-12.48,0-18.72,0-1.52-.51-2.06-2-2-3.28.07-6.57.09-9.85,0-1.63,0-2.08.6-2.08,2.16q.06,68.61,0,137.23c-.42.13-.84.31-1.27.4-4.5.91-9,1.88-13.51,2.68-3.82.69-7.55,2-11.48,2-.13-1.21-.29-2.42-.38-3.64-.34-4.48-.72-9-1-13.46-.07-1.3-.56-1.62-1.76-1.47-1.39.17-2.81.19-4.22.27q0-61.18,0-122.38c0-.64,0-1.29,0-1.93.1-1.32-.47-1.84-1.8-1.82-3,.06-5.92,0-8.88,0s-3.22.23-3.22,3.16q0,62,0,123.93c-.77.09-1.53.22-2.29.28q-9.33.68-18.66,1.3c-1.32.09-2,.34-1.88,2,.68,7.87,1.22,15.76,1.81,23.65-2.65.26-4.3,2-5.77,4-.8,1.08-1.65,2.13-2.52,3.15-2.86,3.34-5.42,6.94-8.52,10.08l-5.77-.08-3.39-24.28,10.42,0c3,0,3,0,3-2.95V669.79c0-4.25,0-8.49,0-12.74,0-1.56-.45-2.2-2.09-2.15-2.89.1-5.78,0-8.68,0-3.16,0-3.16,0-3.16,3.15V789.3A4.82,4.82,0,0,1,989,792c-.17-1.39-.35-2.79-.53-4.18-.12-1-.47-1.62-1.73-1.31a30.39,30.39,0,0,1-3.59.49c0-.18-.07-.35-.1-.53a.16.16,0,0,1,0-.22s.1-.08.1-.1-.08-.16-.12-.24c-.31-2-.76-4-.91-6.07-.09-1.34-.62-1.32-1.68-1.16-4.11.61-8.24,1.13-12.36,1.69a44.38,44.38,0,0,0-.79-9.55c0-1.54,0-3.08-.05-4.63.38-3.72-1.14-7.32-.73-11.06a21.34,21.34,0,0,0,0-2.88c0-4.1.19-8.21-.77-12.25q0-7.17,0-14.33a1.57,1.57,0,0,0-.44-1.4L965,722.1c.58-5.33-.68-10.57-.75-15.87C964.19,703,964.49,699.69,964,696.44Z" transform="translate(-866.14 -481.68)"/><path class="cls-2" d="M901.54,770.91l326.7-.86A163.41,163.41,0,0,1,1065,934.13C975.05,934.4,901.87,861.33,901.54,770.91Zm46-.23a54.93,54.93,0,0,1,5.56,11.2c6.54,17.61,18.89,26.93,37.55,27.76,13.82.62,25,6.47,34.57,16.14,17.41,17.51,12.81,45.34-6.64,55.84-9.21,5-15.35,13-19.52,22.65-1.37,3.16-.78,4.71,2.24,5.8,8,2.89,15.9,6.09,24,8.62,6.62,2.06,9.4.7,13.25-5.19,6.11-9.35,6-19.92,3.84-30-2.1-9.69.74-17.54,5.48-25.17,5.86-9.42,18-10.52,25.58-2.4a36.77,36.77,0,0,1,6.34,9.42c7.9,17.18,20,31.44,31.55,46.07,2.14,2.71,4.66,4.09,8,2.62,4.47-1.95,8.86-4.11,13.33-6.07,3.13-1.38,3.41-3.29,1.63-6-2.58-3.94-5.15-7.9-7.49-12-5.84-10.21-9.22-20.87-5.61-32.75,2-6.75,4.06-13.53,5.86-20.35,2.66-10.13,4.56-19.62-4.36-28.73-7.5-7.66-8.65-17.75-3-27.67,4.63-8.16,7.23-10.42,4.3-10.15l-44.11.54c-7.35,2.55-20.49,7.85-27.93,10.1-13.91,4.22-26.36,1.58-37.5-8-.89-.77-1.73-1.55-2.51-2.34Zm270.43.1-87.1-1.11c1.9,3.36,1.69,8-1.48,14.09-4.75,9.24-2,15.51,4.06,21.78,4.34,4.45,6.79,9.71,5.84,15.73-1.59,10.14-3.15,20.4-6.13,30.18-3.4,11.16-4,21.67,1.76,32,2,3.64,4.32,7.12,6.47,10.7,4.07,6.77,4.51,6.94,11.11,2.15C1195.19,865.34,1216.76,823.34,1218,770.78ZM987.61,902.61a10.19,10.19,0,0,0,1.7-1.84c6.18-13.18,15.58-23.16,28-30.92,8.15-5.09,10.7-17.52,7.07-26.45-5.22-12.87-15.28-19.85-28.42-22.8-8.44-1.89-17.34-2.39-25.34-5.38-14.54-5.43-22.66-17.28-27.83-31.54-4.06-11.21-10.88-11.58-22.9-12.82l-8,.1c.2,43,16,79.41,46.31,109.63C966.91,889.28,976.42,897,987.61,902.61Zm116,15.92c-1.47-2.08-2.22-3.29-3.1-4.39-11.39-14.28-22.81-28.54-30.43-45.36a21,21,0,0,0-2.84-4.6c-3.7-4.49-7.82-4.4-11.1.34-3.77,5.44-4.5,11.31-3.71,18a92.29,92.29,0,0,1-.24,23.07c-.78,5.65-3.72,11-6,17.38C1065.6,924.13,1084.36,924.71,1103.62,918.53Z" transform="translate(-866.14 -481.68)"/><path class="cls-2" d="M1012,770.63c1.32,1.63.75.83,2.51,2.34,11.14,9.57,23.59,12.21,37.5,8,7.44-2.25,20.58-7.55,27.93-10.1l44.11-.54c6.41.72.33,2-4.3,10.15-5.65,9.92-4.5,20,3,27.67,8.92,9.11,7,18.6,4.36,28.73-1.8,6.82-3.81,13.6-5.86,20.35-3.61,11.88-.23,22.54,5.61,32.75,2.34,4.08,4.91,8,7.49,12,1.78,2.73,1.5,4.64-1.63,6-4.47,2-8.86,4.12-13.33,6.07-3.37,1.47-5.89.09-8-2.62-11.57-14.63-23.65-28.89-31.55-46.07a36.77,36.77,0,0,0-6.34-9.42c-7.54-8.12-19.72-7-25.58,2.4-4.74,7.63-7.58,15.48-5.48,25.17,2.18,10.08,2.27,20.65-3.84,30-3.85,5.89-6.63,7.25-13.25,5.19-8.11-2.53-16-5.73-24-8.62-3-1.09-3.61-2.64-2.24-5.8,4.17-9.65,10.31-17.67,19.52-22.65,19.45-10.5,24.05-38.33,6.64-55.84-9.61-9.67-20.75-15.52-34.57-16.14-18.66-.83-31-10.15-37.55-27.76a54.93,54.93,0,0,0-5.56-11.2Z" transform="translate(-866.14 -481.68)"/><path class="cls-3" d="M1130.9,769.67c1.42,4.16,1.76,7.8-1.48,14.09-4.75,9.24-2,15.51,4.06,21.78,4.34,4.45,6.79,9.71,5.84,15.73-1.59,10.14-3.15,20.4-6.13,30.18-3.4,11.16-4,21.67,1.76,32,2,3.64,4.32,7.12,6.47,10.7,4.07,6.77,4.51,6.94,11.11,2.15,42.66-31,64.23-73,65.47-125.57Z" transform="translate(-866.14 -481.68)"/><path class="cls-3" d="M987.61,902.61c-11.19-5.57-20.7-13.33-29.43-22-30.33-30.22-46.11-66.65-46.31-109.63,0,0,2.45.15,8-.1a170.71,170.71,0,0,1,19.2-.05c1.18,2.25,2.24,6.22,3.7,12.87,5.17,14.26,13.29,26.11,27.83,31.54,8,3,16.9,3.49,25.34,5.38,13.14,2.95,23.2,9.93,28.42,22.8,3.63,8.93,1.08,21.36-7.07,26.45-12.44,7.76-21.84,17.74-28,30.92A10.19,10.19,0,0,1,987.61,902.61Z" transform="translate(-866.14 -481.68)"/><path class="cls-3" d="M1103.62,918.53c-19.26,6.18-38,5.6-57.43,4.46,2.29-6.37,5.23-11.73,6-17.38a92.29,92.29,0,0,0,.24-23.07c-.79-6.71-.06-12.58,3.71-18,3.28-4.74,7.4-4.83,11.1-.34a21,21,0,0,1,2.84,4.6c7.62,16.82,19,31.08,30.43,45.36C1101.4,915.24,1102.15,916.45,1103.62,918.53Z" transform="translate(-866.14 -481.68)"/><path class="cls-1" d="M1146.13,605.14c0-1.89-1-2.48-2.82-2.37-2.15.13-4.31,0-6.47,0,.53-1.54,1.92-2.36,3-3.47,1.86-2,1.91-1.94-.09-3.85-1.07-1-2.24-1.92-3.3-3q-10.32-10.08-20.58-20.22c-1.19-1.18-2-1.29-3.14,0-2.08,2.52-4.54,4.67-6.81,7-6.42,6.63-12.7,13.41-19.32,19.85-1.2,1.16-1.71,2.17-.67,3.61l-10.06,0a3.76,3.76,0,0,0,0-.95c-.47-1.71-.63-3.2,1.78-3.44.49,0,.58-.63.78-1,.5-1,1.15-2,1.69-3,.84-1.55,2-2.94,2.35-4.75a6.59,6.59,0,0,0,2.15-1.88,48.52,48.52,0,0,1,5.85-7.24,3.76,3.76,0,0,0,1.28-3.22c.48.57,1,.77,1.58.14,1.39-1.39,2.82-2.74,4.23-4.1l6.13-4.87a85.16,85.16,0,0,1,16.67-8.54c.16-.06.27-.25.41-.38l9.56-2c4,0,8.09.09,11.94,1.56,7.62,2.9,12.23,10,12.38,19.1.14,8.52-2.52,16.27-6.39,23.7C1147.62,603.08,1147.27,604.37,1146.13,605.14Zm-9.29-20.88a7.17,7.17,0,0,0,7.33-7.48,9.36,9.36,0,0,0-9.36-9,7.12,7.12,0,0,0-7.21,7.37A9.36,9.36,0,0,0,1136.84,584.26Z" transform="translate(-866.14 -481.68)"/><path class="cls-4" d="M1030.28,534c4.56-.78,9.22-.33,13.76-1.21a3.32,3.32,0,0,1,.76-.11c5.22.18,10.34-1.12,15.56-1,1.74.06,3.34-.84,5.11-.67.91.09,1.42.33,1.52,1.32.21,2.1.5,4.2.75,6.29,0,1.05,0,2.09.08,3.13l1.23,15.44c-1.63,1.22-3.65,1.44-5.5,2.12-.86.32-1.16-.3-1.12-1.06.23-4.38-.89-8.67-.88-13a46.13,46.13,0,0,0-.49-5c-.14-1.21-.65-1.55-1.85-1.59-2.48-.09-4.82.81-7.28.75-4.57-.09-9.1.65-13.63,1-4,.32-8,.21-11.88,1-3,.6-2.85.58-2.53,3.58a169.55,169.55,0,0,1,1.35,18.42c-2.43-.8-4.93-1.44-7-3,0-.57,0-1.13,0-1.7s.11-.92-.47-1.13l-.12-.67c0-.77,0-1.54,0-2.31.16-4.49-1.1-8.9-.9-13.4a7.66,7.66,0,0,0-.44-3c-.82-2.28-.09-3.18,2.33-3.31,3-.16,6,.09,8.95-.81Z" transform="translate(-866.14 -481.68)"/><path class="cls-5" d="M1067.82,541.79l-.08-3.13c.72-1.69,1.44-3.37,2.13-5.07.32-.77.73-1.18,1.61-.71,3.47,1.85,7.28,2.79,11,4.1l17.15,6.09,10.67,3.75a1.55,1.55,0,0,0,1.12,0c2.42.83,4.81,1.72,7.25,2.48,3,.93,5.78,2.37,8.89,2.89a1.61,1.61,0,0,0,1.41,1.13c1.86.3,2.41,1.22,1.53,2.95a4.35,4.35,0,0,0-.17,1.32l-9.56,2a4.52,4.52,0,0,1-2.23-.49c-5.62-2-11.22-4-16.86-5.9-5.26-1.8-10.42-3.89-15.79-5.38a84,84,0,0,1-2.86-8.26c-.31-.92-.63-1.46-1.75-1.08s-1.41.87-1,2c.65,1.86,1.19,3.76,1.77,5.65-4.15-1.1-8.11-2.78-12.18-4.12C1069.17,541.77,1068.53,541.22,1067.82,541.79Z" transform="translate(-866.14 -481.68)"/><path class="cls-6" d="M1030.28,534l-2.71.11a20,20,0,0,0-1.58-5.52c-3-8-5.46-16.17-8.64-24.1-2-5-3.48-10.16-5.29-15.21-1.16-3.23-2.68-3.68-6-2.61-5.87,1.87-11.57,4.19-17.37,6.23-4.17,1.46-8.4,2.76-12.56,4.23-3.27,1.16-6.49,2.43-9.8,3.45-1.25.39-2.68.49-3.66,1.58-1.66,1.83-1.12,3.82-.42,5.8,1,2.91,2.13,5.78,3.13,8.7,2.13,6.18,4.17,12.39,6.32,18.56,1.4,4,2.93,7.92,4.21,12,1.37,4.33,3.1,8.56,4.83,12.76a4.71,4.71,0,0,1,.52,3.1c-2.89-4.93-5.65-9.92-8.14-15.06a7.29,7.29,0,0,0-.82-3.13c-4.91-13.94-9.79-27.88-14.77-41.79-.65-1.81-.38-2.52,1.5-3.17Q984.5,491,1009.92,482c1.14-.41,2-.65,2.53.89q8.82,25.29,17.74,50.56A3.44,3.44,0,0,1,1030.28,534Z" transform="translate(-866.14 -481.68)"/><path class="cls-7" d="M1127.51,552.2c-3.11-.52-5.92-2-8.89-2.89-2.44-.76-4.83-1.65-7.25-2.48.14-2,1.15-3.63,1.68-5.46.23-.79.74-.66,1.35-.44,4.64,1.65,9.28,3.3,13.94,4.89,1,.33,1.14.75.79,1.67C1128.54,549,1128.05,550.63,1127.51,552.2Z" transform="translate(-866.14 -481.68)"/><path class="cls-1" d="M1145.73,605.62l.4-.51Z" transform="translate(-866.14 -481.68)"/><path class="cls-8" d="M989.26,797.48c1-1.89-.36-3.68-.23-5.53a4.82,4.82,0,0,0,.32-2.65V658.08c0-3.15,0-3.15,3.16-3.15,2.9,0,5.79.07,8.68,0,1.64,0,2.12.59,2.09,2.15-.08,4.25,0,8.49,0,12.74V799.08c0,2.95,0,2.95-3,2.95l-10.42,0C989.67,800.54,989.46,799,989.26,797.48Z" transform="translate(-866.14 -481.68)"/><path class="cls-8" d="M1050.77,781l-13.91,1q0-62,0-123.93c0-2.93.24-3.15,3.22-3.16s5.92,0,8.88,0c1.33,0,1.9.5,1.8,1.82,0,.64,0,1.29,0,1.93Q1050.75,719.86,1050.77,781Z" transform="translate(-866.14 -481.68)"/><path class="cls-8" d="M1098.6,748q-5.05,20.29-10.11,40.6c-.7,2.8-.69,2.8,2.17,3.55.23,0,.42.27.63.41-2.11,1.35-4.57,1.35-6.93,1.77q0-68.61,0-137.23c0-1.56.45-2.2,2.08-2.16,3.28.1,6.57.08,9.85,0,1.5,0,2,.5,2,2,0,6.24,0,12.48,0,18.72q0,34.54,0,69.1C1098.26,745.82,1098,746.94,1098.6,748Z" transform="translate(-866.14 -481.68)"/><path class="cls-9" d="M962.06,789.26l21-2.84c0,.18.06.35.1.53-4.5.66-9,1.43-13.5,1.95-3.21.37-6.33,1.42-9.6,1.36a1.62,1.62,0,0,0-1.35.62c-.14.2-.39,0-.51-.48l1.44-.68,1.41-.05.83-.31Z" transform="translate(-866.14 -481.68)"/><path class="cls-9" d="M983.1,786.2a.3.3,0,0,1,0-.34c0,.08.09.16.12.24S983.14,786.17,983.1,786.2Z" transform="translate(-866.14 -481.68)"/><path class="cls-6" d="M1082,546.09c-.58-1.89-1.12-3.79-1.77-5.65-.38-1.12,0-1.62,1-2s1.44.16,1.75,1.08a84,84,0,0,0,2.86,8.26,9.19,9.19,0,0,0,.74,2.74c.18.6.19,1.26,1.1,1.31,2,.12,3.15,1.43,3.91,3.17,1.74,6.19,3.87,12.25,5.92,18.34-1.41,1.36-2.84,2.71-4.23,4.1-.62.63-1.1.43-1.58-.14a10.84,10.84,0,0,0-.27-1.51c-1.5-4.58-3-9.15-4.54-13.72-1.19-3.59-1.17-3.59-4.71-2.39-.73.25-1.48.44-2.21.68-3.72,1.21-7.44,2.47-11.17,3.64-1.25.39-1.42,1-1,2.17.56,1.43,1,2.9,1.51,4.36,2.1,6.48,4.22,13,6.28,19.43.4,1.24,1,1.68,2.24,1.17,1.5-.58,3.05-1,4.58-1.49-.32,1.81-1.51,3.2-2.35,4.75-.54,1-1.19,2-1.69,3-.2.39-.29,1-.78,1-2.41.24-2.25,1.73-1.78,3.44a3.76,3.76,0,0,1,0,.95l-2.93,0c-.93-2.85-1.88-5.69-2.79-8.55s-1.7-5.75-2.75-8.56-1.51-5.66-3.06-8.56c-.39,1.32.1,2.16.15,3s.16,1.92.19,2.88c.13,4.22.12,4.12-4.08,4.37-5.25.31-10.49.83-15.73,1.22-4.85.37-9.7.7-14.55,1,.24-.73.45-1.46.73-2.18,2.22-5.64,4.38-11.32,6.73-16.91.67-1.59,0-1.93-1.19-2.43-3.78-1.53-7.69-2.76-11.32-4.66a169.55,169.55,0,0,0-1.35-18.42c-.32-3-.43-3,2.53-3.58,3.92-.79,7.93-.68,11.88-1,4.53-.37,9.06-1.11,13.63-1,2.46.06,4.8-.84,7.28-.75,1.2,0,1.71.38,1.85,1.59a46.13,46.13,0,0,1,.49,5c0,4.37,1.11,8.66.88,13,0,.76.26,1.38,1.12,1.06,1.85-.68,3.87-.9,5.5-2.12a1.28,1.28,0,0,0,.19,0c4.89-1.08,9.52-3,14.3-4.46.62-.19.55-.62.4-1.07C1083.29,549.84,1082.63,548,1082,546.09Z" transform="translate(-866.14 -481.68)"/><path class="cls-6" d="M1019.07,602.77l-27.93,0a17.42,17.42,0,0,1,.57-2c5-11.74,9.48-23.7,14.26-35.54,1.62-4,1.6-4.07,5.53-2.53,6.28,2.45,12.51,5,18.79,7.47,1.13.45,1.28.92.84,2q-3.27,8-6.43,16.08C1022.79,593.08,1020.94,597.93,1019.07,602.77Z" transform="translate(-866.14 -481.68)"/><path class="cls-6" d="M1085.9,602.77c-1-1.44-.53-2.45.67-3.61,6.62-6.44,12.9-13.22,19.32-19.85,2.27-2.34,4.73-4.49,6.81-7,1.09-1.31,2-1.2,3.14,0q10.23,10.17,20.58,20.22c1.06,1,2.23,1.93,3.3,3,2,1.91,2,1.89.09,3.85-1,1.11-2.44,1.93-3,3.47Z" transform="translate(-866.14 -481.68)"/><path class="cls-10" d="M1019.07,602.77c1.87-4.84,3.72-9.69,5.63-14.52q3.16-8.07,6.43-16.08c.44-1.08.29-1.55-.84-2-6.28-2.45-12.51-5-18.79-7.47-3.93-1.54-3.91-1.47-5.53,2.53-4.78,11.84-9.24,23.8-14.26,35.54a17.42,17.42,0,0,0-.57,2l-5,0c.31-.83.65-1.65.92-2.49.81-2.46,2.26-4.68,2.6-7.3a26.82,26.82,0,0,0,3.26-8.31c.49-.18.58-.61.75-1,.93-2.39,1.9-4.77,2.86-7.15.3-1,.61-1.92.92-2.88A71.9,71.9,0,0,0,1001,565c1.09-2.82,2.19-5.64,3.28-8.47.44-.9,1.07-.84,1.89-.49,1.33.57,2.71,1,4.07,1.52,2.61,1.06,5.06,2.54,7.93,2.87,2.11,1.57,4.61,2.21,7,3,3.63,1.9,7.54,3.13,11.32,4.66,1.24.5,1.86.84,1.19,2.43-2.35,5.59-4.51,11.27-6.73,16.91-.28.72-.49,1.45-.73,2.18-1.85,4.32-3.69,8.64-5.18,13.09A34.81,34.81,0,0,1,1019.07,602.77Z" transform="translate(-866.14 -481.68)"/><path class="cls-4" d="M1025.11,602.72c1.49-4.45,3.33-8.77,5.18-13.09,4.85-.34,9.7-.67,14.55-1,5.24-.39,10.48-.91,15.73-1.22,4.2-.25,4.21-.15,4.08-4.37,0-1-.12-1.92-.19-2.88s-.54-1.72-.15-3c1.55,2.9,2,5.83,3.06,8.56s1.83,5.71,2.75,8.56,1.86,5.7,2.79,8.55c-2.46.5-4.94,0-7.4,0-11.93.07-23.86,0-35.79,0C1028.18,602.83,1026.65,602.76,1025.11,602.72Zm33.39-4.57c.64,0,1.28,0,1.92,0,1.48.14,2.07-.44,2-2-.23-3.87.48-3.46-3.57-3.36a15.91,15.91,0,0,0-2.29.14c-.69.12-1.36.35-1.47,1.26C1054.68,597.38,1055.43,598.26,1058.5,598.15Zm-13.43,1.23c.7-.11,1.39-.22,2.08-.31,3.42-.46,3.32-.45,3-3.83-.16-1.54-.84-1.81-2.12-1.56-.75.14-1.51.26-2.26.38-2.8.45-2.72.45-2.73,3.39C1043,599,1043.61,599.54,1045.07,599.38Zm-13.73-2.08c.2,3.45.2,3.45,3.37,3a17.85,17.85,0,0,1,1.9-.3c1.54-.05,2.09-.71,1.9-2.31-.33-2.9-.25-2.91-3.17-2.66a10.06,10.06,0,0,1-1.73.07C1031.65,594.85,1030.8,595.58,1031.34,597.3Z" transform="translate(-866.14 -481.68)"/><path class="cls-11" d="M964.64,712.18a44.87,44.87,0,0,1,.78,9.54l-6.94.91A33.72,33.72,0,0,0,954.2,717c-1.22-1.43-3.77-1.23-5.29.07s-2.12,3.46-.9,5.17c1.84,2.55,3.84,5,5.77,7.46a3.44,3.44,0,0,0,3.17,1.44l-1.44.68c-1.64.23-3.28.56-4.93.65-2.27.12-4.45,1.14-6.77.63-4.06-5.72-8.57-11.08-12.86-16.61q-13.14-16.9-26.31-33.76t-26.53-33.84c-3.8-4.86-7.57-9.75-11.4-14.58-.88-1.11-.74-1.75.38-2.63q25.56-19.9,51.06-39.89c2.51-2,2.51-1.95,4.44.51L959.91,640c.27.34.43.81,1.15.82.4-.93,0-2,.18-2.93.54,3.25.24,6.53.29,9.8.07,5.3,1.33,10.53.76,15.86-2.84,1.65-2.76,5,.32,7v-4.84a1.56,1.56,0,0,1,.44,1.4v14.33c-.41-.41-.85-.79-1.22-1.22-1.77-2.07-3.81-2.35-5.84-.76s-2.2,3.53-.6,5.74,3.27,4.11,4.81,6.24a5,5,0,0,0,3.62,2.25,23.26,23.26,0,0,1,0,2.89c-.42,3.73,1.1,7.33.73,11.06-1.88-2.36-3.77-4.7-5.62-7.08-1.73-2.22-4.27-1.72-6.08-.13-1.6,1.41-1.62,3.58-.1,5.51s3,3.81,4.52,5.74C959.73,714.73,961.66,714.89,964.64,712.18Zm-62.18-48.71a3.34,3.34,0,0,0,.79,2.39c1,1.33,2,2.66,3,4q12.42,15.85,24.84,31.69c2.77,3.54,5.47,7.14,8.29,10.64,1.74,2.15,3.77,2.07,6.37,0,1.73-1.42,1.92-3.5.47-5.46-.77-1-1.54-2.06-2.33-3.07Q931.5,687.66,919,671.71q-4.51-5.76-9.14-11.43a3.18,3.18,0,0,0-4.15-1C904.07,660.12,902.38,661,902.46,663.47Zm10-20.34a5,5,0,0,0-3.74,2.31,3.6,3.6,0,0,0,.22,4.18c1.8,2.42,3.62,4.82,5.55,7.14,1.77,2.13,3.7,2.22,5.88.47a3.93,3.93,0,0,0,.44-5.66c-1.7-2.25-3.47-4.45-5.19-6.69A4.35,4.35,0,0,0,912.46,643.13Zm14.44,18.56a5.42,5.42,0,0,0-3.85,2.59,3.62,3.62,0,0,0,.53,4.15c1.71,2.33,3.53,4.58,5.3,6.86a3.7,3.7,0,0,0,5.57.76c2.14-1.57,2.56-3.56,1-5.65-1.82-2.48-3.76-4.88-5.65-7.32A4.24,4.24,0,0,0,926.9,661.69Zm-.85-39.55a5.25,5.25,0,0,0,3.81-2.28,3.38,3.38,0,0,0,0-4c-2-2.73-4.13-5.41-6.3-8a3,3,0,0,0-3-1c-3.36.67-4.78,4-2.8,6.75,1.67,2.35,3.5,4.6,5.29,6.86A4.56,4.56,0,0,0,926.05,622.14Zm-23,17.76a4.81,4.81,0,0,0,3.94-2.63c.87-1.56.35-3-.65-4.29-1.68-2.19-3.4-4.35-5.14-6.49s-3.69-2.45-5.84-.8-2.25,3.78-.59,5.92,3.35,4.22,5,6.33A5,5,0,0,0,903.06,639.9ZM945,636.27a4.13,4.13,0,0,0-.32-1.14,53.89,53.89,0,0,0-6.62-8.69c-1.39-1.48-3.62-1.27-5.24.09a3.75,3.75,0,0,0-.86,5.16,67.57,67.57,0,0,0,6.2,7.82,3.19,3.19,0,0,0,4,.76A4.57,4.57,0,0,0,945,636.27Zm-15.26,4.92a5.43,5.43,0,0,0-3.87,2.48,3.52,3.52,0,0,0,.37,4.15C928,650.27,930,652.68,932,655c1.61,1.85,3.52,1.89,5.43.37s2.26-3.37.79-5.39c-1.83-2.55-3.8-5-5.74-7.45A3.81,3.81,0,0,0,929.69,641.19ZM911,626.9a2.64,2.64,0,0,0,.41,1.84c2.07,2.69,4.06,5.47,6.31,8,1.49,1.69,3.56,1.5,5.34-.07a3.71,3.71,0,0,0,.75-5.18c-1.86-2.54-3.82-5-5.81-7.45a3.31,3.31,0,0,0-4.15-1C912.14,623.72,910.82,624.78,911,626.9Zm30.53,53.57c-3.09,0-5.38,3.14-3.87,5.69a41.31,41.31,0,0,0,6.66,8.42c1.58,1.54,3.59,1.21,5.31-.46a3.85,3.85,0,0,0,.46-5.09c-1.89-2.51-3.87-4.95-5.82-7.41A3.27,3.27,0,0,0,941.51,680.47Zm-38.62-28.06a2.76,2.76,0,0,0-.41-1.57,69.47,69.47,0,0,0-6.3-8c-1.5-1.57-3.77-1.28-5.67.46a3.67,3.67,0,0,0-.4,4.9c1.9,2.5,3.87,4.95,5.84,7.38a3.18,3.18,0,0,0,4,1.09C901.55,656,903,655,902.89,652.41Zm47.32-8.24a4.21,4.21,0,0,0-4,2.15,3.36,3.36,0,0,0,.22,4c1.91,2.58,3.84,5.15,5.91,7.6,1.44,1.71,3.76,1.67,5.51.13a3.79,3.79,0,0,0,.72-5.32q-2.62-3.45-5.3-6.86C952.49,644.8,951.53,644,950.21,644.17Zm3.25,26.37A2.46,2.46,0,0,0,953,669c-2.06-2.69-4.07-5.44-6.29-8a3.45,3.45,0,0,0-5-.19c-2.07,1.72-2.49,3.35-1.09,5.33,1.81,2.57,3.73,5.06,5.73,7.48a3.42,3.42,0,0,0,4.34,1A4.15,4.15,0,0,0,953.46,670.54Z" transform="translate(-866.14 -481.68)"/><path class="cls-12" d="M964.64,712.18c-3,2.71-4.91,2.55-7.33-.59-1.49-1.93-3-3.83-4.52-5.74s-1.5-4.1.1-5.51c1.81-1.59,4.35-2.09,6.08.13,1.85,2.38,3.74,4.72,5.62,7.08C964.6,709.09,964.62,710.63,964.64,712.18Z" transform="translate(-866.14 -481.68)"/><path class="cls-12" d="M963.82,693.6a5,5,0,0,1-3.62-2.25c-1.54-2.13-3.26-4.12-4.81-6.24s-1.34-4.22.6-5.74,4.07-1.31,5.84.76c.37.43.81.81,1.22,1.22C964,685.39,963.76,689.5,963.82,693.6Z" transform="translate(-866.14 -481.68)"/><path class="cls-12" d="M962.61,665.62v4.84c-3.08-2-3.16-5.31-.32-7C962.4,664.21,962.5,664.91,962.61,665.62Z" transform="translate(-866.14 -481.68)"/><path class="cls-12" d="M902.46,663.47c-.08-2.43,1.61-3.35,3.28-4.18a3.18,3.18,0,0,1,4.15,1q4.62,5.69,9.14,11.43,12.48,15.93,24.9,31.89c.79,1,1.56,2,2.33,3.07,1.45,2,1.26,4-.47,5.46-2.6,2.1-4.63,2.18-6.37,0-2.82-3.5-5.52-7.1-8.29-10.64q-12.4-15.85-24.84-31.69c-1-1.31-2-2.64-3-4A3.34,3.34,0,0,1,902.46,663.47Z" transform="translate(-866.14 -481.68)"/><path class="cls-12" d="M912.46,643.13a4.35,4.35,0,0,1,3.16,1.75c1.72,2.24,3.49,4.44,5.19,6.69a3.93,3.93,0,0,1-.44,5.66c-2.18,1.75-4.11,1.66-5.88-.47-1.93-2.32-3.75-4.72-5.55-7.14a3.6,3.6,0,0,1-.22-4.18A5,5,0,0,1,912.46,643.13Z" transform="translate(-866.14 -481.68)"/><path class="cls-12" d="M926.9,661.69a4.24,4.24,0,0,1,2.92,1.39c1.89,2.44,3.83,4.84,5.65,7.32,1.54,2.09,1.12,4.08-1,5.65a3.7,3.7,0,0,1-5.57-.76c-1.77-2.28-3.59-4.53-5.3-6.86a3.62,3.62,0,0,1-.53-4.15A5.42,5.42,0,0,1,926.9,661.69Z" transform="translate(-866.14 -481.68)"/><path class="cls-12" d="M926.05,622.14a4.56,4.56,0,0,1-3-1.65c-1.79-2.26-3.62-4.51-5.29-6.86-2-2.77-.56-6.08,2.8-6.75a3,3,0,0,1,3,1c2.17,2.61,4.28,5.29,6.3,8a3.38,3.38,0,0,1,0,4A5.25,5.25,0,0,1,926.05,622.14Z" transform="translate(-866.14 -481.68)"/><path class="cls-12" d="M903.06,639.9a5,5,0,0,1-3.25-2c-1.68-2.11-3.38-4.2-5-6.33s-1.41-4.39.59-5.92,4-1.41,5.84.8,3.46,4.3,5.14,6.49c1,1.29,1.52,2.73.65,4.29A4.81,4.81,0,0,1,903.06,639.9Z" transform="translate(-866.14 -481.68)"/><path class="cls-12" d="M945,636.27a4.57,4.57,0,0,1-2.81,4,3.19,3.19,0,0,1-4-.76,67.57,67.57,0,0,1-6.2-7.82,3.75,3.75,0,0,1,.86-5.16c1.62-1.36,3.85-1.57,5.24-.09a53.89,53.89,0,0,1,6.62,8.69A4.13,4.13,0,0,1,945,636.27Z" transform="translate(-866.14 -481.68)"/><path class="cls-12" d="M929.69,641.19a3.81,3.81,0,0,1,2.76,1.33c1.94,2.46,3.91,4.9,5.74,7.45,1.47,2,1.12,3.87-.79,5.39s-3.82,1.48-5.43-.37c-2-2.31-3.94-4.72-5.78-7.17a3.52,3.52,0,0,1-.37-4.15A5.43,5.43,0,0,1,929.69,641.19Z" transform="translate(-866.14 -481.68)"/><path class="cls-12" d="M911,626.9c-.16-2.12,1.16-3.18,2.85-3.9a3.31,3.31,0,0,1,4.15,1c2,2.44,3.95,4.91,5.81,7.45a3.71,3.71,0,0,1-.75,5.18c-1.78,1.57-3.85,1.76-5.34.07-2.25-2.54-4.24-5.32-6.31-8A2.64,2.64,0,0,1,911,626.9Z" transform="translate(-866.14 -481.68)"/><path class="cls-12" d="M941.51,680.47a3.27,3.27,0,0,1,2.74,1.15c2,2.46,3.93,4.9,5.82,7.41a3.85,3.85,0,0,1-.46,5.09c-1.72,1.67-3.73,2-5.31.46a41.31,41.31,0,0,1-6.66-8.42C936.13,683.61,938.42,680.45,941.51,680.47Z" transform="translate(-866.14 -481.68)"/><path class="cls-12" d="M902.89,652.41c.1,2.6-1.34,3.56-3,4.26a3.18,3.18,0,0,1-4-1.09c-2-2.43-3.94-4.88-5.84-7.38a3.67,3.67,0,0,1,.4-4.9c1.9-1.74,4.17-2,5.67-.46a69.47,69.47,0,0,1,6.3,8A2.76,2.76,0,0,1,902.89,652.41Z" transform="translate(-866.14 -481.68)"/><path class="cls-12" d="M950.21,644.17c1.32-.2,2.28.63,3.1,1.68q2.67,3.42,5.3,6.86a3.79,3.79,0,0,1-.72,5.32c-1.75,1.54-4.07,1.58-5.51-.13-2.07-2.45-4-5-5.91-7.6a3.36,3.36,0,0,1-.22-4A4.21,4.21,0,0,1,950.21,644.17Z" transform="translate(-866.14 -481.68)"/><path class="cls-12" d="M953.46,670.54a4.15,4.15,0,0,1-2.76,4.06,3.42,3.42,0,0,1-4.34-1c-2-2.42-3.92-4.91-5.73-7.48-1.4-2-1-3.61,1.09-5.33a3.45,3.45,0,0,1,5,.19c2.22,2.56,4.23,5.31,6.29,8A2.46,2.46,0,0,1,953.46,670.54Z" transform="translate(-866.14 -481.68)"/><path class="cls-12" d="M958.36,731.08l-1.41,0a3.44,3.44,0,0,1-3.17-1.44c-1.93-2.48-3.93-4.91-5.77-7.46-1.22-1.71-.77-3.74.9-5.17s4.07-1.5,5.29-.07a33.72,33.72,0,0,1,4.28,5.65c-.21,2.73.55,5.36.87,8l-.16.09A.8.8,0,0,0,958.36,731.08Z" transform="translate(-866.14 -481.68)"/><path class="cls-7" d="M1013.14,750.65c-.59-7.88-1.13-15.77-1.82-23.65-.14-1.65.56-1.91,1.88-2,6.22-.41,12.44-.86,18.66-1.31.77-.05,1.53-.18,2.29-.28l13.91-1c1.41-.09,2.83-.11,4.23-.28,1.2-.15,1.68.17,1.75,1.47.25,4.5.63,9,1,13.47.1,1.21.25,2.42.38,3.63l.12,2.7.45,6c.22,2.25,0,4.53.57,6.74.19,5.81.67,11.6,1.22,17.39l.45,6.61q.57,7.51,1.12,15a6.15,6.15,0,0,0,0,1.72c.57,2-.29,2.48-2.17,2.53-3.06.09-6.11.47-9.17.73l-20.38,1.38c-3.14.21-6.29.38-9.43.65-1.12.1-1.45-.27-1.48-1.36-.05-1.86-.26-3.71-.41-5.57a86.26,86.26,0,0,0-.79-9.35c.08-4-.45-8.05-.74-12.07-.39-5.3-.55-10.62-1.3-15.89Q1013.31,754.32,1013.14,750.65Zm33.63-22.24c-8.94.66-17.52,1.32-26.11,1.93-3.58.25-3.26-.45-3,3.46.84,11.79,1.77,23.57,2.53,35.37.12,1.83.69,2.19,2.38,2.05,9-.72,18.06-1.39,27.1-2,1.85-.11,2.28-.65,2.13-2.48-1-12-1.8-24-2.66-35.94C1049,728.31,1049,728.3,1046.77,728.41ZM1027,787.79c.77,0,1.54,0,2.31,0,.45,0,.82,0,1-.67.63-2.77-.36-3.93-3.18-3.65-.76.08-1.53.12-2.3.16-.55,0-.93.1-1,.84C1023.58,787.52,1024.12,788.13,1027,787.79Zm19.06,7,2.58-.28c2.51-.27,2.42-.27,2.28-2.73-.09-1.54-.56-2.2-2.16-1.73a6.38,6.38,0,0,1-1.52.1c-2.87.13-2.85.13-2.56,3.06C1044.81,794.31,1045,795.14,1046.08,794.8Zm-12.27-10.18c.25,3.55.15,2.8,2.83,2.6a6.17,6.17,0,0,1,1.35-.09c2.14.3,2.27-.71,2.12-2.55s-.71-2.33-2.41-1.89a6.48,6.48,0,0,1-2.11.15C1034.07,782.71,1033.4,783.24,1033.81,784.62Zm-9.29,8.83c.11,2.88.11,2.88,2.8,2.62l1-.08c2.65-.17,2.54-.17,2.49-2.71,0-1.61-.48-2.21-2.12-1.77a7,7,0,0,1-2.29.19C1024.9,791.61,1024.09,792,1024.52,793.45Zm1.93-18c-.85.71-3.35-1.28-3.12,1.88.21,2.92.11,2.92,3.05,2.61.83-.09,1.65-.18,2.48-.24.49,0,.81-.1.89-.72C1030.14,776.21,1029.39,775.33,1026.45,775.49Zm17.69,8.6c.21,2.72.21,2.71,2.77,2.41a23.2,23.2,0,0,1,2.49-.2c.72,0,1-.21,1-1,.16-3.44.12-3.51-3.26-3.28a7.63,7.63,0,0,1-1,0C1044.57,782,1043.45,782.28,1044.14,784.09Zm1.68-5.54c5.28-.43,4,.08,3.81-3.63,0-.8-.24-1.14-1.11-1-1.33.15-2.68.16-4,.26-.36,0-.92,0-1,.38a6.81,6.81,0,0,0,.3,3.75C1044.16,779.05,1045.21,778.42,1045.82,778.55Zm-8.18,12.35c-3.3.22-3.3.22-3.18,1.93.19,2.81.19,2.8,3,2.52.76-.08,1.53-.12,2.3-.19.43,0,1,.08,1-.61-.09-1.2.31-2.56-.36-3.56-.54-.81-1.67,0-2.53-.1A.61.61,0,0,0,1037.64,790.9Zm-.75-16.19c-.89.06-1.78.09-2.67.18-.42.05-1,0-1,.6a10.45,10.45,0,0,0,.31,3.41c.33,1,1.47.46,2.18.36,1.3-.19,3.08.48,3.79-.83.48-.88.17-2.44-.27-3.5C1038.87,774.18,1037.68,774.84,1036.89,774.71Z" transform="translate(-866.14 -481.68)"/><path class="cls-6" d="M1046.77,728.41c2.26-.11,2.21-.1,2.39,2.44.86,12,1.7,24,2.66,35.94.15,1.83-.28,2.37-2.13,2.48-9,.56-18.07,1.23-27.1,2-1.69.14-2.26-.22-2.38-2.05-.76-11.8-1.69-23.58-2.53-35.37-.28-3.91-.6-3.21,3-3.46C1029.25,729.73,1037.83,729.07,1046.77,728.41Z" transform="translate(-866.14 -481.68)"/><path class="cls-6" d="M1027,787.79c-2.9.34-3.44-.27-3.2-3.32.06-.74.44-.82,1-.84.77,0,1.54-.08,2.3-.16,2.82-.28,3.81.88,3.18,3.65-.14.62-.51.66-1,.67C1028.56,787.81,1027.79,787.79,1027,787.79Z" transform="translate(-866.14 -481.68)"/><path class="cls-6" d="M1033.81,784.62c-.41-1.38.26-1.91,1.78-1.78a6.48,6.48,0,0,0,2.11-.15c1.7-.44,2.26.07,2.41,1.89s0,2.85-2.12,2.55a6.17,6.17,0,0,0-1.35.09C1034,787.42,1034.06,788.17,1033.81,784.62Z" transform="translate(-866.14 -481.68)"/><path class="cls-6" d="M1024.52,793.45c-.43-1.46.38-1.84,1.83-1.75a7,7,0,0,0,2.29-.19c1.64-.44,2.09.16,2.12,1.77,0,2.54.16,2.54-2.49,2.71l-1,.08C1024.63,796.33,1024.63,796.33,1024.52,793.45Z" transform="translate(-866.14 -481.68)"/><path class="cls-6" d="M1026.45,775.49c2.94-.16,3.69.72,3.3,3.53-.08.62-.4.68-.89.72-.83.06-1.65.15-2.48.24-2.94.31-2.84.31-3.05-2.61C1023.1,774.21,1025.6,776.2,1026.45,775.49Z" transform="translate(-866.14 -481.68)"/><path class="cls-6" d="M1037.64,790.9a.61.61,0,0,1,.19,0c.86.09,2-.71,2.53.1.67,1,.27,2.36.36,3.56,0,.69-.52.58-1,.61-.77.07-1.54.11-2.3.19-2.82.28-2.82.29-3-2.52C1034.34,791.12,1034.34,791.12,1037.64,790.9Z" transform="translate(-866.14 -481.68)"/><path class="cls-6" d="M1036.89,774.71c.79.13,2-.53,2.3.22.44,1.06.75,2.62.27,3.5-.71,1.31-2.49.64-3.79.83-.71.1-1.85.62-2.18-.36a10.45,10.45,0,0,1-.31-3.41c0-.58.62-.55,1-.6C1035.11,774.8,1036,774.77,1036.89,774.71Z" transform="translate(-866.14 -481.68)"/><polygon class="cls-13" points="96.9 102.45 112.43 93.57 125.75 115.76 111.32 122.42 108 122.42 96.9 102.45"/><path class="cls-14" d="M1001,565a71.9,71.9,0,0,1-3.59,8.6c-1.26-3.56-2.46-7.14-3.81-10.67-.66-1.73-2.34-2.24-4.17-1.53s-2.7,2.08-2.11,3.88c1.09,3.29,2.22,6.55,3.43,9.8.76,2.06,2.17,2.63,4.29,1.93l1.45-.53c-1,2.38-1.93,4.76-2.86,7.15-.17.43-.26.86-.75,1q-5.48-10-10.94-20.1c-.27-.5-.49-1-.73-1.54a4.71,4.71,0,0,0-.52-3.1c-1.73-4.2-3.46-8.43-4.83-12.76-1.28-4-2.81-8-4.21-12-2.15-6.17-4.19-12.38-6.32-18.56-1-2.92-2.11-5.79-3.13-8.7-.7-2-1.24-4,.42-5.8,1-1.09,2.41-1.19,3.66-1.58,3.31-1,6.53-2.29,9.8-3.45,4.16-1.47,8.39-2.77,12.56-4.23,5.8-2,11.5-4.36,17.37-6.23,3.34-1.07,4.86-.62,6,2.61,1.81,5.05,3.3,10.23,5.29,15.21,3.18,7.93,5.59,16.13,8.64,24.1a20,20,0,0,1,1.58,5.52c-2.93.9-6,.65-8.95.81-2.42.13-3.15,1-2.33,3.31a7.66,7.66,0,0,1,.44,3c-.2,4.5,1.06,8.91.9,13.4,0,.77,0,1.54,0,2.3-.18-.34-.37-.68-.52-1-1-2.26-2.29-3.11-4.05-2.66-2.18.56-2.91,1.69-2.76,4.33-1.36-.5-2.74-1-4.07-1.52-.82-.35-1.45-.41-1.89.49-.7-1.85-1.37-3.72-2.09-5.56-.8-2-2.24-2.65-4.3-1.94s-2.77,2.1-2.09,4.22c.91,2.8,2,5.55,2.86,8.35A6.23,6.23,0,0,0,1001,565Zm-11.37-13.53c-1.28-3.67-2.34-7.8-4.37-11.52-.79-1.45-2.44-1.48-3.95-.72s-2.41,2-1.9,3.58c1.12,3.55,2.38,7.06,3.75,10.52a2.73,2.73,0,0,0,3.5,1.63A3.53,3.53,0,0,0,989.66,551.48Zm11.52-26.61c2.4,0,4.12-1.66,3.51-3.73-1.07-3.62-2.36-7.19-3.72-10.72-.63-1.6-2.4-2.08-4.09-1.42s-2.71,2.1-2.18,3.73c1.09,3.42,2.31,6.81,3.49,10.2A2.77,2.77,0,0,0,1001.18,524.87Zm18.88,4.61c-1.35-3.64-2.24-7.83-4.33-11.53-.85-1.51-2.53-1.28-4-.66a2.8,2.8,0,0,0-1.82,3.59q1.65,5.32,3.69,10.52a2.73,2.73,0,0,0,3.52,1.57A3.45,3.45,0,0,0,1020.06,529.48Zm-7.91-22.17a14.36,14.36,0,0,0-.4-1.55q-1.47-4.27-3-8.53c-.77-2.15-2.31-3-4.32-2.33a3.15,3.15,0,0,0-2.23,4.38q1.6,4.94,3.49,9.77a2.88,2.88,0,0,0,3.65,1.73A3.18,3.18,0,0,0,1012.15,507.31Zm-30.47,21.94a7.15,7.15,0,0,0-.24-1.16c-1.07-3.08-2.13-6.17-3.28-9.23a3.06,3.06,0,0,0-4.16-2c-1.94.61-2.9,2-2.29,4,1.07,3.42,2.31,6.79,3.58,10.14a2.85,2.85,0,0,0,3.62,1.75A3.17,3.17,0,0,0,981.68,529.25ZM998,539.06c-1.3-3.6-2.3-7.69-4.25-11.38-.84-1.59-2.6-1.4-4.13-.69a2.85,2.85,0,0,0-1.72,3.65q1.65,5.24,3.62,10.35a2.75,2.75,0,0,0,3.48,1.67A3.48,3.48,0,0,0,998,539.06Zm14.54,4.89a2.44,2.44,0,0,0,0-.64c-1.23-3.58-2.39-7.2-3.77-10.72-.61-1.55-2.41-1.94-4.18-1.32a2.83,2.83,0,0,0-2,3.65c1.06,3.57,2.31,7.09,3.66,10.56a2.73,2.73,0,0,0,3.54,1.58C1011.35,546.63,1012.53,545.76,1012.56,544ZM980,507.6a3.74,3.74,0,0,0,.1.95c1.2,3.46,2.34,6.94,3.68,10.34a3,3,0,0,0,4,1.44A3.19,3.19,0,0,0,990,516.4c-1.11-3.49-2.35-6.94-3.68-10.34-.64-1.62-2.11-2-3.71-1.55S979.91,505.74,980,507.6Z" transform="translate(-866.14 -481.68)"/><path class="cls-7" d="M987.17,743.47l3.39,24.28q.41,3.22.83,6.43l-6.16,7.5a43.68,43.68,0,0,0-6.64.84c-.29-.68.1-1.28.35-1.83.68-1.46.52-2.35-1.27-2.66a19.34,19.34,0,0,1-3.1-1c-5.24-1.86-10.64-3.25-15.77-5.44,5.53-5.14,6.32-12.4,2-18.2A13.29,13.29,0,0,0,943.51,750c-4.31,2.5-7.94,8.38-5.9,14.52a13.53,13.53,0,0,1-1.68-.35L911,756c-.6-.2-1.3-.21-1.64-.88a28.52,28.52,0,0,0-.69-5.45c.57-.68,1.42-.56,2.14-.66,6.86-1,13.74-1.89,20.61-2.84,14.63-2,29.26-4,43.9-6,3.74-.5,7.45-1.38,11.26-1.24C986.76,740.41,987,741.94,987.17,743.47Z" transform="translate(-866.14 -481.68)"/><path class="cls-5" d="M986.55,738.88c-3.81-.14-7.52.74-11.26,1.24-14.64,2-29.27,4-43.9,6-6.87,1-13.75,1.86-20.61,2.84-.72.1-1.57,0-2.14.66-1.94-1.08-1.43-3.14-1.83-4.79-.36-1.47-.24-3.07-.55-4.56s.3-1.91,1.49-2.08q6.07-.86,12.16-1.67c5.39-.73,10.77-1.47,16.17-2.13a43.1,43.1,0,0,0,7.73-1.33c2.32.52,4.5-.5,6.77-.62,1.65-.09,3.29-.42,4.93-.65.12.46.37.68.51.49a1.57,1.57,0,0,1,1.35-.62c3.28.05,6.39-1,9.61-1.37,4.51-.51,9-1.29,13.49-1.95a28.85,28.85,0,0,0,3.6-.49c1.25-.31,1.6.28,1.73,1.32.17,1.39.35,2.78.53,4.17C986.19,735.2,987.5,737,986.55,738.88Z" transform="translate(-866.14 -481.68)"/><path class="cls-7" d="M958.48,722.63l6.94-.91c4.12-.55,8.25-1.08,12.36-1.69,1.06-.16,1.59-.17,1.69,1.17.14,2,.59,4,.91,6.07a.29.29,0,0,0,0,.34.15.15,0,0,0,0,.21l-21,2.85C959,728,958.27,725.36,958.48,722.63Z" transform="translate(-866.14 -481.68)"/><path class="cls-5" d="M958.8,771.58c-7.15-2.07-14.25-4.31-21.19-7-2-6.14,1.59-12,5.9-14.52a13.29,13.29,0,0,1,17.28,3.34C965.12,759.18,964.33,766.44,958.8,771.58Z" transform="translate(-866.14 -481.68)"/><path class="cls-10" d="M1141.38,776.33c3.7,0,7.37-.46,11.07-.5,3.07,0,5.24.77,6,3.95q0,11.85,0,23.71c0,3.86-1,4.8-4.72,4.84-10.21.11-20.43,0-30.63.44-10.6.48-21.2.13-31.79.31-3.28,0-4.66-1.38-4.68-4.67,0-2.38-.05-4.75,0-7.13a4.32,4.32,0,0,0-.75-2.73c1.23-.95.64-2.1.37-3.23,0-.39,0-.78,0-1.17a3,3,0,0,0,0-2.65c0-.38,0-.77,0-1.15,0-3.82.39-3.53-3.47-3.49l-10.83,0c0-2.68,0-2.69,2.59-2.7,3.34,0,6.69,0,10,0,.85,0,1.65,0,2.15-.93,1.08-2,2.9-2.52,5-2.52,7,0,14,0,21,0h14.58a3.38,3.38,0,0,0,2-.33c3-.22,5.93.37,8.87-.35C1139.36,775.91,1140.24,777.14,1141.38,776.33Zm-35,26.23v0h2.9c3.34,0,6.69,0,10-.12.81,0,2,.18,1.9-1.46-.14-5.28-.19-10.55-.12-15.83,0-1.75-.48-2.34-2.28-2.29-8.17.2-16.33.31-24.5.38-1.44,0-1.9.49-1.88,1.9.07,5.21.1,10.42,0,15.63,0,1.46.54,1.88,1.93,1.86C1098.37,802.51,1102.36,802.56,1106.35,802.56Zm27,.11c0-3.27,0-3.15-3-3.24-2-.06-2.69.59-2.41,2.52a22.89,22.89,0,0,1,0,2.49c0,.45.08,1,.63,1,1.39.15,2.89.44,4.15-.15C1133.93,804.81,1133.15,803.47,1133.37,802.67ZM1152.31,783c0-3.23,0-3.23-2.59-3.22-2.75,0-2.75,0-2.75,2.78,0,.7,0,1.41,0,2.11,0,.45,0,1,.59,1.09a7.84,7.84,0,0,0,4.17-.11C1152.85,785.21,1152.1,783.83,1152.31,783Zm.29,9.73c0-3,0-3-2.73-3s-2.62,0-2.61,3.41c0,2.38.29,2.66,2.59,2.64C1152.46,795.81,1152.62,795.63,1152.6,792.76Zm-10-9.79c0-2.92,0-2.92-1.24-2.94-4.09-.09-4.09-.09-4.1,2.57,0,3.33,0,3.33,2.5,3.33C1142.63,785.94,1142.63,785.94,1142.64,783ZM1128,792.88c0,3.09,0,3.09,2.54,3.09,2.8,0,2.8,0,2.8-3.05,0-2.81,0-2.81-2.47-2.81C1128,790.12,1128,790.12,1128,792.88Zm24.67,9.57c0-3.06,0-3.06-2.23-3.06-3.14,0-3.14,0-3.13,3.08,0,2.77,0,2.77,2.88,2.76C1152.67,805.22,1152.67,805.22,1152.66,802.45Zm-9.67.19c0-3.25,0-3.15-3-3.25-1.82-.06-2.6.49-2.33,2.37a19.41,19.41,0,0,1,0,2.29c0,.45,0,1,.57,1.09a8.09,8.09,0,0,0,4.15-.07C1143.5,804.66,1142.79,803.37,1143,802.64Zm-.3-9.72c0-3.25,0-3.25-3.31-3.08l-.57,0c-.76,0-1.21.35-1.21,1.15,0,1.28,0,2.56,0,3.84a1,1,0,0,0,.69,1C1140.88,796.88,1142.7,795.68,1142.69,792.92Zm-9.68-9.76c0-3.12,0-3.12-3.17-3-.32,0-.64,0-1,0a.84.84,0,0,0-.87.85c0,1.34,0,2.68,0,4a.83.83,0,0,0,.84.87c1,.09,2,.17,3.07.21a1,1,0,0,0,1.1-1.06C1133,784.44,1133,783.8,1133,783.16Z" transform="translate(-866.14 -481.68)"/><path class="cls-6" d="M1106.35,802.56c-4,0-8,0-12,0-1.39,0-2-.4-1.93-1.86,0-5.21,0-10.42,0-15.63,0-1.41.44-1.89,1.88-1.9,8.17-.07,16.33-.18,24.5-.38,1.8,0,2.3.54,2.28,2.29-.07,5.28,0,10.55.12,15.83,0,1.64-1.09,1.43-1.9,1.46-3.34.12-6.69.1-10,.12h-2.9Z" transform="translate(-866.14 -481.68)"/><path class="cls-6" d="M1133.37,802.67c-.22.8.56,2.14-.54,2.66-1.26.59-2.76.3-4.15.15-.55-.06-.62-.59-.63-1a22.89,22.89,0,0,0,0-2.49c-.28-1.93.45-2.58,2.41-2.52C1133.37,799.52,1133.37,799.4,1133.37,802.67Z" transform="translate(-866.14 -481.68)"/><path class="cls-6" d="M1152.31,783c-.21.8.54,2.18-.56,2.65a7.84,7.84,0,0,1-4.17.11c-.54-.08-.57-.64-.59-1.09,0-.7,0-1.41,0-2.11,0-2.78,0-2.78,2.75-2.78C1152.3,779.8,1152.3,779.8,1152.31,783Z" transform="translate(-866.14 -481.68)"/><path class="cls-6" d="M1152.6,792.76c0,2.87-.14,3-2.75,3.08-2.3,0-2.58-.26-2.59-2.64,0-3.4,0-3.4,2.61-3.41S1152.59,789.77,1152.6,792.76Z" transform="translate(-866.14 -481.68)"/><path class="cls-6" d="M1142.64,783c0,3,0,3-2.84,3-2.51,0-2.51,0-2.5-3.33,0-2.66,0-2.66,4.1-2.57C1142.65,780.05,1142.65,780.05,1142.64,783Z" transform="translate(-866.14 -481.68)"/><path class="cls-6" d="M1128,792.88c0-2.76,0-2.76,2.87-2.77,2.47,0,2.47,0,2.47,2.81,0,3,0,3-2.8,3.05C1128,796,1128,796,1128,792.88Z" transform="translate(-866.14 -481.68)"/><path class="cls-6" d="M1152.66,802.45c0,2.77,0,2.77-2.48,2.78-2.88,0-2.88,0-2.88-2.76,0-3.07,0-3.07,3.13-3.08C1152.65,799.39,1152.65,799.39,1152.66,802.45Z" transform="translate(-866.14 -481.68)"/><path class="cls-6" d="M1143,802.64c-.2.73.51,2-.61,2.43a8.09,8.09,0,0,1-4.15.07c-.55-.1-.56-.64-.57-1.09a19.41,19.41,0,0,0,0-2.29c-.27-1.88.51-2.43,2.33-2.37C1143,799.49,1143,799.39,1143,802.64Z" transform="translate(-866.14 -481.68)"/><path class="cls-6" d="M1142.69,792.92c0,2.76-1.81,4-4.38,3a1,1,0,0,1-.69-1c0-1.28,0-2.56,0-3.84,0-.8.45-1.14,1.21-1.15l.57,0C1142.69,789.67,1142.69,789.67,1142.69,792.92Z" transform="translate(-866.14 -481.68)"/><path class="cls-6" d="M1133,783.16c0,.64,0,1.28,0,1.92a1,1,0,0,1-1.1,1.06c-1,0-2.05-.12-3.07-.21a.83.83,0,0,1-.84-.87c0-1.35,0-2.69,0-4a.84.84,0,0,1,.87-.85c.32,0,.64,0,1,0C1133,780,1133,780,1133,783.16Z" transform="translate(-866.14 -481.68)"/><path class="cls-6" d="M1086.25,790.15a2.49,2.49,0,0,1,0-2.65A3,3,0,0,1,1086.25,790.15Z" transform="translate(-866.14 -481.68)"/><path class="cls-15" d="M1082.42,589.65c-1.53.49-3.08.91-4.58,1.49-1.29.51-1.84.07-2.24-1.17-2.06-6.48-4.18-13-6.28-19.43-.48-1.46-1-2.93-1.51-4.36-.43-1.12-.26-1.78,1-2.17,3.73-1.17,7.45-2.43,11.17-3.64.73-.24,1.48-.43,2.21-.68,3.54-1.2,3.52-1.2,4.71,2.39,1.51,4.57,3,9.14,4.54,13.72a10.84,10.84,0,0,1,.27,1.51,3.76,3.76,0,0,1-1.28,3.22,48.52,48.52,0,0,0-5.85,7.24A6.59,6.59,0,0,1,1082.42,589.65Z" transform="translate(-866.14 -481.68)"/><path class="cls-7" d="M1136.84,584.26a9.36,9.36,0,0,1-9.24-9.15,7.12,7.12,0,0,1,7.21-7.37,9.36,9.36,0,0,1,9.36,9A7.17,7.17,0,0,1,1136.84,584.26Z" transform="translate(-866.14 -481.68)"/><path class="cls-7" d="M1091.59,555c-.76-1.74-1.88-3-3.91-3.17-.91-.05-.92-.71-1.1-1.31a9.19,9.19,0,0,1-.74-2.74c5.37,1.49,10.53,3.58,15.79,5.38,5.64,1.93,11.24,4,16.86,5.9a4.52,4.52,0,0,0,2.23.49c-.14.13-.25.32-.41.38a85.16,85.16,0,0,0-16.67,8.54A10.52,10.52,0,0,0,1091.59,555Z" transform="translate(-866.14 -481.68)"/><path class="cls-5" d="M1091.59,555a10.52,10.52,0,0,1,12.05,13.47l-6.13,4.87C1095.46,567.26,1093.33,561.2,1091.59,555Z" transform="translate(-866.14 -481.68)"/><path class="cls-4" d="M958.8,771.58c5.13,2.19,10.53,3.58,15.77,5.44a19.34,19.34,0,0,0,3.1,1c1.79.31,2,1.2,1.27,2.66-.25.55-.64,1.15-.35,1.83-1.29,1.44-1.4,3.36-2,5.07-.71,2.22-1.91,4.3-2,6.71a50.37,50.37,0,0,0-3,8.42c-.58,1.84-1.66,3.58-1.5,5.63-1.09.92-.79,2.4-1.44,3.51-.34.59-.59,1.16-1.43.89-5.8-1.93-11.6-3.88-17.41-5.79s-11.64-3.74-17.44-5.68c-6.59-2.19-13.15-4.49-19.74-6.69-5-1.65-9.94-3.24-14.93-4.81-2.65-.82-2.74-.8-1.86-3.34,3.1-9,5.68-18.26,9.09-27.19a25,25,0,0,0,.84-3.13c.4-1.6,1-1.87,2.37-1.15a3.21,3.21,0,0,0,1.14.11c.34.67,1,.68,1.64.88l25,8.25a13.53,13.53,0,0,0,1.68.35C944.55,767.27,951.65,769.51,958.8,771.58Zm-7.47,30.78A1.66,1.66,0,0,0,953,801c2.26-6.86,4.5-13.72,6.85-20.55.59-1.7.06-2.47-1.5-2.95-3.54-1.09-7.08-2.18-10.59-3.35q-18.85-6.24-37.68-12.57c-1.14-.38-1.5,0-1.81,1-1.17,3.57-2.38,7.13-3.55,10.71s-2.35,7.31-3.54,10.95c-.31,1-.13,1.51.93,1.89,1.63.58,3.27,1.1,4.91,1.64,6.61,2.15,13.16,4.46,19.75,6.66,6,2,12.05,3.77,18,6C946.9,801.12,949.14,801.69,951.33,802.36Zm18-8.4a5.15,5.15,0,0,0-5.07-5.86c-3.77.17-6.51,2.64-6.5,6.36a6.26,6.26,0,0,0,5.88,6A6.15,6.15,0,0,0,969.35,794Z" transform="translate(-866.14 -481.68)"/><path class="cls-6" d="M951.33,802.36c-2.19-.67-4.43-1.24-6.57-2-5.93-2.19-12-4-18-6-6.59-2.2-13.14-4.51-19.75-6.66-1.64-.54-3.28-1.06-4.91-1.64-1.06-.38-1.24-.92-.93-1.89,1.19-3.64,2.34-7.3,3.54-10.95s2.38-7.14,3.55-10.71c.31-.94.67-1.34,1.81-1q18.82,6.35,37.68,12.57c3.51,1.17,7.05,2.26,10.59,3.35,1.56.48,2.09,1.25,1.5,2.95-2.35,6.83-4.59,13.69-6.85,20.55A1.66,1.66,0,0,1,951.33,802.36Z" transform="translate(-866.14 -481.68)"/><path class="cls-6" d="M969.35,794a6.15,6.15,0,0,1-5.69,6.5,6.26,6.26,0,0,1-5.88-6c0-3.72,2.73-6.19,6.5-6.36A5.15,5.15,0,0,1,969.35,794Z" transform="translate(-866.14 -481.68)"/><path class="cls-16" d="M972.15,800.24c-.15-2,.93-3.79,1.51-5.64a50.26,50.26,0,0,1,3-8.41c3.79-4,6.95-8.48,10.54-12.62l6.16-7.5c1.6-2.16,3.63-4,4.94-6.35,3.1-3.14,5.66-6.73,8.52-10.08.87-1,1.72-2.07,2.52-3.14,1.47-2,3.12-3.7,5.78-4,.11,2.44.23,4.89.35,7.33a3.33,3.33,0,0,0-1.45,1.22c-5.4,6.58-10.76,13.17-16.19,19.72-.86,1-.53,1.6.36,2.31,4.16,3.38,8.35,6.75,12.42,10.24,1.14,1,1.63.64,2.4-.32a42.16,42.16,0,0,1,4.5-5.21,86.26,86.26,0,0,1,.79,9.35c-3.37,3.33-6,7.27-9.09,10.86-3.61,4.22-7.07,8.57-10.59,12.87-.77.94-1.48,1.93-2.27,2.85-2,2.4-4.66,2.61-7.07.62Zm16.32-13.73a11.17,11.17,0,0,0-.87-1c-.77-.66-1.62-1.24-2.34-1.95-.93-.91-1.55-.69-2.34.22-2.35,2.72-2.38,2.69.4,5,.1.08.17.2.27.26.63.33,1.14,1.51,1.88.89A27.51,27.51,0,0,0,988.47,786.51Zm16.67,1.32c-.56,0-3.27,3.27-3.2,3.74a.51.51,0,0,0,.17.34c1.23,1,2.46,2,3.71,3a.63.63,0,0,0,.88-.12c.89-1.08,2.13-2.09,2.48-3.34.27-1-1.35-1.48-2.15-2.17C1006.41,788.74,1006,788,1005.14,787.83Zm-13.75,1.08a1.51,1.51,0,0,0-.51.33c-.86,1.17-2.4,2.08-2.49,3.47-.07.92,1.53,1.52,2.35,2.29.09.09.17.21.29.25.65.22,1.08,1.51,1.86.72,1-1.05,2.27-2.05,2.66-3.6C995.62,792.07,991.9,789,991.39,788.91Zm6.08-7.32c-.21.08-.45.11-.54.24-.81,1.13-2.26,1.94-2.46,3.31-.18,1.16,1.33,1.52,2.09,2.24.37.35.74.71,1.13,1s.72.56,1,.34a8.56,8.56,0,0,0,2.76-3.34c.49-1.06-.85-1.37-1.47-1.9A7.59,7.59,0,0,0,997.47,781.59ZM986.4,803.73c.09-.07.25-.17.38-.29a8.09,8.09,0,0,0,2.65-3.45c.2-.8-1.45-1.39-2.19-2.16a1.73,1.73,0,0,0-.44-.37c-.62-.33-1.09-1.55-1.86-.87a9.94,9.94,0,0,0-2.76,3.58C982.05,800.47,985.92,803.73,986.4,803.73Zm7.9-24.46c0-.69-3.81-3.87-4.39-3.68a1.41,1.41,0,0,0-.44.34c-2.85,2.4-2.86,3.31-.07,5.63.39.32.8.63,1.2.94.24.2.52.47.83.2A16.88,16.88,0,0,0,994.3,779.27Zm9,19.81c0-.86-3.6-3.91-4.28-3.8a.93.93,0,0,0-.49.28c-.91,1.06-2.25,2-2.46,3.32-.15.93,1.37,1.32,2,2.08a1.14,1.14,0,0,0,.3.23c.72.4,1.28,1.74,2.15,1.06A19.28,19.28,0,0,0,1003.25,799.08Zm-6.15,7a23.55,23.55,0,0,0-2.6-2.32c-1.17-1.21-2-1.34-3.08.21-1.9,2.65-2,2.57.59,4.58.45.35.9.7,1.37,1,.24.18.42.5.81.39A18.11,18.11,0,0,0,997.1,806.1Zm-18.18-8.31a2.32,2.32,0,0,0,.56-.4c.88-1.16,2.43-2.08,2.52-3.5.06-1-1.5-1.55-2.35-2.29-.39-.33-.79-.66-1.2-1-.2-.14-.59-.33-.65-.27a10.89,10.89,0,0,0-2.8,3.38c-.43,1.09.83,1.41,1.45,2C977.24,796.45,978.1,797.11,978.92,797.79Z" transform="translate(-866.14 -481.68)"/><path class="cls-15" d="M1017.55,777.83a42.16,42.16,0,0,0-4.5,5.21c-.77,1-1.26,1.29-2.4.32-4.07-3.49-8.26-6.86-12.42-10.24-.89-.71-1.22-1.27-.36-2.31,5.43-6.55,10.79-13.14,16.19-19.72a3.33,3.33,0,0,1,1.45-1.22c.75,5.27.91,10.59,1.3,15.89C1017.1,769.78,1017.63,773.79,1017.55,777.83Z" transform="translate(-866.14 -481.68)"/><path class="cls-15" d="M988.47,786.51a27.51,27.51,0,0,1-3,3.47c-.74.62-1.25-.56-1.88-.89-.1-.06-.17-.18-.27-.26-2.78-2.31-2.75-2.28-.4-5,.79-.91,1.41-1.13,2.34-.22.72.71,1.57,1.29,2.34,1.95A11.17,11.17,0,0,1,988.47,786.51Z" transform="translate(-866.14 -481.68)"/><path class="cls-15" d="M1005.14,787.83c.82.14,1.27.91,1.89,1.44.8.69,2.42,1.22,2.15,2.17-.35,1.25-1.59,2.26-2.48,3.34a.63.63,0,0,1-.88.12c-1.25-1-2.48-2-3.71-3a.51.51,0,0,1-.17-.34C1001.87,791.1,1004.58,787.88,1005.14,787.83Z" transform="translate(-866.14 -481.68)"/><path class="cls-15" d="M991.39,788.91c.51.05,4.23,3.16,4.16,3.46-.39,1.55-1.62,2.55-2.66,3.6-.78.79-1.21-.5-1.86-.72-.12,0-.2-.16-.29-.25-.82-.77-2.42-1.37-2.35-2.29.09-1.39,1.63-2.3,2.49-3.47A1.51,1.51,0,0,1,991.39,788.91Z" transform="translate(-866.14 -481.68)"/><path class="cls-15" d="M997.47,781.59a7.59,7.59,0,0,1,2.54,1.92c.62.53,2,.84,1.47,1.9a8.56,8.56,0,0,1-2.76,3.34c-.31.22-.73-.1-1-.34s-.76-.68-1.13-1c-.76-.72-2.27-1.08-2.09-2.24.2-1.37,1.65-2.18,2.46-3.31C997,781.7,997.26,781.67,997.47,781.59Z" transform="translate(-866.14 -481.68)"/><path class="cls-15" d="M986.4,803.73c-.48,0-4.35-3.26-4.22-3.56a9.94,9.94,0,0,1,2.76-3.58c.77-.68,1.24.54,1.86.87a1.73,1.73,0,0,1,.44.37c.74.77,2.39,1.36,2.19,2.16a8.09,8.09,0,0,1-2.65,3.45C986.65,803.56,986.49,803.66,986.4,803.73Z" transform="translate(-866.14 -481.68)"/><path class="cls-15" d="M994.3,779.27a16.88,16.88,0,0,1-2.87,3.43c-.31.27-.59,0-.83-.2-.4-.31-.81-.62-1.2-.94-2.79-2.32-2.78-3.23.07-5.63a1.41,1.41,0,0,1,.44-.34C990.49,775.4,994.34,778.58,994.3,779.27Z" transform="translate(-866.14 -481.68)"/><path class="cls-15" d="M1003.25,799.08a19.28,19.28,0,0,1-2.75,3.17c-.87.68-1.43-.66-2.15-1.06a1.14,1.14,0,0,1-.3-.23c-.66-.76-2.18-1.15-2-2.08.21-1.34,1.55-2.26,2.46-3.32a.93.93,0,0,1,.49-.28C999.65,795.17,1003.27,798.22,1003.25,799.08Z" transform="translate(-866.14 -481.68)"/><path class="cls-15" d="M997.1,806.1a18.11,18.11,0,0,1-2.91,3.9c-.39.11-.57-.21-.81-.39-.47-.34-.92-.69-1.37-1-2.6-2-2.49-1.93-.59-4.58,1.1-1.55,1.91-1.42,3.08-.21A23.55,23.55,0,0,1,997.1,806.1Z" transform="translate(-866.14 -481.68)"/><path class="cls-15" d="M978.92,797.79c-.82-.68-1.68-1.34-2.47-2.07-.62-.56-1.88-.88-1.45-2a10.89,10.89,0,0,1,2.8-3.38c.06-.06.45.13.65.27.41.3.81.63,1.2,1,.85.74,2.41,1.31,2.35,2.29-.09,1.42-1.64,2.34-2.52,3.5A2.32,2.32,0,0,1,978.92,797.79Z" transform="translate(-866.14 -481.68)"/><path class="cls-7" d="M1082,546.09c.66,1.87,1.32,3.75,2,5.62.15.45.22.88-.4,1.07-4.78,1.46-9.41,3.38-14.3,4.46a1.28,1.28,0,0,1-.19,0l-1.23-15.44c.71-.57,1.35,0,2,.18C1073.86,543.31,1077.82,545,1082,546.09Z" transform="translate(-866.14 -481.68)"/><path class="cls-17" d="M1010.27,557.57c-.15-2.64.58-3.77,2.76-4.33,1.76-.45,3,.4,4.05,2.66.15.35.34.69.52,1l.12.68c.16.38.31.76.47,1.13,0,.57,0,1.13,0,1.7C1015.33,560.11,1012.88,558.63,1010.27,557.57Z" transform="translate(-866.14 -481.68)"/><path class="cls-14" d="M1018.19,558.74c-.16-.37-.31-.75-.47-1.13C1018.3,557.82,1018.23,558.28,1018.19,558.74Z" transform="translate(-866.14 -481.68)"/><path class="cls-11" d="M961.07,789.67a.8.8,0,0,1,.83-.31Z" transform="translate(-866.14 -481.68)"/><path class="cls-6" d="M1086.27,791.32c.27,1.13.86,2.28-.37,3.23-11.94,2.45-23.89,4.87-35.82,7.39-1.73.36-2-.38-2.06-1.75,3.06-.26,6.11-.64,9.17-.73,1.88-.05,2.74-.52,2.17-2.53a6.15,6.15,0,0,1,0-1.72c.33.84.58,1.78,1.83,1.43,2.6-.71,5.29-.82,7.91-1.44,4.8-1.15,9.6-2.34,14.49-3A7.77,7.77,0,0,0,1086.27,791.32Z" transform="translate(-866.14 -481.68)"/><path class="cls-6" d="M1207.9,755a4.27,4.27,0,0,1,2.31-.39c.86,4.07,1.7,8.14,2.59,12.2.27,1.21-.16,1.78-1.35,2-2.2.4-4.39.86-6.59,1.29a9.63,9.63,0,0,1-1.95-2.36c.69-.13,1.37-.29,2.06-.38,3.25-.37,4.94-2.49,4.38-5.64C1208.94,759.5,1208.39,757.28,1207.9,755Z" transform="translate(-866.14 -481.68)"/><path class="cls-6" d="M1081.66,735.69c2.35-.42,4.81-.41,6.93-1.77a33.2,33.2,0,0,1,6.89,1.48c-4.91.92-9.85,1.68-14.71,2.8-8.38,1.94-16.82,3.57-25.26,5.24l-.12-2.7c3.94,0,7.66-1.28,11.48-2,4.52-.81,9-1.78,13.51-2.69A11.83,11.83,0,0,0,1081.66,735.69Z" transform="translate(-866.14 -481.68)"/><path class="cls-14" d="M1055.51,743.44c8.44-1.67,16.88-3.3,25.26-5.24,4.86-1.12,9.8-1.88,14.71-2.8,4.19.56,8.22,1.91,12.37,2.69a6,6,0,0,1-2.37.7c-2.82.59-5.66,1.1-8.48,1.74-2.32.53-3.31,2.06-2.89,4.23s1.87,3.46,4.1,3c9-1.79,18-3.66,27-5.51,3.66.77,7.37,1.29,10.87,2.68-.7.13-1.4.23-2.08.41-2.34.6-3.19,1.89-2.72,4.06s1.8,3,4.15,2.6c3-.55,5.91-1.23,8.89-1.74a3.91,3.91,0,0,0,3.47-2.89l4.89,1.14c-.07,1.84-1.51,3-2.42,4.3-3.68,5.46-7.53,10.82-11.33,16.21-.09.14-.33.19-.49.28a2.75,2.75,0,0,0-2.55,2.86c0,1.71.47,3.3,2.49,3.77-2.94.72-5.92.13-8.87.35-1-4-1.62-4.7-4.51-4.21-3.23.54-6.43,1.24-9.63,1.94a2.93,2.93,0,0,0-2.49,2.6c-7,0-14,.06-21,0-2.14,0-4,.52-5,2.52-.5.91-1.3.93-2.15.93-3.34,0-6.69,0-10,0-2.59,0-2.59,0-2.59,2.7l-2.07.44c-2.55.55-3.65,2-3.19,4.11.5,2.38,1.9,3.19,4.63,2.63s5.15-1.07,7.72-1.62c3.92-.84,4.49-1.68,3.74-5.54,3.86,0,3.44-.33,3.47,3.49,0,.38,0,.77,0,1.15a2.49,2.49,0,0,0,0,2.65c0,.39,0,.78,0,1.17a7.77,7.77,0,0,1-2.72.84c-4.89.7-9.69,1.89-14.49,3-2.62.62-5.31.73-7.91,1.44-1.25.35-1.5-.59-1.83-1.43q-.55-7.51-1.12-15a80,80,0,0,0,11.69-2.18c1.76-.38,2.47-2.17,2-4.19a3,3,0,0,0-3.79-2.35c-3.46.66-6.9,1.4-10.35,2.11-.55-5.79-1-11.58-1.22-17.39,2.15-.4,4.31-.72,6.43-1.22s2.86-2,2.36-4.14a3.12,3.12,0,0,0-3.88-2.51c-1.83.36-3.65.75-5.48,1.13Zm26.92,32c3.22-.69,7-1.41,10.73-2.34,1.61-.41,2.32-2.2,1.84-3.94s-1.54-2.84-3.33-2.54c-3.66.61-7.31,1.38-10.92,2.25a2.82,2.82,0,0,0-2.09,3.59C1079,774.45,1080.13,775.47,1082.43,775.49Zm-16.56-9.23c3.07-.63,6.86-1.3,10.58-2.24,1.7-.43,2.28-2.2,1.76-4.12-.47-1.71-1.74-2.73-3.38-2.42-3.59.67-7.18,1.41-10.73,2.25-1.69.4-2.43,1.94-2.11,3.79S1063.41,766.23,1065.87,766.26Zm54.57-18.18c-3,.65-6.68,1.33-10.28,2.23-1.72.43-2.4,2.05-2,3.82s1.65,3,3.35,2.71c3.59-.63,7.18-1.35,10.72-2.19,1.87-.44,2.53-1.83,2.2-3.88C1124.17,749,1123,748.06,1120.44,748.08Zm16.44,9.23c-2.63.54-6,1.23-9.39,2-2.13.46-3,1.9-2.59,4.16.33,1.89,1.74,2.86,3.83,2.48,3.28-.6,6.54-1.25,9.79-2a3,3,0,0,0,2.67-3.75C1140.86,758,1139.86,757.22,1136.88,757.31ZM1114.22,762c-3.13.65-6.9,1.37-10.63,2.27-1.48.36-2.19,2.11-1.8,3.79s1.44,3,3.2,2.7c3.79-.59,7.55-1.4,11.27-2.34,1.63-.42,2.16-1.9,1.87-3.55C1117.8,762.93,1116.65,762,1114.22,762Zm-29.15-3.87c0,2.43,1.47,3.84,3.81,3.44q5.13-.9,10.19-2.11c2-.47,2.74-2,2.22-4.22a3,3,0,0,0-3.61-2.41c-3.41.63-6.81,1.35-10.2,2.08A2.85,2.85,0,0,0,1085.07,758.09Zm-9.16-5.76c3.08-.65,6.81-1.35,10.49-2.26a3,3,0,0,0,2.06-3.66c-.39-1.89-1.65-3.17-3.26-2.89-3.73.66-7.46,1.39-11.13,2.31-1.61.4-2.26,1.82-2,3.5C1072.41,751.31,1073.49,752.31,1075.91,752.33Z" transform="translate(-866.14 -481.68)"/><path class="cls-14" d="M1207.9,755c.49,2.24,1,4.46,1.45,6.71.56,3.15-1.13,5.27-4.38,5.64-.69.09-1.37.25-2.06.38a26.29,26.29,0,0,1-4.42-5.95c-.12-2.87-.84-3.77-3.26-4.08-.2-.41,0-.63.38-.69C1199.69,756.32,1203.75,755.38,1207.9,755Z" transform="translate(-866.14 -481.68)"/><path class="cls-17" d="M1138.33,775.94c-2-.47-2.54-2.06-2.49-3.77a2.75,2.75,0,0,1,2.55-2.86,3.45,3.45,0,0,1-1,2.42c-1.79,1.49-.44,1.56.64,2.18s3.08.46,3.33,2.42C1140.24,777.14,1139.36,775.91,1138.33,775.94Z" transform="translate(-866.14 -481.68)"/><path class="cls-17" d="M1195.23,757.74c2.42.31,3.14,1.21,3.26,4.08A6.78,6.78,0,0,1,1195.23,757.74Z" transform="translate(-866.14 -481.68)"/><path class="cls-17" d="M1125.16,742.26c-9,1.85-18,3.72-27,5.51-2.23.45-3.64-.71-4.1-3s.57-3.7,2.89-4.23c2.82-.64,5.66-1.15,8.48-1.74a6,6,0,0,0,2.37-.7c4.78.91,9.43,2.41,14.26,3.15A18.21,18.21,0,0,1,1125.16,742.26Z" transform="translate(-866.14 -481.68)"/><path class="cls-17" d="M1147.74,747.38a3.91,3.91,0,0,1-3.47,2.89c-3,.51-5.92,1.19-8.89,1.74-2.35.43-3.67-.44-4.15-2.6s.38-3.46,2.72-4.06c.68-.18,1.38-.28,2.08-.41,2.26,0,4.35.8,6.5,1.34C1144.25,746.71,1146,747,1147.74,747.38Z" transform="translate(-866.14 -481.68)"/><path class="cls-17" d="M1057.75,773.56c3.45-.71,6.89-1.45,10.35-2.11a3,3,0,0,1,3.79,2.35c.47,2-.24,3.81-2,4.19a80,80,0,0,1-11.69,2.18Z" transform="translate(-866.14 -481.68)"/><path class="cls-17" d="M1056,749.43c1.83-.38,3.65-.77,5.48-1.13a3.12,3.12,0,0,1,3.88,2.51c.5,2.11-.32,3.66-2.36,4.14s-4.28.82-6.43,1.22C1056,754,1056.18,751.68,1056,749.43Z" transform="translate(-866.14 -481.68)"/><path class="cls-17" d="M1082.82,782.86c.75,3.86.18,4.7-3.74,5.54-2.57.55-5.14,1.1-7.72,1.62s-4.13-.25-4.63-2.63c-.46-2.15.64-3.56,3.19-4.11l2.07-.44Z" transform="translate(-866.14 -481.68)"/><path class="cls-17" d="M1112.83,776.62a2.93,2.93,0,0,1,2.49-2.6c3.2-.7,6.4-1.4,9.63-1.94,2.89-.49,3.52.17,4.51,4.21a3.38,3.38,0,0,1-2,.33Z" transform="translate(-866.14 -481.68)"/><path class="cls-17" d="M1082.43,775.49c-2.3,0-3.4-1-3.77-3a2.82,2.82,0,0,1,2.09-3.59c3.61-.87,7.26-1.64,10.92-2.25,1.79-.3,2.87.87,3.33,2.54s-.23,3.53-1.84,3.94C1089.44,774.08,1085.65,774.8,1082.43,775.49Z" transform="translate(-866.14 -481.68)"/><path class="cls-17" d="M1065.87,766.26c-2.46,0-3.58-1-3.88-2.74s.42-3.39,2.11-3.79c3.55-.84,7.14-1.58,10.73-2.25,1.64-.31,2.91.71,3.38,2.42.52,1.92-.06,3.69-1.76,4.12C1072.73,765,1068.94,765.63,1065.87,766.26Z" transform="translate(-866.14 -481.68)"/><path class="cls-17" d="M1120.44,748.08c2.52,0,3.73.94,4,2.69.33,2.05-.33,3.44-2.2,3.88-3.54.84-7.13,1.56-10.72,2.19-1.7.3-2.88-.79-3.35-2.71s.25-3.39,2-3.82C1113.76,749.41,1117.41,748.73,1120.44,748.08Z" transform="translate(-866.14 -481.68)"/><path class="cls-17" d="M1136.88,757.31c3-.09,4,.73,4.31,2.88a3,3,0,0,1-2.67,3.75c-3.25.72-6.51,1.37-9.79,2-2.09.38-3.5-.59-3.83-2.48-.4-2.26.46-3.7,2.59-4.16C1130.86,758.54,1134.25,757.85,1136.88,757.31Z" transform="translate(-866.14 -481.68)"/><path class="cls-17" d="M1114.22,762c2.43,0,3.58,1,3.91,2.87.29,1.65-.24,3.13-1.87,3.55-3.72.94-7.48,1.75-11.27,2.34-1.76.28-2.81-1-3.2-2.7s.32-3.43,1.8-3.79C1107.32,763.33,1111.09,762.61,1114.22,762Z" transform="translate(-866.14 -481.68)"/><path class="cls-17" d="M1085.07,758.09a2.85,2.85,0,0,1,2.41-3.22c3.39-.73,6.79-1.45,10.2-2.08a3,3,0,0,1,3.61,2.41c.52,2.21-.19,3.75-2.22,4.22q-5.05,1.2-10.19,2.11C1086.54,761.93,1085.1,760.52,1085.07,758.09Z" transform="translate(-866.14 -481.68)"/><path class="cls-17" d="M1075.91,752.33c-2.42,0-3.5-1-3.83-3-.27-1.68.38-3.1,2-3.5,3.67-.92,7.4-1.65,11.13-2.31,1.61-.28,2.87,1,3.26,2.89a3,3,0,0,1-2.06,3.66C1082.72,751,1079,751.68,1075.91,752.33Z" transform="translate(-866.14 -481.68)"/><path class="cls-17" d="M996.52,576.49l-1.45.53c-2.12.7-3.53.13-4.29-1.93-1.21-3.25-2.34-6.51-3.43-9.8-.59-1.8.19-3.13,2.11-3.88s3.51-.2,4.17,1.53c1.35,3.53,2.55,7.11,3.81,10.67C997.13,574.57,996.82,575.53,996.52,576.49Z" transform="translate(-866.14 -481.68)"/><path class="cls-17" d="M1001,565a6.23,6.23,0,0,1-2.34-3.4c-.9-2.8-2-5.55-2.86-8.35-.68-2.12.06-3.51,2.09-4.22s3.5-.09,4.3,1.94c.72,1.84,1.39,3.71,2.09,5.56C1003.22,559.37,1002.12,562.19,1001,565Z" transform="translate(-866.14 -481.68)"/><path class="cls-6" d="M1058.5,598.15c-3.07.11-3.82-.77-3.43-3.92.11-.91.78-1.14,1.47-1.26a15.91,15.91,0,0,1,2.29-.14c4.05-.1,3.34-.51,3.57,3.36.09,1.53-.5,2.11-2,2C1059.78,598.1,1059.14,598.15,1058.5,598.15Z" transform="translate(-866.14 -481.68)"/><path class="cls-6" d="M1045.07,599.38c-1.46.16-2.07-.36-2.07-1.93,0-2.94-.07-2.94,2.73-3.39.75-.12,1.51-.24,2.26-.38,1.28-.25,2,0,2.12,1.56.36,3.38.46,3.37-3,3.83C1046.46,599.16,1045.77,599.27,1045.07,599.38Z" transform="translate(-866.14 -481.68)"/><path class="cls-6" d="M1031.34,597.3c-.54-1.72.31-2.45,2.27-2.25a10.06,10.06,0,0,0,1.73-.07c2.92-.25,2.84-.24,3.17,2.66.19,1.6-.36,2.26-1.9,2.31a17.85,17.85,0,0,0-1.9.3C1031.54,600.75,1031.54,600.75,1031.34,597.3Z" transform="translate(-866.14 -481.68)"/><path class="cls-17" d="M989.66,551.48a3.53,3.53,0,0,1-3,3.49,2.73,2.73,0,0,1-3.5-1.63c-1.37-3.46-2.63-7-3.75-10.52-.51-1.62.41-2.83,1.9-3.58s3.16-.73,3.95.72C987.32,543.68,988.38,547.81,989.66,551.48Z" transform="translate(-866.14 -481.68)"/><path class="cls-17" d="M1001.18,524.87a2.77,2.77,0,0,1-3-1.94c-1.18-3.39-2.4-6.78-3.49-10.2-.53-1.63.39-3,2.18-3.73s3.46-.18,4.09,1.42c1.36,3.53,2.65,7.1,3.72,10.72C1005.3,523.21,1003.58,524.85,1001.18,524.87Z" transform="translate(-866.14 -481.68)"/><path class="cls-17" d="M1020.06,529.48a3.45,3.45,0,0,1-2.93,3.49,2.73,2.73,0,0,1-3.52-1.57q-2-5.19-3.69-10.52a2.8,2.8,0,0,1,1.82-3.59c1.46-.62,3.14-.85,4,.66C1017.82,521.65,1018.71,525.84,1020.06,529.48Z" transform="translate(-866.14 -481.68)"/><path class="cls-17" d="M1012.15,507.31a3.18,3.18,0,0,1-2.79,3.47,2.88,2.88,0,0,1-3.65-1.73q-1.87-4.83-3.49-9.77a3.15,3.15,0,0,1,2.23-4.38c2-.63,3.55.18,4.32,2.33q1.51,4.26,3,8.53A14.36,14.36,0,0,1,1012.15,507.31Z" transform="translate(-866.14 -481.68)"/><path class="cls-17" d="M981.68,529.25a3.17,3.17,0,0,1-2.77,3.52,2.85,2.85,0,0,1-3.62-1.75c-1.27-3.35-2.51-6.72-3.58-10.14-.61-2,.35-3.39,2.29-4a3.06,3.06,0,0,1,4.16,2c1.15,3.06,2.21,6.15,3.28,9.23A7.15,7.15,0,0,1,981.68,529.25Z" transform="translate(-866.14 -481.68)"/><path class="cls-17" d="M998,539.06a3.48,3.48,0,0,1-3,3.6,2.75,2.75,0,0,1-3.48-1.67q-2-5.12-3.62-10.35a2.85,2.85,0,0,1,1.72-3.65c1.53-.71,3.29-.9,4.13.69C995.72,531.37,996.72,535.46,998,539.06Z" transform="translate(-866.14 -481.68)"/><path class="cls-17" d="M1012.56,544c0,1.81-1.21,2.68-2.82,3.11a2.73,2.73,0,0,1-3.54-1.58c-1.35-3.47-2.6-7-3.66-10.56a2.83,2.83,0,0,1,2-3.65c1.77-.62,3.57-.23,4.18,1.32,1.38,3.52,2.54,7.14,3.77,10.72A2.44,2.44,0,0,1,1012.56,544Z" transform="translate(-866.14 -481.68)"/><path class="cls-8" d="M1125.9,634.84a4.76,4.76,0,0,0-2.63-.38H960.82c-5.84,0-11.68-.07-17.52,0-1.8,0-2.3-.58-2.28-2.32.07-8.79,0-17.58,0-26.37,0-3.14-.09-3,2.91-3a6.89,6.89,0,0,0,.76-.1,40.09,40.09,0,0,0,7.51,0c1.06.48,2.15,0,3.22.06,10.23,0,20.45,0,30.68,0l5,0,27.93,0a34.81,34.81,0,0,0,6,0c1.54,0,3.07.11,4.61.11,11.93,0,23.86,0,35.79,0,2.46,0,4.94.45,7.4,0l2.93,0,10.06,0h50.94c2.16,0,4.32.13,6.47,0,1.82-.11,2.8.48,2.82,2.37v0l-.4.51c0,9,0,18,.07,26.93,0,1.59-.68,1.93-2.09,1.92-5.13-.06-10.26,0-15.39,0A3.84,3.84,0,0,0,1125.9,634.84Z" transform="translate(-866.14 -481.68)"/><path class="cls-17" d="M980,507.6c-.11-1.86,1.07-2.67,2.61-3.09s3.07-.07,3.71,1.55c1.33,3.4,2.57,6.85,3.68,10.34a3.19,3.19,0,0,1-2.27,3.93,3,3,0,0,1-4-1.44c-1.34-3.4-2.48-6.88-3.68-10.34A3.74,3.74,0,0,1,980,507.6Z" transform="translate(-866.14 -481.68)"/><path class="cls-18" d="M953.17,598.29c-.12-.23-.25-.45-.38-.68h0v0c-.22-.39-.45-.78-.68-1.17l-2.47-4.28a1.08,1.08,0,0,0-.11-.18l-6.11-10.56,0,0-.89-1.48c-1.75-2.88-3.4-5.82-5.08-8.75a9.6,9.6,0,0,1-1.3-6.39,9.21,9.21,0,0,1,4.16-6.55c1.25-.81,2.57-1.52,3.86-2.26a7.73,7.73,0,0,1,3.23-1,9.45,9.45,0,0,1,9.57,4.85c1.13,1.86,2.19,3.76,3.28,5.65q3.84,6.64,7.71,13.3c.21.37.16.54-.2.74-2.15,1.22-4.28,2.47-6.42,3.7a1.6,1.6,0,0,0-.66,2.32l6.41,11.07h0q1.76,3.06,3.53,6.1c0,.08.12.19.17.28h3.68l-2.9-5q-3.51-6.09-7-12.17c-.3-.53-.3-.53.21-.83l12.89-7.47c.55-.32.55-.32.88.25l5.34,9.21h0c1.8,3.1,3.6,6.22,5.41,9.32.22.37.1.52-.23.71l-10.41,6H993.1c-.59-1-1.17-2-1.77-3-.22-.37-.17-.56.21-.73a6.66,6.66,0,0,0,.69-.38,1.66,1.66,0,0,0,.67-2.58q-6.31-10.92-12.65-21.84a1.65,1.65,0,0,0-2.54-.68q-3,1.75-6.07,3.5c-.8.46-.63.51-1.08-.28q-5.44-9.37-10.87-18.77a12.79,12.79,0,0,0-16.31-5.43,38.29,38.29,0,0,0-4.25,2.36,12.51,12.51,0,0,0-2.25,1.65,12.82,12.82,0,0,0-3.87,7,12.23,12.23,0,0,0,1.33,8.51c2.08,3.72,4.29,7.37,6.35,11.11.36.66.76,1.31,1.15,2l1.44,2.49.66,1.16.08.12,5.89,10.17h0l1.53,2.6c1.93,3.24,3.79,6.52,5.68,9.78a9.44,9.44,0,0,1,1.34,5.31,9.14,9.14,0,0,1-4.18,7.46c-1.3.87-2.68,1.6-4,2.37a7.7,7.7,0,0,1-3.24,1,9.32,9.32,0,0,1-9.33-4.79c-1.39-2.33-2.73-4.69-4.09-7q-3.51-6-7-12.09c-.19-.33-.13-.48.19-.64s.86-.49,1.29-.74l7.58-4.4a3.82,3.82,0,0,0,.83-.48,1.67,1.67,0,0,0,.2-2.09q-4.59-7.9-9.19-15.79c-1.22-2.1-2.42-4.2-3.64-6.3a1.65,1.65,0,0,0-2.37-.63l-.72.41c-.56.31-.56.31-.88-.24l-3.53-6.1a1.79,1.79,0,0,0-2.7-.72q-8.08,4.73-16.22,9.4a1.71,1.71,0,0,0-.69,2.59l3.36,5.8c.54.93.54.93-.37,1.45l-.19.11a1.66,1.66,0,0,0-.71,2.62l6.3,10.89,6.3,10.88a1.67,1.67,0,0,0,2.63.71l9-5.18c.56-.32.56-.32.88.24,3.24,5.58,6.46,11.17,9.71,16.75a26.6,26.6,0,0,0,2.39,3.88A12.67,12.67,0,0,0,947.54,631a12.51,12.51,0,0,0,4.63-1.52,32.27,32.27,0,0,0,4.77-2.93,12.32,12.32,0,0,0,4.42-7,12,12,0,0,0-1.13-8.87C957.92,606.51,955.43,602.46,953.17,598.29Zm-52.51-20.92c.67-.36,1.32-.75,2-1.14.26-.16.41-.12.55.15.45.8.91,1.6,1.38,2.39a1.59,1.59,0,0,0,2.25.64,1.56,1.56,0,0,0,.56-2.2c-.43-.78-.86-1.56-1.33-2.32-.23-.36-.15-.56.21-.75.63-.34,1.25-.71,1.85-1.09.34-.21.53-.18.73.18.45.82.91,1.64,1.4,2.43a1.55,1.55,0,0,0,2,.61,1.61,1.61,0,0,0,.92-1.88,2,2,0,0,0-.24-.51c-.44-.78-.87-1.55-1.33-2.31-.17-.28-.13-.44.15-.6.68-.37,1.35-.76,2-1.17.3-.18.45-.13.62.17q1.39,2.43,2.81,4.85c.17.28.11.42-.16.58-2.21,1.26-4.4,2.54-6.6,3.81h0c-2.16,1.25-4.33,2.5-6.48,3.76-.33.19-.5.2-.71-.16q-1.34-2.37-2.72-4.7C900.28,577.76,900.3,577.57,900.66,577.37Zm19.83,25.78-6.34,3.67c-.61.35-.61.36-1-.28l-5.31-9.17h0q-2.67-4.61-5.33-9.21c-.29-.51-.29-.51.21-.8l16.51-9.53c.71-.41,1.41-.83,2.1-1.27.33-.2.5-.15.69.19q3.12,5.4,6.25,10.81l4.52,7.81c.29.5.29.5-.22.8Z" transform="translate(-866.14 -481.68)"/><path class="cls-9" d="M1204.86,770.13c.83,1.85,2.34,3.2,3.47,4.84.64.92.65,1.46-.62,1.71a183.57,183.57,0,0,1-22.29,3.11c-5.21.35-10.41.38-15.61.31-2.89-.05-5.77-.24-8.65-.45a9.6,9.6,0,0,0-2.68.13c-.79-3.18-3-4-6-3.95-3.7,0-7.37.48-11.07.5-.25-2-2.15-1.75-3.33-2.42s-2.43-.69-.64-2.18a3.45,3.45,0,0,0,1-2.42c.16-.09.4-.14.49-.28,3.8-5.39,7.65-10.75,11.33-16.21.91-1.35,2.35-2.46,2.42-4.3a9.89,9.89,0,0,1,2.87.18c11.62,2.5,23.24,5,34.86,7.48,1.36.29,1.88,0,2.19-1.42,1.58-7.48,3.29-14.93,5-22.38,2.66-11.85,5.36-23.68,8-35.53,2.06-9.22,4-18.44,6.1-27.66,2-8.84,4-17.67,5.94-26.51,1.36-6.07,2.56-12.18,4.19-18.2,1.76,3.13,3.57,6.24,5.27,9.4q9.54,17.75,19,35.53a31.9,31.9,0,0,1,2.21,4.26c.76,2.16,2.32,2.84,4.35,3.16,6.78,1.07,13.55,2.23,20.33,3.31,1.51.24,2.28.49,1.59,2.43-5.64,16-11.17,32-16.71,48.06-1.7,4.92-3.4,9.84-5,14.78a2.5,2.5,0,0,1-2.23,2q-11.11,1.85-22.21,3.83c-6.06,1.09-12.1,2.28-18.15,3.42a4.27,4.27,0,0,0-2.31.39c-4.15.34-8.21,1.28-12.29,2-.34.06-.58.28-.38.69a6.78,6.78,0,0,0,3.26,4.08,26.29,26.29,0,0,0,4.42,5.95A9.63,9.63,0,0,0,1204.86,770.13Zm16.51-103c-.4,0-.72.07-.83.42-.22.71.38,1,.77,1.43q10,10.07,20.11,20.1c.44.44.95,1.41,1.69.56s-.18-1.29-.66-1.76q-9.93-10-19.89-19.9A2.4,2.4,0,0,0,1221.37,667.13Zm-12.67,64.31c6.92-.54,13.64-1,20.34-1.66,2.12-.22,4.25,0,6.34-.39.57-.11,1.58,0,1.55-.79s-1-.55-1.58-.59a36.07,36.07,0,0,0-5.18.35c-7.09.58-14.2,1.06-21.29,1.64-.8.07-2.24-.09-2.17,1S1208.14,731.28,1208.7,731.44Zm29.75-19.26c.58-.12,1.43.26,1.51-.51s-.79-.73-1.32-.87c-1.91-.51-3.84-1-5.77-1.42q-9.07-2.19-18.16-4.36c-.58-.14-1.42-.48-1.58.45-.13.73.66.82,1.22.95,4.31,1,8.62,2,12.92,3.06C1231,710.37,1234.76,711.28,1238.45,712.18Z" transform="translate(-866.14 -481.68)"/><path class="cls-19" d="M1221.75,624.48c-1.63,6-2.83,12.13-4.19,18.2-2,8.84-4,17.67-5.94,26.51-2,9.22-4,18.44-6.1,27.66-2.64,11.85-5.34,23.68-8,35.53-1.68,7.45-3.39,14.9-5,22.38-.31,1.46-.83,1.71-2.19,1.42-11.62-2.52-23.24-5-34.86-7.48a9.89,9.89,0,0,0-2.87-.18l-4.89-1.14c-1.74-.36-3.49-.67-5.21-1.1-2.15-.54-4.24-1.37-6.5-1.34-3.5-1.39-7.21-1.91-10.87-2.68a18.21,18.21,0,0,0-3.05-1c-4.83-.74-9.48-2.24-14.26-3.15-4.15-.78-8.18-2.13-12.37-2.69a33.2,33.2,0,0,0-6.89-1.48,2.43,2.43,0,0,0-.63-.41c-2.86-.75-2.88-.74-2.18-3.54l10.11-40.61q6-23.94,12-47.89,4.5-18,8.94-35.94c.37-1.48.9-2.14,2.48-1.57a14.44,14.44,0,0,0,2.46.47c3.29.69,6.58,1.35,9.87,2.07,1.86.41,3.76.5,5.63.92,3.4.76,6.78,1.6,10.19,2.25,2.11.4,4.28.33,6.4.92a64.21,64.21,0,0,0,9.64,2.08c3.17.37,6.21,1.29,9.33,1.82,2,.34,4,.86,5.93,1.27s3.91.31,5.81,1c4.72,1.75,9.87,1.42,14.68,2.93,3.06,1,6.36,1.14,9.53,1.76s6.33,1.28,9.44,2.11C1219.39,623.89,1220.87,623.08,1221.75,624.48Zm-15.1,9.83c.09-1.24-1.19-1.11-2.12-1.3q-20.6-4.14-41.2-8.25-17.47-3.5-34.95-7c-1.65-.34-2.44,0-2.87,1.77-1.39,5.69-3,11.32-4.41,17q-6,23.16-11.88,46.33-4.65,18.12-9.37,36.22c-.37,1.44-.11,2.06,1.4,2.4,11.28,2.55,22.55,5.18,33.82,7.75q12.32,2.82,24.64,5.57c6.58,1.49,13.18,2.94,19.74,4.5,1.52.36,2.09-.06,2.38-1.51.5-2.46,1.16-4.88,1.75-7.31q3.56-14.91,7.12-29.82t7.16-29.62q2.82-11.71,5.62-23.43Z" transform="translate(-866.14 -481.68)"/><path class="cls-20" d="M1221.37,667.13a2.4,2.4,0,0,1,1.19.85q9.95,9.94,19.89,19.9c.48.47,1.28,1,.66,1.76s-1.25-.12-1.69-.56q-10.08-10-20.11-20.1c-.39-.39-1-.72-.77-1.43C1220.65,667.2,1221,667.1,1221.37,667.13Z" transform="translate(-866.14 -481.68)"/><path class="cls-20" d="M1208.7,731.44c-.56-.16-1.92.45-2-.47s1.37-.9,2.17-1c7.09-.58,14.2-1.06,21.29-1.64a36.07,36.07,0,0,1,5.18-.35c.59,0,1.55-.29,1.58.59s-1,.68-1.55.79c-2.09.4-4.22.17-6.34.39C1222.34,730.46,1215.62,730.9,1208.7,731.44Z" transform="translate(-866.14 -481.68)"/><path class="cls-20" d="M1238.45,712.18c-3.69-.9-7.43-1.81-11.18-2.7-4.3-1-8.61-2-12.92-3.06-.56-.13-1.35-.22-1.22-.95.16-.93,1-.59,1.58-.45q9.09,2.16,18.16,4.36c1.93.46,3.86.91,5.77,1.42.53.14,1.4.19,1.32.87S1239,712.06,1238.45,712.18Z" transform="translate(-866.14 -481.68)"/><path class="cls-21" d="M1206.65,634.31l-3.17,13.27q-2.82,11.71-5.62,23.43-3.57,14.82-7.16,29.62t-7.12,29.82c-.59,2.43-1.25,4.85-1.75,7.31-.29,1.45-.86,1.87-2.38,1.51-6.56-1.56-13.16-3-19.74-4.5q-12.32-2.78-24.64-5.57c-11.27-2.57-22.54-5.2-33.82-7.75-1.51-.34-1.77-1-1.4-2.4q4.74-18.09,9.37-36.22,6-23.16,11.88-46.33c1.46-5.67,3-11.3,4.41-17,.43-1.74,1.22-2.11,2.87-1.77q17.47,3.56,34.95,7,20.61,4.13,41.2,8.25C1205.46,633.2,1206.74,633.07,1206.65,634.31Z" transform="translate(-866.14 -481.68)"/><polygon class="cls-13" points="276.81 139.73 279.01 157.72 272.16 163.17 268.86 179.8 274.83 164.24 285.11 158.53 285.37 141.43 276.81 139.73"/><polygon class="cls-13" points="322.1 228.31 309.39 225.55 305.36 211.33 303.67 230.02 315.05 234.51 319.19 240.58 322.1 228.31"/><path class="cls-13" d="M920.47,603.4l-6.33,3.67c-.61.35-.62.35-1-.28l-5.32-9.17h0l-5.34-9.21c-.29-.51-.29-.51.22-.8l16.51-9.53c.71-.41,1.41-.83,2.1-1.27.32-.2.5-.15.69.19q3.11,5.4,6.25,10.81l4.52,7.81c.28.5.29.5-.22.8Z" transform="translate(-866.14 -481.68)"/><rect class="cls-22" x="97.15" y="346.61" width="207.14" height="57.51"/><text class="cls-23" transform="translate(103.22 369.92)">50Million metric tonnes <tspan x="49.84" y="23.97">7KG/ capita</tspan></text></svg>