<svg id="Layer_1" data-name="Layer 1" xmlns="http://www.w3.org/2000/svg" viewBox="0 0 106.95 106.92"><defs><style>.cls-1{fill:#0549aa;}.cls-2{fill:#b2e5fb;}.cls-3{fill:#b7dd8e;}</style></defs><title>earthH</title><path class="cls-1" d="M946,601.51A53.46,53.46,0,1,1,999.37,548,53.51,53.51,0,0,1,946,601.51ZM895.84,544c-.1,14.65,3,24.34,9.18,33,8.37,11.7,19.81,18.47,34,20.73,1.21.2,1.63-.22,1.64-1.38,0-6.13,3.51-9.74,8.91-11.75,5.77-2.14,8.82-6.18,9.09-12.29A16.51,16.51,0,0,1,963.91,561c5.73-5.7,14.84-4.2,18.28,2.17a14.61,14.61,0,0,0,7.41,6.39c1,.45,1.54.25,1.9-.74.94-2.61,2-5.2,2.82-7.85.67-2.17.23-3.08-1.7-4.34-3.06-2-6.52-2-9.82-1.26s-5.74-.24-8.23-1.79a5.16,5.16,0,0,1-.79-8.37,12.1,12.1,0,0,1,3.08-2.08c5.63-2.58,10.29-6.53,15.08-10.32a2.06,2.06,0,0,0,.86-2.63c-.64-1.46-1.35-2.9-2-4.36-.45-1-1.08-1.12-2-.54-1.29.85-2.58,1.69-3.92,2.45-3.34,1.92-6.83,3-10.72,1.84-2.21-.67-4.42-1.33-6.66-1.92-3.32-.87-6.42-1.49-9.4,1.43a7.17,7.17,0,0,1-9.06,1c-2.67-1.51-3.6,0-3.83,2.15A28.8,28.8,0,0,0,946.8,545c.84,2.41,1.71,4.81,2.44,7.24a12.24,12.24,0,0,1-2.61,12.27c-2.65,3.09-5.88,4.15-9.68,2.8a23.39,23.39,0,0,1-3.6-1.9c-2.9-1.7-5.23-1.33-7.76.88a32.65,32.65,0,0,1-5.74,4.11,5,5,0,0,1-6.57-1.43,11,11,0,0,1-1.89-10.74,64.31,64.31,0,0,1,2.88-7.25c2.32-5.28,3.05-10.51.36-16-1.91-3.88-2-7.76.9-11.36a7.76,7.76,0,0,0,.87-1.94c1.78-4.48,3.44-9,3.14-13.93a8.25,8.25,0,0,0-.42-1.66,6,6,0,0,0-1.55.58C903.35,516.82,896.27,530.67,895.84,544Zm50.07-46.1a49,49,0,0,0-22.19,5.16,1.87,1.87,0,0,0-1.22,2.37,16.89,16.89,0,0,1,.34,4.42,37.64,37.64,0,0,1-4.6,15.57,8.76,8.76,0,0,0-.43,8.59c1.79,4,2.77,8.3,1.44,12.64A114.93,114.93,0,0,1,915,558a9.83,9.83,0,0,0-.38,6.77c.8,2.81,2.59,3.55,5.1,2,1.4-.86,2.56-2.09,3.89-3.07a16.09,16.09,0,0,1,3.38-2.18c3.16-1.27,6-.25,8.75,1.47,2.24,1.44,4.65,2.21,7,.47,2.74-2.07,4.47-4.82,3.72-8.46a36.08,36.08,0,0,0-1.68-6,38.29,38.29,0,0,1-3-16.14c.31-5.62,3.87-8.3,8.42-6,3,1.56,5.08.67,7.13-1.33a5.93,5.93,0,0,1,5.15-1.91,71.33,71.33,0,0,1,9.87,2c3.66,1.11,7.09,1.32,10.49-.58,1.19-.66,2.33-1.41,3.5-2.11,2.22-1.33,2.28-1.48.71-3.64C976.86,505.41,963.11,498.35,945.91,497.94Zm43.15,75.4c-.27-.24-.41-.46-.61-.55a23.53,23.53,0,0,1-10.12-9.17c-1.66-2.67-5.73-3.5-8.65-2.32-4.21,1.71-6.5,5-7.46,9.31-.62,2.76-.78,5.67-1.76,8.29-1.78,4.76-5.66,7.42-10.33,9.11a8.89,8.89,0,0,0-6.22,7.93c-.19,1.82.22,2.2,2.06,2.19,14.07-.06,26-5.23,35.88-15.15A37.35,37.35,0,0,0,989.06,573.34Zm5.21-38c-.68.48-1.08.72-1.44,1-4.67,3.73-9.34,7.47-14.85,10a6.83,6.83,0,0,0-1.5.93c-1.47,1.21-1.44,2.56.11,3.63a8.08,8.08,0,0,0,5.9,1.22,29.81,29.81,0,0,1,7.55.08c1.85.25,3.6,1.21,5.69,2C996.1,547.82,996.29,541.68,994.27,535.38Z" transform="translate(-892.43 -494.59)"/><path class="cls-2" d="M895.84,544c.43-13.37,7.51-27.22,21.73-37.3a6,6,0,0,1,1.55-.58,8.25,8.25,0,0,1,.42,1.66c.3,4.94-1.36,9.45-3.14,13.93a7.76,7.76,0,0,1-.87,1.94c-2.86,3.6-2.81,7.48-.9,11.36,2.69,5.44,2,10.67-.36,16a64.31,64.31,0,0,0-2.88,7.25A11,11,0,0,0,913.28,569a5,5,0,0,0,6.57,1.43,32.65,32.65,0,0,0,5.74-4.11c2.53-2.21,4.86-2.58,7.76-.88a23.39,23.39,0,0,0,3.6,1.9c3.8,1.35,7,.29,9.68-2.8a12.24,12.24,0,0,0,2.61-12.27c-.73-2.43-1.6-4.83-2.44-7.24a28.8,28.8,0,0,1-1.55-12.78c.23-2.1,1.16-3.66,3.83-2.15a7.17,7.17,0,0,0,9.06-1c3-2.92,6.08-2.3,9.4-1.43,2.24.59,4.45,1.25,6.66,1.92,3.89,1.18,7.38.08,10.72-1.84,1.34-.76,2.63-1.6,3.92-2.45.89-.58,1.52-.49,2,.54.64,1.46,1.35,2.9,2,4.36a2.06,2.06,0,0,1-.86,2.63c-4.79,3.79-9.45,7.74-15.08,10.32a12.1,12.1,0,0,0-3.08,2.08,5.16,5.16,0,0,0,.79,8.37c2.49,1.55,5.06,2.48,8.23,1.79s6.76-.74,9.82,1.26c1.93,1.26,2.37,2.17,1.7,4.34-.83,2.65-1.88,5.24-2.82,7.85-.36,1-.86,1.19-1.9.74a14.61,14.61,0,0,1-7.41-6.39c-3.44-6.37-12.55-7.87-18.28-2.17a16.51,16.51,0,0,0-5.28,11.31c-.27,6.11-3.32,10.15-9.09,12.29-5.4,2-8.87,5.62-8.91,11.75,0,1.16-.43,1.58-1.64,1.38-14.16-2.26-25.6-9-34-20.73C898.84,568.38,895.74,558.69,895.84,544Z" transform="translate(-892.43 -494.59)"/><path class="cls-3" d="M945.91,497.94c17.2.41,31,7.47,41.1,21.43,1.57,2.16,1.51,2.31-.71,3.64-1.17.7-2.31,1.45-3.5,2.11-3.4,1.9-6.83,1.69-10.49.58a71.33,71.33,0,0,0-9.87-2,5.93,5.93,0,0,0-5.15,1.91c-2,2-4.11,2.89-7.13,1.33-4.55-2.34-8.11.34-8.42,6a38.29,38.29,0,0,0,3,16.14,36.08,36.08,0,0,1,1.68,6c.75,3.64-1,6.39-3.72,8.46-2.31,1.74-4.72,1-7-.47-2.71-1.72-5.59-2.74-8.75-1.47a16.09,16.09,0,0,0-3.38,2.18c-1.33,1-2.49,2.21-3.89,3.07-2.51,1.54-4.3.8-5.1-2A9.83,9.83,0,0,1,915,558a114.93,114.93,0,0,0,4.25-11.31c1.33-4.34.35-8.6-1.44-12.64a8.76,8.76,0,0,1,.43-8.59,37.64,37.64,0,0,0,4.6-15.57,16.89,16.89,0,0,0-.34-4.42,1.87,1.87,0,0,1,1.22-2.37A49,49,0,0,1,945.91,497.94Z" transform="translate(-892.43 -494.59)"/><path class="cls-3" d="M989.06,573.34a37.35,37.35,0,0,1-7.21,9.64C972,592.9,960,598.07,946,598.13c-1.84,0-2.25-.37-2.06-2.19a8.89,8.89,0,0,1,6.22-7.93c4.67-1.69,8.55-4.35,10.33-9.11,1-2.62,1.14-5.53,1.76-8.29,1-4.3,3.25-7.6,7.46-9.31,2.92-1.18,7-.35,8.65,2.32a23.53,23.53,0,0,0,10.12,9.17C988.65,572.88,988.79,573.1,989.06,573.34Z" transform="translate(-892.43 -494.59)"/><path class="cls-3" d="M994.27,535.38c2,6.3,1.83,12.44,1.46,18.79-2.09-.75-3.84-1.71-5.69-2a29.81,29.81,0,0,0-7.55-.08,8.08,8.08,0,0,1-5.9-1.22c-1.55-1.07-1.58-2.42-.11-3.63a6.83,6.83,0,0,1,1.5-.93c5.51-2.49,10.18-6.23,14.85-10C993.19,536.1,993.59,535.86,994.27,535.38Z" transform="translate(-892.43 -494.59)"/></svg>