<svg id="Layer_1" data-name="Layer 1" xmlns="http://www.w3.org/2000/svg" viewBox="0 0 692.45 213.04"><defs><style>.cls-1,.cls-3,.cls-5{fill:#969289;}.cls-2{fill:#fff;}.cls-3,.cls-4,.cls-5{stroke:#969289;stroke-miterlimit:10;}.cls-3{stroke-width:0.95px;}.cls-4{fill:none;stroke-width:2.68px;}.cls-5{stroke-width:0.94px;}</style></defs><title>endOfLife</title><path class="cls-1" d="M643.23,545c0,2,.91,2.87,2.86,2.87h15.35c.95,0,.95,0,.95,1q0,14.37,0,28.74a40,40,0,0,0,.18,6.75A18.81,18.81,0,0,0,674,598.93a18.48,18.48,0,0,0,7.08,1.49,47,47,0,0,0,8.3-.22,18.29,18.29,0,0,0,10.9-5.72,17.81,17.81,0,0,0,5.14-12.23c.11-7-.07-14.08.12-21.12,0-.39,0-.77,0-1.15h0v-9.39a1.61,1.61,0,0,0,0-.31V532.17h-.06l0-2.56c-.11-5-.05-10,0-15a14.2,14.2,0,0,1,3.08-9.17,13.61,13.61,0,0,1,10.22-5.32c2.21-.12,4.42-.05,6.64,0a11.66,11.66,0,0,1,4.9,1.11c5.69,2.62,8.53,7.14,8.68,13.35.07,3.23,0,6.46,0,9.69,0,7.61,0,15.21,0,22.82,0,.64-.19.81-.81.81-3.67,0-7.33,0-11,0a2.36,2.36,0,0,0-2.57,2.48q0,9.5,0,19h0v19.05a2.36,2.36,0,0,0,2.47,2.52c.52,0,1,0,1.56,0s.73.17.72.73c0,3.66,0,7.33,0,11a2.45,2.45,0,0,0,2.65,2.63h18.73a2.39,2.39,0,0,0,2.54-2.19,4.31,4.31,0,0,0,.05-.71c0-3.56,0-7.11,0-10.67,0-.65.2-.85.81-.78a9.14,9.14,0,0,0,1.17,0,2.46,2.46,0,0,0,2.78-2.81V550.6a2.46,2.46,0,0,0-2.76-2.77l-10.41,0c-1.36,0-1.18.18-1.18-1.16q0-16.1,0-32.19a19,19,0,0,0-16.92-19.11,54.24,54.24,0,0,0-7.21-.14,18,18,0,0,0-4.13.46,18.91,18.91,0,0,0-10.18,6.12,18.17,18.17,0,0,0-4.62,11.92c-.09,6.33,0,12.66-.1,19,0,1.12,0,2.25,0,3.37v4.27c0,.66,0,1.32,0,2a1.55,1.55,0,0,0,0,.22V560h0c0,1.49,0,3,0,4.48.06,5.6,0,11.19,0,16.78a14,14,0,0,1-2.23,7.82,13.56,13.56,0,0,1-10.92,6.47c-2.31.16-4.64.07-7,0a11.66,11.66,0,0,1-4.9-1.14c-5.44-2.66-8.36-7-8.43-13.09,0-4,0-8.06,0-12.09,0-6.92,0-13.84,0-20.75,0-.56.2-.71.72-.68.74,0,1.48,0,2.21,0h13a5.27,5.27,0,0,0,1.43,0,2.48,2.48,0,0,0,1.81-2.54l-.06-27.11c0-3.6,0-7.2,0-10.8a2.44,2.44,0,0,0-2.57-2.57H682.5c-.94,0-1,0-1-1V493.36a2.65,2.65,0,0,0-2.92-2.93c-9.28,0-18.56,0-27.84,0a2.54,2.54,0,0,0-2.81,2.82v9.95c0,1.58,0,1.58-1.55,1.58h-.32c-2,0-2.87.88-2.87,2.84q0,9.33,0,18.67ZM748.44,599.8c0,.48-.18.64-.65.64q-6.49,0-13,0c-.55,0-.7-.21-.7-.73q0-4.12,0-8.25c0-.5.18-.63.65-.63,2.18,0,4.37,0,6.56,0h0c2.15,0,4.29,0,6.44,0,.53,0,.71.14.71.69Q748.42,595.67,748.44,599.8Zm3.91-47.23c1,0,1,0,1,1v15.8h0c0,5.34,0,10.67,0,16,0,.64-.27.75-.82.75q-9.56,0-19.12-.06c-1.06,0-2.13,0-3.18.07-.65,0-.86-.15-.85-.82,0-3.64,0-7.28,0-10.93q0-10.43,0-20.87c0-.9,0-.9.88-.9ZM652.84,496c0-.58.16-.81.77-.79,1.13,0,2.26,0,3.38,0,.46,0,.61.16.6.61,0,1.36,0,2.73,0,4.09a2.35,2.35,0,0,0,2.41,2.49,2.31,2.31,0,0,0,2.36-2.4c0-1.32,0-2.65,0-4,0-.63.22-.83.83-.81,1.06,0,2.13,0,3.19,0,.58,0,.81.16.79.77,0,1.38,0,2.77,0,4.16a2.3,2.3,0,0,0,2.1,2.26,2.36,2.36,0,0,0,2.57-1.73,3.25,3.25,0,0,0,.09-.83c0-1.32,0-2.65,0-4,0-.47.16-.65.64-.64,1.15,0,2.3,0,3.44,0,.52,0,.68.17.68.67,0,2.77,0,5.55,0,8.32,0,.49-.17.62-.64.62H664.75c-3.71,0-7.41,0-11.12,0-.57,0-.8-.12-.79-.75Q652.89,500,652.84,496ZM648,526.23c0-5.27,0-10.53,0-15.8,0-.87,0-.87.87-.87l28.29,0c1.21,0,2.43,0,3.64-.06.57,0,.75.18.75.75,0,6.17,0,12.35,0,18.53q0,6.7,0,13.4c0,.85,0,.86-.88.86l-20.74,0H649c-1,0-1.06,0-1.06-1.09V526.23Z" transform="translate(-639.75 -489.96)"/><rect class="cls-1" x="664.55" y="551.78" width="33.85" height="83.44" rx="16.93" transform="translate(-551.78 785.02) rotate(-90)"/><rect class="cls-2" x="669.21" y="574.33" width="24.52" height="38.34" transform="translate(-551.78 785.02) rotate(-90)"/><circle class="cls-1" cx="32.5" cy="108.83" r="3.49"/><circle class="cls-1" cx="41.76" cy="108.83" r="3.49"/><circle class="cls-1" cx="50.94" cy="108.83" r="3.49"/><circle class="cls-1" cx="32.5" cy="98.27" r="3.49"/><circle class="cls-1" cx="41.76" cy="98.27" r="3.49"/><circle class="cls-1" cx="50.94" cy="98.27" r="3.49"/><path class="cls-2" d="M978.62,571.88c0-11.14,0-22.27,0-33.41,0-1.2.38-1.5,1.52-1.47q4.42.11,8.87,0c1.07,0,1.36.31,1.36,1.38-.05,8.41,0,16.82,0,25.23,0,2.1.6,2.71,2.64,2.72h33.31c1.69,0,1.73,0,1.73,1.76q0,18.6,0,37.22c0,1.1-.34,1.46-1.45,1.46q-23.16,0-46.33,0c-1.6,0-1.61,0-1.61-1.56V571.88Zm39.36,15a8.39,8.39,0,0,0,8.25-8.29c-.09-5.09-3.62-8.57-9.08-8.62-7.53-.07-15.06-.05-22.59,0-4.33,0-7.39,2.14-8.72,5.87a8.35,8.35,0,0,0,7.71,11h12.22C1009.84,586.82,1013.91,586.71,1018,586.85Z" transform="translate(-639.75 -489.96)"/><path class="cls-2" d="M910.5,606.78c-1.08,0-1.47-.31-1.46-1.44.05-6.38,0-12.75,0-19.13,0-1.73,0-1.74,1.71-1.74h32.74c2.65,0,3.23-.59,3.23-3.25q0-21.5,0-43c0-1,.33-1.24,1.26-1.23,3,0,6,.07,9,0,1.16,0,1.49.29,1.49,1.47q0,33.42,0,66.84c0,1.19-.36,1.48-1.5,1.47-7.72,0-15.45,0-23.17,0S918.27,606.74,910.5,606.78Zm8.62-19a8.4,8.4,0,0,0-8.46,8.1,8.29,8.29,0,0,0,8.3,8.74c6.37.07,12.74,0,19.11,0a54.93,54.93,0,0,0,6.55-.24,8.29,8.29,0,0,0,6.78-7,8.38,8.38,0,0,0-5.3-9,9.4,9.4,0,0,0-3-.52c-4-.06-8.06,0-12.1,0S923.07,587.88,919.12,587.73Z" transform="translate(-639.75 -489.96)"/><path class="cls-1" d="M962.11,571.89V605.2c0,1.55,0,1.55,1.5,1.55,3.34,0,6.69,0,10,0,1,0,1.32-.35,1.32-1.34q0-33.54,0-67.08c0-1-.31-1.36-1.32-1.34q-5.13.06-10.26,0c-1,0-1.29.36-1.29,1.35Q962.14,555.12,962.11,571.89Z" transform="translate(-639.75 -489.96)"/><path class="cls-1" d="M1012.59,562.55c2.69,0,5.38,0,8.06,0,.85,0,1.17-.28,1.17-1.13q0-8.23,0-16.46c0-.74-.28-1-1-1q-8.29,0-16.58,0c-.8,0-1.08.32-1.08,1.1q0,8.18,0,16.35c0,1,.44,1.17,1.27,1.16C1007.14,562.53,1009.87,562.54,1012.59,562.55Z" transform="translate(-639.75 -489.96)"/><path class="cls-2" d="M986.13,506.89a6.38,6.38,0,1,1,6.47-6.38A6.36,6.36,0,0,1,986.13,506.89Zm.13-3.44a2.82,2.82,0,0,0,3-2.84,3,3,0,1,0-6-.09A2.82,2.82,0,0,0,986.26,503.45Z" transform="translate(-639.75 -489.96)"/><path class="cls-2" d="M944.35,509.82a6.41,6.41,0,1,1,.08-12.82c3.55,0,6.54,3.38,6.21,6.39C950.93,506.58,947.92,509.78,944.35,509.82Zm0-3.45a2.93,2.93,0,0,0,3-3,3.07,3.07,0,0,0-3-3,3,3,0,0,0-2.94,3.06A2.84,2.84,0,0,0,944.37,506.37Z" transform="translate(-639.75 -489.96)"/><path class="cls-2" d="M1014.05,515.26a5.47,5.47,0,0,0-5.48,5.69,5.56,5.56,0,0,0,11.12-.23A5.53,5.53,0,0,0,1014.05,515.26Z" transform="translate(-639.75 -489.96)"/><path class="cls-2" d="M947,513.6q3.36,5.65,7,11.73c.34-.28.6-.47.83-.68,1.33-1.25,2.64-2.54,4-3.76.52-.47.69-.82.23-1.43-2.18-2.87-4.33-5.76-6.48-8.65-.35-.47-.64-.53-1.14-.18C950.05,511.59,948.65,512.5,947,513.6Z" transform="translate(-639.75 -489.96)"/><path class="cls-2" d="M980.41,522.09c.74-1.78,1.5-3.57,2.25-5.36.67-1.59,1.34-3.18,2-4.77.47-1.17.29-1.33-.85-1.68a17,17,0,0,1-3.24-1.42c-.73-.4-1.13-.37-1.55.41-1.51,2.84-3.1,5.64-4.61,8.48-.15.28-.08,1,.12,1.1C976.4,519.94,978.32,521,980.41,522.09Z" transform="translate(-639.75 -489.96)"/><path class="cls-2" d="M925.21,519.76c2.07,2.31,1.78,2,3.61.43,3-2.58,6-5.12,9-7.65.53-.45.59-.86.07-1.33-.34-.31-.71-.6-1-.93-1.32-1.36-1.33-1.38-2.7,0-2.81,2.89-5.59,5.8-8.38,8.7C925.62,519.23,925.44,519.48,925.21,519.76Z" transform="translate(-639.75 -489.96)"/><path class="cls-2" d="M995.57,504.81c-.67.93-1.27,1.81-1.91,2.66s.13,1,.56,1.31c2.64,1.7,5.3,3.38,7.95,5.06l2.91,1.86c1.25.79,1.45-.51,2-1s.17-1-.3-1.32q-5.22-4.07-10.44-8.12A5.3,5.3,0,0,0,995.57,504.81Z" transform="translate(-639.75 -489.96)"/><path class="cls-1" d="M943.08,587.79a9.4,9.4,0,0,1,3,.52,8.38,8.38,0,0,1,5.3,9,8.29,8.29,0,0,1-6.78,7,54.93,54.93,0,0,1-6.55.24c-6.37,0-12.74,0-19.11,0a8.29,8.29,0,0,1-8.3-8.74,8.4,8.4,0,0,1,8.46-8.1c4,.15,7.91,0,11.86,0S939.05,587.73,943.08,587.79Zm-.26,13a4.68,4.68,0,0,0,4.91-4.69,4.76,4.76,0,0,0-5-4.69H919.15a4.7,4.7,0,0,0-1.75,9.09,6.25,6.25,0,0,0,2.25.29c3.81,0,7.61,0,11.41,0h0C935,600.82,938.9,600.83,942.82,600.81Z" transform="translate(-639.75 -489.96)"/><path class="cls-2" d="M1005.92,583.24h-5.65c-2.07,0-4.15.08-6.22,0-3.85-.21-6-3.75-4.29-7,1-2,2.88-2.51,5-2.51H1017a10.46,10.46,0,0,1,1.94.19,4.68,4.68,0,0,1,3.36,6.06,4.9,4.9,0,0,1-4.82,3.26c-3.84,0-7.68,0-11.52,0Zm-10.51-6.54c-1.46,0-2,.51-2,1.76s.66,1.84,2,1.85q10.47,0,21,0a1.78,1.78,0,0,0,2-1.87c0-1.09-.73-1.72-2-1.72-3.53,0-7.06,0-10.59,0Z" transform="translate(-639.75 -489.96)"/><path class="cls-2" d="M931.06,600.82c-3.8,0-7.6,0-11.41,0a6.25,6.25,0,0,1-2.25-.29,4.7,4.7,0,0,1,1.75-9.09h23.63a4.76,4.76,0,0,1,5,4.69,4.68,4.68,0,0,1-4.91,4.69c-3.92,0-7.84,0-11.76,0Zm-10.57-6.5c-1.52,0-2.44,1.31-1.74,2.56a2.33,2.33,0,0,0,1.58,1,40.33,40.33,0,0,0,4.26.07h16.49a3.54,3.54,0,0,0,1.56-.26,1.67,1.67,0,0,0,.86-2.06,1.8,1.8,0,0,0-1.91-1.34H931C927.48,594.31,924,594.29,920.49,594.32Z" transform="translate(-639.75 -489.96)"/><path class="cls-1" d="M929.32,524.78a2.1,2.1,0,0,0-.47,1.54c.23,4.93-1.85,8.16-6.52,9.92a1.15,1.15,0,0,0-.91,1.26c0,1.22,0,2.45,0,3.68a1.87,1.87,0,0,1-1.71,2.06,1.83,1.83,0,0,1-1.93-2c0-1.19-.06-2.39,0-3.57.05-.9-.37-1.28-1.17-1.56a9.13,9.13,0,0,1-5.73-11.9c1.37-4.06,4.93-6.26,9.3-6.13a2.53,2.53,0,0,0,1.73-.52c4-4,7.86-8.11,11.75-12.21a2.34,2.34,0,0,0,.55-1.19c.13-.75.09-1.53.18-2.29a10.08,10.08,0,0,1,12.24-8.37c5.45,1.41,8.46,6.07,7.66,11.69a3.32,3.32,0,0,0,.49,2.23c2.57,3.58,5.25,7.1,7.92,10.61a1.36,1.36,0,0,0,1,.45c1.82-.18,3.65-.39,5.45-.7a2,2,0,0,0,1.3-.85q3.12-5.51,6.08-11.11a3.43,3.43,0,0,0,.2-1.84,33.6,33.6,0,0,1-.54-3.83,10.05,10.05,0,0,1,20-1.05,3,3,0,0,0,1.26,2.21q6.28,4.86,12.53,9.78a3.2,3.2,0,0,0,2.34.59,15.38,15.38,0,0,1,4.66.23,9.3,9.3,0,0,1,.08,17.63,1.34,1.34,0,0,0-1.11,1.55c0,1.11,0,2.23,0,3.34,0,1.35-.72,2.14-1.87,2.14s-1.77-.68-1.79-2.05.06-2.46,0-3.68a1.61,1.61,0,0,0-.81-1.16c-4.23-1.47-6.34-4.47-6.71-8.86a2.17,2.17,0,0,0-.87-1.45c-3.63-2.38-7.29-4.7-11-7-1.11-.7-2.26-1.36-3.43-2.06-.22.44-.38.7-.5,1-1.77,4.25-3.5,8.52-5.34,12.73a3.52,3.52,0,0,0,.21,3.23,28.64,28.64,0,0,1,1.66,5c.2.79.53,1.11,1.3,1.11h4.73c2.06,0,2.56.51,2.56,2.61v13.83c0,3.85,0,7.69,0,11.53,0,.88.28,1.28,1.2,1.24a26.89,26.89,0,0,1,3.11,0c.94.07,1.18-.31,1.17-1.2,0-3.38,0-6.76,0-10.14,0-2.88,0-5.76,0-8.65,0-1.68.6-2.25,2.31-2.29.77,0,1.54,0,2.31,0h18.9c2,0,2.55.6,2.54,2.55s0,4.15,0,6.23c0,4.11,0,8.22,0,12.33,0,.91.27,1.27,1.19,1.18.65-.06,1.31,0,2,0,2.32,0,2.92.59,2.92,2.92v42a10.71,10.71,0,0,1,0,1.39,1.68,1.68,0,0,1-1.66,1.6c-.5,0-1,0-1.5,0H908c-2,0-2.57-.54-2.57-2.61V584.29c0-3.42.18-3.61,3.56-3.62,1.67,0,1.71,0,1.71-1.78,0-6.22,0-12.45,0-18.67,0-2,.44-2.43,2.45-2.43H934c3,0,3.39.36,3.38,3.45,0,6,0,12,0,18,0,1.13.39,1.53,1.48,1.44.73-.06,1.46,0,2.19,0,1.93,0,1.93,0,1.93-1.9V536.7a12.32,12.32,0,0,1,0-1.61,1.7,1.7,0,0,1,1.9-1.73c1.27,0,2.54,0,3.8,0,2.39,0,2.39,0,3-2.21,0-.11.07-.22.11-.33a2.45,2.45,0,0,0-.28-2.29c-1.6-2.57-3.12-5.2-4.67-7.81l-4.33-7.24C938,517.33,933.63,521,929.32,524.78Zm49.3,80.41c0,1.56,0,1.56,1.61,1.56q23.16,0,46.33,0c1.11,0,1.45-.36,1.45-1.46q0-18.62,0-37.22c0-1.73,0-1.76-1.73-1.76H993c-2,0-2.64-.62-2.64-2.72,0-8.41,0-16.82,0-25.23,0-1.07-.29-1.4-1.36-1.38q-4.44.11-8.87,0c-1.14,0-1.52.27-1.52,1.47,0,11.14,0,22.27,0,33.41h0ZM957,606.78c1.14,0,1.5-.28,1.5-1.47q0-33.42,0-66.84c0-1.18-.33-1.5-1.49-1.47-3,.07-6,0-9,0-.93,0-1.26.24-1.26,1.23q0,21.49,0,43c0,2.66-.58,3.25-3.23,3.25H910.77c-1.7,0-1.71,0-1.71,1.74,0,6.38,0,12.75,0,19.13,0,1.13.38,1.44,1.46,1.44,7.77,0,15.53,0,23.29,0S949.24,606.73,957,606.78Zm5.15-1.58c0,1.55,0,1.55,1.5,1.55,3.34,0,6.69,0,10,0,1,0,1.32-.35,1.32-1.34q0-33.54,0-67.08c0-1-.31-1.36-1.32-1.34q-5.13.06-10.26,0c-1,0-1.29.36-1.29,1.35q0,16.77,0,33.54Zm-47.67-25.71c0,.93.34,1.2,1.21,1.2q8.36,0,16.71,0c.87,0,1.24-.27,1.23-1.19q0-8.41,0-16.82c0-.87-.26-1.23-1.18-1.22q-8.42,0-16.82,0c-1,0-1.17.39-1.17,1.23,0,2.84,0,5.68,0,8.52h0C914.46,574,914.49,576.73,914.44,579.49Zm106.21-16.93c.85,0,1.17-.28,1.17-1.13q0-8.23,0-16.46c0-.74-.28-1-1-1q-8.29,0-16.58,0c-.8,0-1.08.32-1.08,1.1q0,8.18,0,16.35c0,1,.44,1.17,1.27,1.16,2.73,0,5.46,0,8.18,0S1018,562.52,1020.65,562.56Zm-40.25-29.2c1.55,0,1.64-.11,1.24-1.56a13.55,13.55,0,0,0-26.38.58c-.22,1,.39,1,1.06,1H980.4Zm6-39.22a6.38,6.38,0,1,0,6.25,6.37A6.38,6.38,0,0,0,986.35,494.14ZM944.43,497a6.41,6.41,0,1,0-.08,12.82c3.57,0,6.58-3.24,6.29-6.43C951,500.38,948,497,944.43,497Zm64.14,24a5.56,5.56,0,0,0,11.12-.23,5.53,5.53,0,0,0-5.64-5.46A5.47,5.47,0,0,0,1008.57,521Zm-88.92,12a5.79,5.79,0,0,0,5.57-5.64,5.71,5.71,0,0,0-5.66-5.51,5.58,5.58,0,0,0-5.51,5.6A5.66,5.66,0,0,0,919.65,533ZM954,525.33c.34-.28.6-.47.83-.68,1.33-1.25,2.64-2.54,4-3.76.52-.47.69-.82.23-1.43-2.18-2.87-4.33-5.76-6.48-8.65-.35-.47-.64-.53-1.14-.18-1.36,1-2.76,1.87-4.4,3Q950.37,519.26,954,525.33Zm28.7-8.6c.67-1.59,1.34-3.18,2-4.77.47-1.17.29-1.33-.85-1.68a17,17,0,0,1-3.24-1.42c-.73-.4-1.13-.37-1.55.41-1.51,2.84-3.1,5.64-4.61,8.48-.15.28-.08,1,.12,1.1,1.88,1.09,3.8,2.11,5.89,3.24C981.15,520.31,981.91,518.52,982.66,516.73Zm-53.84,3.46c3-2.58,6-5.12,9-7.65.53-.45.59-.86.07-1.33-.34-.31-.71-.6-1-.93-1.32-1.36-1.33-1.38-2.7,0-2.81,2.89-5.59,5.8-8.38,8.7-.21.22-.39.47-.62.75C927.28,522.07,927,521.78,928.82,520.19Zm64.84-12.72c-.6.79.13,1,.56,1.31,2.64,1.7,5.3,3.38,7.95,5.06l2.91,1.86c1.25.79,1.45-.51,2-1s.17-1-.3-1.32q-5.22-4.07-10.44-8.12a5.3,5.3,0,0,0-.78-.42C994.9,505.74,994.3,506.62,993.66,507.47Z" transform="translate(-639.75 -489.96)"/><path class="cls-1" d="M993.55,586.82a8.35,8.35,0,0,1-7.71-11c1.33-3.73,4.39-5.85,8.72-5.87,7.53-.05,15.06-.07,22.59,0,5.46,0,9,3.53,9.08,8.62a8.39,8.39,0,0,1-8.25,8.29c-4.07-.14-8.14,0-12.21,0Zm23.89-3.59a4.9,4.9,0,0,0,4.82-3.26,4.68,4.68,0,0,0-3.36-6.06,10.46,10.46,0,0,0-1.94-.19H994.72c-2.08,0-3.92.54-5,2.51-1.72,3.24.44,6.78,4.29,7,2.07.11,4.15,0,6.22,0h5.65C1009.76,583.24,1013.6,583.26,1017.44,583.23Z" transform="translate(-639.75 -489.96)"/><path class="cls-1" d="M983.27,500.52a3,3,0,0,0,6,.09,3,3,0,1,0-6-.09Z" transform="translate(-639.75 -489.96)"/><path class="cls-1" d="M941.37,503.43a2.84,2.84,0,0,0,3,2.94,2.93,2.93,0,0,0,3-3,3.07,3.07,0,0,0-3-3A3,3,0,0,0,941.37,503.43Z" transform="translate(-639.75 -489.96)"/><path class="cls-1" d="M1005.77,576.7H995.41c-1.46,0-2,.51-2,1.76s.66,1.84,2,1.85q10.47,0,21,0a1.78,1.78,0,0,0,2-1.87c0-1.09-.73-1.72-2-1.72C1012.83,576.69,1009.3,576.7,1005.77,576.7Z" transform="translate(-639.75 -489.96)"/><path class="cls-1" d="M931,594.31c-3.5,0-7,0-10.49,0-1.52,0-2.44,1.31-1.74,2.56a2.33,2.33,0,0,0,1.58,1,40.33,40.33,0,0,0,4.26.07h16.49a3.54,3.54,0,0,0,1.56-.26,1.67,1.67,0,0,0,.86-2.06,1.8,1.8,0,0,0-1.91-1.34Z" transform="translate(-639.75 -489.96)"/><path class="cls-3" d="M1216.34,527.1c1.25-1.48,9.33-3.29,10.77-2.48Z" transform="translate(-639.75 -489.96)"/><path class="cls-3" d="M1238.06,598.42c-1.38.32-2.77.59-4.13,1s-2.19-.16-2.46-1.56c0-.16-.07-.32-.11-.48-.62-2.59-.53-2.75,2-3.34,2.71-.62,5.42-1.21,8.11-1.88,1.29-.32,2,.1,2.25,1.37.1.48.21,1,.34,1.44.35,1.37-.08,2.2-1.54,2.48S1239.54,598.08,1238.06,598.42Z" transform="translate(-639.75 -489.96)"/><path class="cls-3" d="M1242.16,579a7.89,7.89,0,1,1-15.36,3.63,7.89,7.89,0,1,1,15.36-3.63ZM1228,582.23a6.6,6.6,0,1,0,4.91-8A6.62,6.62,0,0,0,1228,582.23Z" transform="translate(-639.75 -489.96)"/><path class="cls-3" d="M1233,539.07a7.89,7.89,0,1,1-15.43,3.29,7.89,7.89,0,1,1,15.43-3.29Zm-1.25.37a6.6,6.6,0,1,0-5.15,7.79A6.42,6.42,0,0,0,1231.72,539.44Z" transform="translate(-639.75 -489.96)"/><path class="cls-3" d="M1222.16,562.46a7.9,7.9,0,1,1,15.41-3.44,7.89,7.89,0,1,1-15.41,3.44Zm14.14-3.15a6.59,6.59,0,1,0-5,7.92A6.53,6.53,0,0,0,1236.3,559.31Z" transform="translate(-639.75 -489.96)"/><path class="cls-3" d="M1217.48,568.31l-7.5-32.59c-.88-3.85.21-6,3.77-7.81a1.55,1.55,0,0,0,.75-1.18,1.87,1.87,0,0,1,1.58-2.28q5.16-1.25,10.34-2.38a1.86,1.86,0,0,1,2.35,1.24,2,2,0,0,0,1.4.91c3.37.36,5.21,1.89,6,5.25q7.59,32.91,15.15,65.82c.92,4-.88,6.89-4.85,7.84q-6.75,1.61-13.52,3.11c-4.06.91-6.93-.93-7.87-5Q1221.26,584.78,1217.48,568.31Zm1.87-.32q3.76,16.38,7.55,32.76c.75,3.24,2.51,4.35,5.71,3.62,4.25-1,8.49-2,12.73-2.93,3.92-.9,4.92-2.49,4-6.46-2-8.79-4-17.57-6.06-26.36q-4.44-19.25-8.89-38.5c-.79-3.42-2.43-4.39-5.82-3.62l-12.88,3c-3.74.87-4.68,2.36-3.82,6.1Q1215.6,551.78,1219.35,568Z" transform="translate(-639.75 -489.96)"/><path class="cls-3" d="M1216.47,510.87c-.78-3.41-1.63-6.81-2.33-10.24a6.33,6.33,0,0,1,3.83-7.19,6.17,6.17,0,0,1,7.35,2.34,7.53,7.53,0,0,1,1,2.4c.77,3.14,1.46,6.29,2.19,9.43.61,2.6,2,3.73,4,3.26s2.71-2.13,2.11-4.75c-1-4.53-2.06-9.06-3.13-13.59-.24-1-.3-1.75,1-2s1.52.3,1.75,1.3c1.11,5,2.3,9.9,3.38,14.87a6,6,0,0,1-10.68,4.91,9.15,9.15,0,0,1-1.29-3.14c-.8-3.13-1.45-6.29-2.22-9.42-.53-2.14-2-3.14-3.76-2.8a3,3,0,0,0-2.48,3.87c1,4.33,2,8.64,3,13,.57,2.5,1.11,5,1.74,7.51.3,1.16-.15,1.56-1.2,1.8s-1.63.1-1.88-1.08c-.74-3.48-1.58-6.93-2.37-10.4Z" transform="translate(-639.75 -489.96)"/><path class="cls-3" d="M1231,580.38a1.17,1.17,0,0,1-.1-.47c.08-.52.21-1,.31-1.53.32.42.65.84,1,1.29a.69.69,0,0,1,.11.47c-.06.68-.15,1.35-.23,2l-1.26-1.63Z" transform="translate(-639.75 -489.96)"/><path class="cls-3" d="M1237.43,579a2.15,2.15,0,0,1,.16.8,7.77,7.77,0,0,1-.44,1.19,6.54,6.54,0,0,1-.78-.89,1.32,1.32,0,0,1-.19-.78c0-.72.15-1.43.23-2.14l1.24,1.67Z" transform="translate(-639.75 -489.96)"/><path class="cls-3" d="M1221.53,540.25l.41-2c.39.61.78,1.22,1.14,1.84a.83.83,0,0,1,.11.48c-.08.47-.2.94-.31,1.41a13.18,13.18,0,0,1-.92-1.06,1.72,1.72,0,0,1-.16-.62Z" transform="translate(-639.75 -489.96)"/><path class="cls-3" d="M1228.18,538.9a5.07,5.07,0,0,1,.23,1.12c0,.27-.25.52-.39.79-.28-.19-.7-.32-.8-.57a6.29,6.29,0,0,1-.46-1.9,4.31,4.31,0,0,1,.29-1.27,10.26,10.26,0,0,1,1,1,2.19,2.19,0,0,1,.2.79Z" transform="translate(-639.75 -489.96)"/><path class="cls-3" d="M1227.68,560.1a2.59,2.59,0,0,1,.19.95,3.71,3.71,0,0,1-.5,1c-.24-.25-.59-.46-.7-.76a9.67,9.67,0,0,1-.47-2,2.62,2.62,0,0,1,.32-1,1.84,1.84,0,0,1,1.16,1.82Z" transform="translate(-639.75 -489.96)"/><path class="cls-3" d="M1232.81,559a2.27,2.27,0,0,1,.16.79,6.48,6.48,0,0,1-.35,1.11c-.3-.3-.71-.55-.89-.92a4.19,4.19,0,0,1-.36-1.57,4.53,4.53,0,0,1,.31-1.27,6.37,6.37,0,0,1,.89.91A2.89,2.89,0,0,1,1232.81,559Z" transform="translate(-639.75 -489.96)"/><path class="cls-3" d="M1231.83,564.09c-.44.45-.68.9-1,.93s-.94-.37-.92-.51a3.89,3.89,0,0,1,.58-1.15Z" transform="translate(-639.75 -489.96)"/><circle class="cls-1" cx="47.75" cy="203.54" r="7.5"/><circle class="cls-1" cx="331.75" cy="205.54" r="7.5"/><circle class="cls-1" cx="611.75" cy="203.54" r="7.5"/><rect class="cls-1" x="47.25" y="204.04" width="565" height="2"/><rect class="cls-4" x="1262.56" y="522.12" width="55.14" height="89.77" rx="12.23" transform="translate(-241.29 -1014.22) rotate(27.02)"/><rect class="cls-4" x="1286.41" y="526.23" width="9.9" height="10.78" rx="2.94" transform="translate(-257.23 -1018.64) rotate(27.02)"/><path class="cls-5" d="M1278.38,590.08a18.33,18.33,0,1,1,24.66-8A18.36,18.36,0,0,1,1278.38,590.08ZM1272,564.71c-2.32,4.46-2.88,7.91-2.34,11.52a17,17,0,0,0,7.15,11.62c.34.25.53.19.71-.16a4.13,4.13,0,0,1,4.56-2.21,4.37,4.37,0,0,0,4.69-2.33,5.67,5.67,0,0,1,3.37-2.64,4,4,0,0,1,5.25,3.51,5,5,0,0,0,1.27,3.11c.24.3.43.32.69.07.7-.65,1.42-1.28,2.09-2s.55-.9.16-1.59a4.28,4.28,0,0,0-2.81-1.91,3.71,3.71,0,0,1-2.24-1.83,1.77,1.77,0,0,1,1.07-2.68,4.11,4.11,0,0,1,1.26-.16,26.06,26.06,0,0,0,6.22-.8c.38-.08.65-.26.67-.67s0-1.1.07-1.64-.15-.51-.51-.47c-.53,0-1.06.11-1.58.13a4.5,4.5,0,0,1-3.57-1.11c-.57-.55-1.14-1.09-1.73-1.62-.88-.78-1.73-1.46-3.1-1a2.46,2.46,0,0,1-2.92-1.11c-.58-.88-1.1-.55-1.5.06a9.92,9.92,0,0,0-1.52,4.15c-.12.86-.23,1.73-.38,2.59a4.23,4.23,0,0,1-2.71,3.34,2.82,2.82,0,0,1-3.39-.66,6.7,6.7,0,0,1-.81-1.14,2,2,0,0,0-2.51-.93,12.11,12.11,0,0,1-2.39.36,1.74,1.74,0,0,1-1.79-1.47,3.8,3.8,0,0,1,1.1-3.57,22.51,22.51,0,0,1,2-1.77,6.13,6.13,0,0,0,2.6-4.81,3.43,3.43,0,0,1,2-3.34,2.62,2.62,0,0,0,.57-.45,11.08,11.08,0,0,0,3.13-3.77,2.77,2.77,0,0,0,.13-.57,2.2,2.2,0,0,0-.56-.07C1278.56,557.57,1274.24,560.7,1272,564.71Zm22.47-6.28a16.83,16.83,0,0,0-7.58-1.88.64.64,0,0,0-.74.54,5.94,5.94,0,0,1-.59,1.4,12.86,12.86,0,0,1-3.83,4,3,3,0,0,0-1.47,2.55,6.11,6.11,0,0,1-1.53,4.09,40.62,40.62,0,0,1-3.06,2.8,3.36,3.36,0,0,0-1.17,2c-.19,1,.24,1.49,1.25,1.41.56,0,1.11-.24,1.66-.33a5.36,5.36,0,0,1,1.37-.14,3.16,3.16,0,0,1,2.45,1.82,2,2,0,0,0,2,1.22,2.79,2.79,0,0,0,2.46-2,12.69,12.69,0,0,0,.42-2.09,13.11,13.11,0,0,1,1.6-5.4c1-1.67,2.47-1.93,3.5-.51a1.86,1.86,0,0,0,2.38.71,2,2,0,0,1,1.87.22,24.35,24.35,0,0,1,2.71,2.15,4.4,4.4,0,0,0,3.29,1.46c.47,0,.93-.07,1.4-.1.88-.07.92-.1.78-1A17,17,0,0,0,1294.5,558.43Zm1.44,29.76a.94.94,0,0,0-.1-.26,8.05,8.05,0,0,1-1.66-4.38,2.55,2.55,0,0,0-2.29-2.06,4.21,4.21,0,0,0-3.73,1.68,20.28,20.28,0,0,1-1.83,2.26,5.4,5.4,0,0,1-4.57,1.18,3,3,0,0,0-3.14,1.45c-.34.53-.27.71.29,1a16.89,16.89,0,0,0,13.32,1A12.68,12.68,0,0,0,1295.94,588.19Zm7.51-10.78-.6.08a24.52,24.52,0,0,1-6.09.73,2.39,2.39,0,0,0-.6,0c-.64.14-.84.56-.54,1.13a2.87,2.87,0,0,0,1.62,1.29,10,10,0,0,1,2.29,1.2,9.76,9.76,0,0,1,1.43,1.49A17.21,17.21,0,0,0,1303.45,577.41Z" transform="translate(-639.75 -489.96)"/></svg>