<svg id="Layer_1" data-name="Layer 1" xmlns="http://www.w3.org/2000/svg" viewBox="0 0 189.06 145.48"><defs><style>.cls-1{fill:#2a4253;}.cls-2{fill:#54bde5;}.cls-3{fill:#4fb8e1;}.cls-4{fill:#efb252;}.cls-5{fill:#e75441;}.cls-6{fill:#28ac97;}.cls-7{fill:#334759;}.cls-8{fill:#546979;}.cls-9{fill:#5c6e7c;}.cls-10{fill:#526777;}.cls-11{fill:#f3c75e;}.cls-12{fill:#e9784f;}.cls-13{fill:#56bcad;}</style></defs><title>export</title><path class="cls-1" d="M878.53,560.54l-.24-.44,0-1.2q17.44,0,34.91,0a12.78,12.78,0,0,0,2.77-.14,3.44,3.44,0,0,0,2.74-3.7c0-1.83-1-2.59-2.68-2.95a18,18,0,0,0-3.86-.42c-11.17,0-22.34,0-33.51,0-1.11,0-2.21.18-3.32.28-.19-.2-.46-.37-.57-.6q-4.54-9.87-9.08-19.75c-.64-1.41,0-1.81,1.34-1.88s2.8.45,4.07-.46c11.8,0,23.6,0,35.4,0,3.32,0,6.67.27,10-.54H917c0,1,.55,1.22,1.41.88h24l1.65.11,38.17-.06,1.91,0q18.92,0,37.82,0a6.5,6.5,0,0,0,1.34-.27l31.17.17c.06-.35-9,20.43-8.69,21.2l-.3.79c-5.58,0-11.16,0-16.74.07-2.48,0-4.41,1.82-4.39,3.81,0,1.73,2.1,3.35,4.4,3.37,3.44,0,6.89,0,10.33,0,1,0,2.09-.22,2.78.84q-4.48,10-9,19.95c-1.74,3.87-3.45,7.76-5.17,11.64-5.23.26-9.87-1.06-13.76-4.77a3.66,3.66,0,0,0-5.51.08c-2.77,2.83-6.27,4-10,4.57-6.17.93-12.13.11-17.07-4.09-2.49-2.11-4-2.33-6.39-.06-6.32,6-20.24,5.93-26.58,0-2.25-2.11-4-2.19-6.36-.17a12.71,12.71,0,0,1-3.35,2.44c-8.45,3.57-16.48,3.21-23.93-2.49-2-1.5-3.73-1.71-5.77-.08a21.22,21.22,0,0,1-16.19,4.63c-2.49-7.83-6.79-14.87-9.88-22.45C881.82,566,880.87,562.86,878.53,560.54Z" transform="translate(-865.42 -466.12)"/><path class="cls-2" d="M1027.72,611.46a27.3,27.3,0,0,1-14.64-3.89,2.89,2.89,0,0,0-3.11-.25c-10.17,5.49-20.34,5.84-30.5-.09-1.09-.63-2.06-.26-3.12.34-9.32,5.16-18.8,5.33-28.28.54a5.63,5.63,0,0,0-5.87.06,28.2,28.2,0,0,1-26.53.23c-2.5-1.23-4.38-1.61-7.16-.23-10.86,5.39-21.43,4.27-31.38-2.58-1.63-1.13-3.16-2.54-1.93-4.89,1-2,3-2.41,5.2-1.05a33.06,33.06,0,0,0,9.52,4.52c6.92,1.71,13.16,0,18.75-4,2.71-1.92,4.61-1.32,7,.33,7.55,5.26,15.85,6.24,23.57,1.34,4.68-3,7.52-3,12.07.09,7.08,4.77,17.48,3.74,24.13-2.11,1.88-1.65,3.82-1.56,5.75.14,7.3,6.43,19.54,6.46,27,.08,1.9-1.63,3.83-2,5.78-.3,8.13,6.9,18.6,6.12,26.19,1.28.87-.55,1.68-1.17,2.54-1.73a3.12,3.12,0,0,1,4.48.74,3.08,3.08,0,0,1-.26,4.31c-1.76,2-4.18,3.1-6.48,4.27A26.1,26.1,0,0,1,1027.72,611.46Z" transform="translate(-865.42 -466.12)"/><path class="cls-3" d="M892.88,591.34a21.22,21.22,0,0,0,16.19-4.63c2-1.63,3.81-1.42,5.77.08,7.45,5.7,15.48,6.06,23.93,2.49a12.71,12.71,0,0,0,3.35-2.44c2.34-2,4.11-1.94,6.36.17,6.34,6,20.26,6,26.58,0,2.41-2.27,3.9-2,6.39.06,4.94,4.2,10.9,5,17.07,4.09,3.68-.55,7.18-1.74,10-4.57a3.66,3.66,0,0,1,5.51-.08c3.89,3.71,8.53,5,13.76,4.77,4.89.47,9.11-1.32,13.1-3.88.7-.45,1.34-1,2.05-1.43a3,3,0,0,1,4.35,1.07,3.14,3.14,0,0,1-.74,4.47,29.3,29.3,0,0,1-32.64,3.17,4.36,4.36,0,0,0-4.84-.2c-9.64,5.16-19.38,5.14-29-.22a3.49,3.49,0,0,0-3.87.11c-9.85,5.5-19.73,5.13-29.47-.23-1.76-1-2.84-.12-4.09.55-7.44,4-15.5,5.36-23.07,1.83-5.77-2.7-10.16-1.92-15.72.19-9.74,3.68-19,1.27-27.29-5-1.73-1.31-2.19-3.21-.84-4.89s3.25-1.63,5-.28a21.61,21.61,0,0,0,11.17,4.63Z" transform="translate(-865.42 -466.12)"/><path class="cls-4" d="M944.34,503.38c.55-1.18,1.62-.69,2.47-.71,3.07-.05,6.14.06,9.21,0,4.54-.14,9.09.45,13.61-.34,1-4.58.24-9.23.43-13.84.13-3.07.13-6.15,0-9.21-.09-2.21.73-2.92,2.92-2.9q16.75.12,33.51,0c2.43,0,3.28.89,3.25,3.3-.09,7.72,0,15.45,0,23.18-7.66.53-15.32.08-23,.23-1.19,0-2.42-.22-3.5.52-4-1.1-8.16-.72-12.19-.41C962.15,503.86,953.25,503.51,944.34,503.38Zm51.65-11c2.45.39,4-.08,3.77-3.09s-.43-3.21-4.92-3.39c-2.47-.1-1.67,1.89-1.82,3.2C992.78,491.27,993.06,493.06,996,492.34Zm-15.84-3.41c0,3.48,0,3.31,3.12,3.53,2.51.17,3.24-.71,3.09-3.14-.2-3.11-.51-3.53-4.7-3.36C979.38,486.05,980.48,488,980.15,488.93Z" transform="translate(-865.42 -466.12)"/><path class="cls-5" d="M944.34,503.38c8.91.13,17.81.48,26.72-.22,4-.31,8.16-.69,12.19.41l.15,24.61-1.16,1.48-38.17.06-.52-.79c0-7.75-.24-15.51.14-23.26C943.73,504.86,943.57,504,944.34,503.38Zm12.73,15.25c2.51.59,3-.67,3.07-3,.12-2.78-1-3.16-3.41-3.17s-3.47.61-3.47,3.29C953.25,518.68,954.79,518.91,957.07,518.63Zm12.9,0c2.55.46,3.52-.45,3.56-3.12,0-3-1.53-2.94-3.7-3-2.43-.12-3.17.61-3.18,3.11C966.63,518.21,967.46,519.19,970,518.62Z" transform="translate(-865.42 -466.12)"/><path class="cls-6" d="M983.4,528.18l-.15-24.61c1.08-.74,2.31-.49,3.5-.52,7.65-.15,15.31.3,23-.23A59.71,59.71,0,0,0,1020,503c2.27-.07,2.93.85,2.93,2.89,0,6.68,0,13.35,0,20a9.16,9.16,0,0,0,.38,3.57,7.2,7.2,0,0,1-1.34.26q-18.91,0-37.82,0Zm26.08-9.06c2.54.59,3.77-.21,3.75-3.23,0-2.73-1-3.48-3.56-3.44s-4,.29-3.87,3.4C1005.88,518.51,1006.61,519.72,1009.48,519.12Zm-16.4-3.28c-.49,2.41.13,3.63,2.95,3.44,3.57-.23,3.51-.16,3.73-3.52.2-3-1.27-3.22-3.67-3.32C993.36,512.33,992.53,513.35,993.08,515.84Z" transform="translate(-865.42 -466.12)"/><path class="cls-7" d="M916.44,528.74c-3.29.81-6.64.54-10,.54-11.8,0-23.6,0-35.4,0l-.25-.67c0-5.66.15-11.32.08-17,0-1.9.49-2.62,2.48-2.54,3.34.13,6.68,0,10,0l.63.12,26.33-.06,1.1-.06,3.86.23a1,1,0,0,0,1.12,1Q916.45,519.52,916.44,528.74Z" transform="translate(-865.42 -466.12)"/><path class="cls-8" d="M1041.87,559.73c-.69-1.06-1.78-.83-2.78-.84-3.44,0-6.89,0-10.33,0-2.3,0-4.37-1.64-4.4-3.37,0-2,1.91-3.77,4.39-3.81,5.58-.08,11.16-.06,16.74-.07A33.24,33.24,0,0,1,1041.87,559.73Z" transform="translate(-865.42 -466.12)"/><path class="cls-1" d="M900.76,468.92c.56-1.14.56-2.26,2.28-2.72a3.56,3.56,0,0,1,3.86,1.64q0,10.61,0,21.21c-2,1.32-4-.41-6,.19Q900.87,479.07,900.76,468.92Z" transform="translate(-865.42 -466.12)"/><path class="cls-1" d="M887.34,475.63c.56-1.14.56-2.26,2.28-2.72a3.56,3.56,0,0,1,3.86,1.64l0,21.21c-1.94,1.32-4-.41-5.94.19Q887.45,485.78,887.34,475.63Z" transform="translate(-865.42 -466.12)"/><path class="cls-9" d="M916.44,528.74q0-9.22,0-18.45c0-.34,0-.68,0-1,.77,0,.87.63.87,1.16-.11,6.1.42,12.2-.28,18.29Z" transform="translate(-865.42 -466.12)"/><path class="cls-1" d="M916.41,509.28c0,.33,0,.67,0,1a1,1,0,0,1-1.12-1Z" transform="translate(-865.42 -466.12)"/><path class="cls-9" d="M918.41,529.61c-.86.34-1.4.15-1.41-.88A1.91,1.91,0,0,1,918.41,529.61Z" transform="translate(-865.42 -466.12)"/><path class="cls-9" d="M943.55,528.93l.52.79-1.65-.11A1.33,1.33,0,0,1,943.55,528.93Z" transform="translate(-865.42 -466.12)"/><path class="cls-10" d="M878.27,558.9,875.33,552c1.1-.1,2.2-.28,3.31-.28,11.17,0,22.34,0,33.51,0a18,18,0,0,1,3.86.42c1.71.36,2.71,1.12,2.68,2.95a3.44,3.44,0,0,1-2.74,3.7,12.78,12.78,0,0,1-2.77.14Q895.72,558.91,878.27,558.9Z" transform="translate(-865.42 -466.12)"/><path class="cls-9" d="M983.4,528.18l.75,1.51-1.91,0Z" transform="translate(-865.42 -466.12)"/><path class="cls-11" d="M996,492.34c-2.93.72-3.21-1.07-3-3.28.15-1.31-.65-3.3,1.82-3.2,4.49.18,4.7.51,4.92,3.39S998.44,492.73,996,492.34Z" transform="translate(-865.42 -466.12)"/><path class="cls-11" d="M980.15,488.93c.33-.94-.77-2.88,1.51-3,4.19-.17,4.5.25,4.7,3.36.15,2.43-.58,3.31-3.09,3.14C980.16,492.24,980.15,492.41,980.15,488.93Z" transform="translate(-865.42 -466.12)"/><path class="cls-12" d="M957.07,518.63c-2.28.28-3.82,0-3.81-2.9,0-2.68,1-3.29,3.47-3.29s3.53.39,3.41,3.17C960,518,959.58,519.22,957.07,518.63Z" transform="translate(-865.42 -466.12)"/><path class="cls-12" d="M970,518.62c-2.51.57-3.34-.41-3.32-3.06,0-2.5.75-3.23,3.18-3.11,2.17.11,3.74.09,3.7,3C973.49,518.17,972.52,519.08,970,518.62Z" transform="translate(-865.42 -466.12)"/><path class="cls-13" d="M1009.48,519.12c-2.87.6-3.6-.61-3.68-3.27-.1-3.11,1.38-3.36,3.87-3.4s3.54.71,3.56,3.44C1013.25,518.91,1012,519.71,1009.48,519.12Z" transform="translate(-865.42 -466.12)"/><path class="cls-13" d="M993.08,515.84c-.55-2.49.28-3.51,3-3.4,2.4.1,3.87.36,3.67,3.32-.22,3.36-.16,3.29-3.73,3.52C993.21,519.47,992.59,518.25,993.08,515.84Z" transform="translate(-865.42 -466.12)"/><path class="cls-9" d="M883.54,489.66l3.18-.08,6.38-.62c2.43,1.14,4.93.78,7.43.27,2-.59,4.16,1.14,6.17-.18,1,.68,2.25.5,3.4.65q.07,9.71.17,19.42l-27.35.06c1-2.88.36-5.84.48-8.76C883.54,496.84,883.5,493.25,883.54,489.66Z" transform="translate(-865.42 -466.12)"/></svg>