<svg id="Layer_1" data-name="Layer 1" xmlns="http://www.w3.org/2000/svg" viewBox="0 0 149.78 149.77"><defs><style>.cls-1{fill:#0549aa;}</style></defs><title>fan</title><path class="cls-1" d="M884.91,539.72a29.81,29.81,0,0,0,0-4,3.11,3.11,0,0,1,.25-1.51l.56-5.56,1.17-6c.27-.4,0-.85.11-1.27.87-1.22,1-2.7,1.33-4.09l2-5.46q1.21-2.78,2.42-5.53h0l3.3-5.92a23.9,23.9,0,0,0,2.33-3.47,5.4,5.4,0,0,0,1.19-1.69,86.11,86.11,0,0,1,9.69-10.6c1.87-1.65,3.8-3.24,5.7-4.86a9.71,9.71,0,0,0,2.42-1.78,14,14,0,0,0,3.11-2c1.55-.83,3.12-1.65,4.65-2.52.42-.24,1.07-.25,1.11-.95l-.06.08.07.06c2-.48,3.76-1.64,5.67-2.4l5.47-1.95,4.05-1.13a5.91,5.91,0,0,0,2.07-.49l4.93-.93,5.84-.63,5.52-.27,5.83.3,5.23.56,5.85,1.13.57.08,5,1.39,5.17,1.85A115.56,115.56,0,0,1,999.1,476l2.92,2,2.62,1.77,5.23,4.24a.78.78,0,0,0,.51.57l4.58,4.6a.73.73,0,0,0,.57.5l4.23,5.23a6.88,6.88,0,0,0,1.49,2,21.46,21.46,0,0,0,2.29,3.52,116.62,116.62,0,0,1,5.85,11.67c.61,1.73,1.23,3.45,1.85,5.18l1.38,5,.08.56,1.14,5.86.55,5.22.3,5.84-.12,3.47a.5.5,0,0,0-.06.63l-.1,1.42-.7,6.15-.17,1.15a1,1,0,0,0-.19.89l-.14.85a.53.53,0,0,0-.19.61l-.11.84a7,7,0,0,0-.55,2.34l-1.11,4.06q-1,2.73-2,5.46-1.14,2.61-2.29,5.21a1.63,1.63,0,0,0-.54,1l-2.6,4.64-2.61,4.11a7.6,7.6,0,0,0-1.45,2.06c-2.32,2.65-4.51,5.4-7,7.9s-5.39,4.83-8.13,7.2a9.14,9.14,0,0,0-2.42,1.77c-1.29.81-2.78,1.34-3.75,2.6a21.66,21.66,0,0,0-5.2,2.72l.08,0c-2,.48-3.7,1.59-5.57,2.33l-5.58,2-4.92,1.39a1.37,1.37,0,0,0-1.19.22l-4.94.93-5.84.63-5.51.27-5.84-.3-5.23-.56-5.86-1.09-.55-.12-5-1.39a46.83,46.83,0,0,0-5.39-1.83c-2.94-1.46-5.89-2.92-8.82-4.41-.9-.45-1.77-1-2.65-1.44l-3.13-2.05a12.06,12.06,0,0,0-2.41-1.73l-4.62-3.78-1.23-1.13c-1.44-1.47-3.07-2.76-4.37-4.37l-1.12-1.24-3.78-4.62a10.78,10.78,0,0,0-1.73-2.4l-2-3.14a88.2,88.2,0,0,1-5.79-11.74c0-.1-.24-.15-.36-.22a22,22,0,0,0-1.55-4.88l-1.39-5-.08-.57-1.13-5.56-.6-5.8Zm84.5,68.42a3.24,3.24,0,0,0,1.48-.21,6.7,6.7,0,0,0,2.89-.64l2.32-.36a34.82,34.82,0,0,0,6.14-1.88,6.32,6.32,0,0,1,.9-.37,46.1,46.1,0,0,0,10.21-4.58,31,31,0,0,0,5.77-3.61,2.21,2.21,0,0,0,1.12-.85,20.57,20.57,0,0,0,4.43-3.44,8.38,8.38,0,0,0,2.31-2.09,13.82,13.82,0,0,0,3.22-3.21,7.73,7.73,0,0,0,2.1-2.31,51,51,0,0,0,7.9-11.31,9.31,9.31,0,0,0,1.39-2.67,9.51,9.51,0,0,0,1.39-2.93,23.28,23.28,0,0,0,2.13-5.52,26.11,26.11,0,0,0,1.74-5.81,8.89,8.89,0,0,0,.51-2.65,9.17,9.17,0,0,0,.7-3.23l.18-1.43a.94.94,0,0,0,.17-.9l.21-2.58a24.73,24.73,0,0,0,.23-5.83,28.29,28.29,0,0,0-.13-5.52,45.26,45.26,0,0,0-.78-6.13l-.58-2.91a5.37,5.37,0,0,0-.58-2.35,22.56,22.56,0,0,0-1.67-5.56,52.94,52.94,0,0,0-5.24-11.7,31.23,31.23,0,0,0-3.29-5.15.77.77,0,0,0-.48-.61,24.56,24.56,0,0,0-3.82-5c-.6-.77-1-1.7-2-2.07a11.75,11.75,0,0,0-3.21-3.45,9.43,9.43,0,0,0-2.33-2.08,24,24,0,0,0-5-3.84c0-.19-.14-.24-.31-.19a27.38,27.38,0,0,0-5.45-3.57,20.73,20.73,0,0,0-3.85-2,6.48,6.48,0,0,0-2-.93,29.1,29.1,0,0,0-5.92-2.28,24,24,0,0,0-5.55-1.66,6.45,6.45,0,0,0-2.36-.58,15.07,15.07,0,0,0-3.19-.59,32.87,32.87,0,0,0-5.85-.75,27.43,27.43,0,0,0-5.51-.16,26.32,26.32,0,0,0-5.54.16l-5.55.68a6.72,6.72,0,0,0-2.89.63l-2.31.36a34.73,34.73,0,0,0-6.15,1.9,22.26,22.26,0,0,0-5.51,2.14,9.45,9.45,0,0,0-2.93,1.41,9,9,0,0,0-2.67,1.38,52.6,52.6,0,0,0-11.32,7.92,8.27,8.27,0,0,0-2.3,2.07,13.82,13.82,0,0,0-3.22,3.21,8.26,8.26,0,0,0-2.1,2.31,51.32,51.32,0,0,0-7.91,11.31,9,9,0,0,0-1.38,2.68,9.42,9.42,0,0,0-1.4,2.93,22.21,22.21,0,0,0-2.12,5.51,26.29,26.29,0,0,0-1.75,5.81,10.54,10.54,0,0,0-.55,2.94,5.76,5.76,0,0,0-.58,2.61,19.88,19.88,0,0,0-.64,5.53,22.42,22.42,0,0,0-.23,5.55,30.73,30.73,0,0,0,.13,5.51,35,35,0,0,0,.76,5.85,14,14,0,0,0,.6,3.2,5.77,5.77,0,0,0,.58,2.34,23.08,23.08,0,0,0,1.67,5.57,27.88,27.88,0,0,0,2.3,5.9,8.25,8.25,0,0,0,1.25,2.52,13.56,13.56,0,0,0,1.7,3.27,26.42,26.42,0,0,0,3.56,5.44.24.24,0,0,0,.21.33,24.2,24.2,0,0,0,3.82,5,10.87,10.87,0,0,0,2,2.34,23.63,23.63,0,0,0,3.52,3.48,7.59,7.59,0,0,0,2,1.78,24.81,24.81,0,0,0,4.36,3.47,5,5,0,0,0,1.52,1.09,32.78,32.78,0,0,0,4.84,3,19.81,19.81,0,0,0,3.85,2,6.51,6.51,0,0,0,1.95.94,28.85,28.85,0,0,0,5.92,2.27,22.77,22.77,0,0,0,5.55,1.66,6.17,6.17,0,0,0,2.35.59,15.15,15.15,0,0,0,3.2.58,32.85,32.85,0,0,0,5.85.74,25.37,25.37,0,0,0,5.51.18,28.64,28.64,0,0,0,7-.32l1.72-.14A1,1,0,0,0,969.41,608.14Z" transform="translate(-884.91 -464.84)"/><path class="cls-1" d="M954,477.94l5.89.23a.17.17,0,0,0,0-.18,34.78,34.78,0,0,0,5.72,1.09l5.53,2.08,4.05,2.74,1.47,1.66a23.44,23.44,0,0,1,2.08,3.47,27.49,27.49,0,0,1,2,6.12l.19,1.72a.51.51,0,0,0,.06.62l.13,2.89-.36,5.86a39.8,39.8,0,0,0-1.1,5.51l-1.56,5.55c-1,2.67-1.86,5.39-3,8a2.3,2.3,0,0,0,.59,3.14,1.26,1.26,0,0,0,.64.82l2.22,5,.36,1.85c.53,2.69.53,2.69,3.31,3.21A16.11,16.11,0,0,0,986,540a2.38,2.38,0,0,0,1.72.35,21.74,21.74,0,0,0,5.55.78,32,32,0,0,0,5.86.5,34.82,34.82,0,0,0,5.5.06l5.52.12a18.81,18.81,0,0,1,5.84,2.46,1.9,1.9,0,0,0,1,1,13.93,13.93,0,0,1,2.51,5.52,29.32,29.32,0,0,1-.18,5.85c-.52,1.84-1,3.68-1.55,5.51a52.7,52.7,0,0,1-7,11.35l-.28.29a39.22,39.22,0,0,1-5.87,5.2,19,19,0,0,1-6.35,2.43l-4.64.08a38.65,38.65,0,0,1-5.82-1.34,18.26,18.26,0,0,0-3.24-1.41,7.7,7.7,0,0,0-2.35-1.41l-5.36-4c-.1-.2-.22-.35-.47-.25l-4.66-4.54a1.62,1.62,0,0,0-.92-.93c-2-2.4-4.12-4.73-6-7.23-1-1.33-2-1.78-3.51-1.27a28.78,28.78,0,0,1-6.93-.65c-3.51-1.57-3.51-1.57-5.67,1.06a.75.75,0,0,0-.06.13,13,13,0,0,0-2.21,2.47,35.76,35.76,0,0,0-3.54,4.33c-.2,0-.3.11-.27.32a2.18,2.18,0,0,1-.36.75c-1.57,1.45-2.5,3.38-3.72,5.08a10.5,10.5,0,0,0-1.49,2.6,17.81,17.81,0,0,0-2.11,3.79c-2,3.63-4.78,6.42-8.94,7.52a13.79,13.79,0,0,1-5.23-.5l-3.5-1.76L915,582.52,911.64,579l-1.89-2.64-1.91-3.19-2.56-5.5L903.89,563l-.09-.85a32.8,32.8,0,0,1-.3-5.86l.13-1.43a.51.51,0,0,0,.17-.61l.14-.84,1.11-2.63a32.85,32.85,0,0,1,3.49-4.94c.44-.26.88-.52.88-1.12.14,0,.32,0,.42-.11a39.34,39.34,0,0,1,10.64-6.36l5.83-2,5.58-1.41a8.4,8.4,0,0,0,2.89-.57l1.7-.2c1.38-.2,2.75-.42,4.14-.57.64-.07.89-.46,1.1-1a19.22,19.22,0,0,1,6.78-8.64c.6-.41.82-.79.27-1.37a22.66,22.66,0,0,0-1.63-5.33,28.28,28.28,0,0,0-2.11-5.46,17.94,17.94,0,0,0-2.13-4.62,1,1,0,0,0-.39-.91,35.75,35.75,0,0,0-3.15-5.8l-2.45-4.4-.59-1.21a21.58,21.58,0,0,1-.72-5.48,15.71,15.71,0,0,1,2.17-5.21.69.69,0,0,0,.57-.54,23.32,23.32,0,0,1,4.6-3.22C946.48,478.89,950.24,478.43,954,477.94Zm-12.48,11.41a6.31,6.31,0,0,0,1.38,5.57l0,0a43.47,43.47,0,0,0,3.19,5.54,33.21,33.21,0,0,0,2.39,4.63l.34.86,2.52,5.85,2,5.57a3,3,0,0,0,.57,1.72c.22,1,0,2.39,1.81,1.63a.53.53,0,0,0,.61-.18l2-.22a26.49,26.49,0,0,1,7,.71,12,12,0,0,0,2,.76c1,.19,1.76,1.69,2.73.79a5,5,0,0,0,1.07-2.92,6.13,6.13,0,0,0,.86-2.34,25.19,25.19,0,0,0,1.66-5.51,25.86,25.86,0,0,0,1.26-5.85,22.21,22.21,0,0,0,.46-5.21,17.86,17.86,0,0,0-.58-5.87,11.34,11.34,0,0,0-2.53-5.51,3.54,3.54,0,0,0-1.4-1.52,11.94,11.94,0,0,0-5.54-2.75,21,21,0,0,0-5.47-1.13,24.2,24.2,0,0,0-5.64-.18,16.74,16.74,0,0,0-5.83.82,10.3,10.3,0,0,0-5.55,2.65A2.78,2.78,0,0,0,941.51,489.35Zm72.35,65.49a9.26,9.26,0,0,0,0-3.15,4.28,4.28,0,0,0-3.61-3.92,13.77,13.77,0,0,0-5.57-.35l-5.87-.07-2.3-.1a1,1,0,0,0-.92-.1l-2-.15-5.76-.69a44,44,0,0,0-5.59-1c-.67-.22-1.35-.44-2-.68-1-.36-1.55-.24-1.92,1a18.21,18.21,0,0,1-6.74,9.58c-2.45,1.84-2.49,1.78-.4,4a16.68,16.68,0,0,0,2.55,2.94,21,21,0,0,0,3,3.2A13.84,13.84,0,0,0,979.6,568a9.25,9.25,0,0,0,2.64,2.26,18.7,18.7,0,0,0,5.5,3.43c0,.16.1.22.25.18a11.19,11.19,0,0,0,5.35,1.74,9.74,9.74,0,0,0,5.8-.34,6.19,6.19,0,0,0,2.69-1.36,12,12,0,0,0,3.18-2.72,13.07,13.07,0,0,0,2.58-2.92,29.55,29.55,0,0,0,6-12l.11-.85A.51.51,0,0,0,1013.86,554.84Zm-72.78-9.56c-.2-1.23-.47-2.46-.6-3.7-.27-2.64-.24-2.64-2.86-1.93a1.51,1.51,0,0,0-.26.12,22.59,22.59,0,0,0-5.53,1.09,28.65,28.65,0,0,0-5.84,1.58,31.51,31.51,0,0,0-11,5.45,10.92,10.92,0,0,0-3.25,3.17,9.83,9.83,0,0,0-2.5,5.53,11.34,11.34,0,0,0,.51,5.57,20.58,20.58,0,0,0,1.77,5.52,29.81,29.81,0,0,0,7.83,11c.27.22.48.82,1,.42l0,0c0,.12,0,.3,0,.35a5.35,5.35,0,0,0,7.86-.73,30.11,30.11,0,0,0,3.26-5.59l.3-.57,3.17-5,2.4-3.44a8.12,8.12,0,0,0,1.52-2c1.77-2.05,3.54-4.11,5.32-6.15.63-.73,1.73-1.38,1.84-2.17s-1.2-1.47-1.73-2.32a4,4,0,0,0-.47-.55,1.21,1.21,0,0,0-.64-.82Zm18.73,8.14a9.28,9.28,0,0,0,5.53-1.16,2.26,2.26,0,0,0,1.8-1.17,6.6,6.6,0,0,0,4-3.81c.4-.68,1.21-1.11,1.21-2a9.13,9.13,0,0,0,1.18-5.53,9.77,9.77,0,0,0-1.14-5.56,3.84,3.84,0,0,0-1.15-2,8.9,8.9,0,0,0-3.8-3.81,3.93,3.93,0,0,0-2.07-1.16A9.58,9.58,0,0,0,959.8,526a9.27,9.27,0,0,0-5.53,1.17,4.7,4.7,0,0,0-2.5,1.42,9,9,0,0,0-3.42,3.48,4.17,4.17,0,0,0-1.09,2.1,9.19,9.19,0,0,0-1.16,5.53,9.57,9.57,0,0,0,1.28,5.8,3,3,0,0,0,1,1.84,8.86,8.86,0,0,0,3.77,3.75,4,4,0,0,0,2.07,1.17A9.59,9.59,0,0,0,959.81,553.42Z" transform="translate(-884.91 -464.84)"/><path class="cls-1" d="M904.28,523.62c0-.31-.06-.62-.36-.8l0-1.15c.53-1.43,1.07-2.86,1.6-4.28l2.61-5.61a8.87,8.87,0,0,0,1.32-2.34l1.86-2.79a65,65,0,0,1,15.05-15.2c3-1.09,4.68.18,4.41,3.4a6.46,6.46,0,0,1-1.82,1.79,20.47,20.47,0,0,0-3.22,2.58l-1.12.95c-1,.88-2,1.69-2.82,2.65-.67.77-1.76,1.23-1.89,2.42-.6,0-.78.53-1,.94a26,26,0,0,0-3.94,5.53,23.87,23.87,0,0,0-3.08,5.6,25.42,25.42,0,0,0-2.21,5.5l-.5,1.08C907.11,525.44,906,525.37,904.28,523.62Z" transform="translate(-884.91 -464.84)"/><path class="cls-1" d="M926.23,514c-.63.42-.81,1.26-1.55,1.61-1.55.73-2.76.16-3.86-.93a3.46,3.46,0,0,1,.8-4c1.38-1.53,2.68-3.14,4-4.71a.92.92,0,0,0,.66-.65l3.93-3.32a3.62,3.62,0,0,1,2.77-.93c2.09,1.17,2.4,1.94,1.73,4.35l-3,2.66a16.33,16.33,0,0,0-3.06,3.1A12,12,0,0,0,926.23,514Z" transform="translate(-884.91 -464.84)"/><path class="cls-1" d="M1015.42,520.8a5.44,5.44,0,0,0,.66,2c.45,1.85.91,3.7,1.36,5.55q.4,2.88.83,5.76c0,2.49-.35,3.05-2.53,3.87-2.43-.13-3.21-1.77-3.54-3.84.31-4-1.12-7.66-2.23-11.38a23.79,23.79,0,0,0-2.19-5.53A25.3,25.3,0,0,0,1005,512c0-.16,0-.27-.18-.3a29.73,29.73,0,0,0-3.94-5.51,3.38,3.38,0,0,0-1.53-1.8c-.68-.83-1.15-1.64-.5-2.77,1.14-2,2.39-2.38,4.63-1.24a3.87,3.87,0,0,0,1.14,1.24l3.27,4.27,2.32,3.5a8.08,8.08,0,0,0,1.14,2.05l2.91,6.16Z" transform="translate(-884.91 -464.84)"/><path class="cls-1" d="M1004.87,523.22c.55,1.8,1.09,3.61,1.63,5.41l.93,5.3a2.92,2.92,0,0,1-5.8.23c0-1.91-.69-3.67-1.07-5.5a16.88,16.88,0,0,0-1.45-4.37l-.46-1.23a3.08,3.08,0,0,1,.83-4c1.88-.87,3.37-.36,4.24,1.44.23.47.44,1,.67,1.43A2.33,2.33,0,0,0,1004.87,523.22Z" transform="translate(-884.91 -464.84)"/><path class="cls-1" d="M954.65,598.49c0-.3-.15-.43-.44-.43a48.52,48.52,0,0,1-5.75-.7L942.92,596a4.77,4.77,0,0,0-2-.66c-.94-.69-2.17-.59-3.14-1.2-.74-.33-1.46-.68-2.21-1a3.61,3.61,0,0,1-2.52-3c.81-2.49,1.81-3,4.34-2.44a23.82,23.82,0,0,0,5.53,2.2,3.69,3.69,0,0,0,1.78.52,10.77,10.77,0,0,0,3.81,1.05,53.25,53.25,0,0,0,11.35,1.24,23.42,23.42,0,0,0,5.79-.32,19,19,0,0,0,5.28-.87c2.71.77,3.36,1.71,2.83,4.14a4,4,0,0,1-2.85,1.78l-2.31.36a1,1,0,0,0-.9.18l-1.72.12-6.17.39A21.39,21.39,0,0,0,954.65,598.49Z" transform="translate(-884.91 -464.84)"/><path class="cls-1" d="M944.65,579.08a13.42,13.42,0,0,0,4.1,1.38,19.41,19.41,0,0,0,5.49,1.1c1.77.34,3.45.78,3.6,3-.44,2.18-1.07,2.65-3.82,2.83l-5.31-1-5.4-1.65a2.29,2.29,0,0,0-1.28-.48c-2.55-1.41-2.9-2.6-1.47-5a4.08,4.08,0,0,1,2.54-.65Z" transform="translate(-884.91 -464.84)"/></svg>