<svg id="Layer_1" data-name="Layer 1" xmlns="http://www.w3.org/2000/svg" viewBox="0 0 85.06 85.54"><defs><style>.cls-1{fill:#f2f2f1;}.cls-2{fill:#e4c52d;}.cls-3{fill:#060507;}</style></defs><title>hazid</title><path class="cls-1" d="M917.3,540.18c-.54,8,2.15,15.68,6.62,22.84a40.34,40.34,0,0,0,12,12.35c2.06,1.37,4.36,2.16,6.48,3.33a33.23,33.23,0,0,0,11.23,3.6c6.54,1,13.15.75,19.5-1.74a51.34,51.34,0,0,0,11.9-6.12,42.87,42.87,0,0,0,13.18-15.93,36.81,36.81,0,0,0,3.93-13.69c.65-10-1.16-19.32-6.79-28A48.77,48.77,0,0,0,981,502.52a31.65,31.65,0,0,0-11.23-4.18c-10.57-2.14-20.75-1.16-30.5,4.12-7.5,4.07-12.7,10.17-16.89,17.22a39.93,39.93,0,0,0-3.42,8.74A36.82,36.82,0,0,0,917.3,540.18Z" transform="translate(-917.23 -497.28)"/><path class="cls-2" d="M917.3,540.18a36.82,36.82,0,0,1,1.61-11.76,39.93,39.93,0,0,1,3.42-8.74c4.19-7,9.39-13.15,16.89-17.22,9.75-5.28,19.93-6.26,30.5-4.12A31.65,31.65,0,0,1,981,502.52a48.77,48.77,0,0,1,14.42,14.27c5.63,8.71,7.44,18,6.79,28a36.81,36.81,0,0,1-3.93,13.69,42.87,42.87,0,0,1-13.18,15.93,51.34,51.34,0,0,1-11.9,6.12c-6.35,2.49-13,2.69-19.5,1.74a33.23,33.23,0,0,1-11.23-3.6c-2.12-1.17-4.42-2-6.48-3.33a40.34,40.34,0,0,1-12-12.35C919.45,555.86,916.76,548.18,917.3,540.18Zm80.54-.26c.47,7.79-2.1,14.78-6.3,21.15A37.51,37.51,0,0,1,967,577.61c-4.76,1-9.6,1.44-14.4,0-2.8-.82-5.76-1.09-8.37-2.56-.5-.28-1.23-.64-1.64.09s.11,1.22.69,1.48a36.59,36.59,0,0,0,5.21,2.14,44.81,44.81,0,0,0,16.75,1,31.52,31.52,0,0,0,9.09-2,46.42,46.42,0,0,0,12.88-8.44,40.22,40.22,0,0,0,12.06-22.24c2.1-10.7-.54-20.65-6.32-29.81-2.81-4.47-6.74-7.82-11-10.8a37.09,37.09,0,0,0-15.21-6.17,40,40,0,0,0-43.49,22.92,34.35,34.35,0,0,0-3.22,10.06c-2,15.36,2.74,28.27,14.76,38.27,1.41,1.17,3,2.07,4.58,3.1a1.19,1.19,0,0,0,1.8-.22c.54-.79-.39-1-.77-1.4a4.37,4.37,0,0,0-1-.63,28.49,28.49,0,0,1-6.84-5.43,50.77,50.77,0,0,1-6.37-8.7c-1.85-3.09-2.52-6.58-3.69-9.88a22.61,22.61,0,0,1-1-7.08c-.22-11.55,3.64-21.47,12.19-29.41a38.46,38.46,0,0,1,60.48,11A33.66,33.66,0,0,1,997.84,539.92Z" transform="translate(-917.23 -497.28)"/><path class="cls-3" d="M998,539.62a33.66,33.66,0,0,0-3.66-17,38.21,38.21,0,0,0-60.48-11c-8.55,7.94-12.41,17.86-12.19,29.41a22.69,22.69,0,0,0,1,7.08c1.17,3.3,1.84,6.79,3.68,9.88a51.36,51.36,0,0,0,6.38,8.7,28.49,28.49,0,0,0,6.84,5.43,4.07,4.07,0,0,1,1.05.63c.38.38,1.3.61.77,1.4a1.19,1.19,0,0,1-1.8.22c-1.53-1-3.17-1.93-4.58-3.1-12-10-16.74-22.91-14.76-38.27A34.35,34.35,0,0,1,923.45,523,40,40,0,0,1,966.94,500a37,37,0,0,1,15.21,6.17c4.25,3,8.18,6.33,11,10.8,5.78,9.16,8.42,19.11,6.32,29.81A40.16,40.16,0,0,1,987.4,569a46.46,46.46,0,0,1-12.88,8.45,31.52,31.52,0,0,1-9.09,2,45,45,0,0,1-16.75-1,35.07,35.07,0,0,1-5.21-2.15c-.58-.25-1.07-.81-.69-1.47s1.14-.37,1.64-.09c2.61,1.46,5.57,1.74,8.37,2.56,4.8,1.4,9.64,1,14.4,0a37.51,37.51,0,0,0,24.52-16.54C995.91,554.4,998.48,547.41,998,539.62Z" transform="translate(-917.23 -497.28)"/><path class="cls-3" d="M987.41,551.82c0-.7.05-1.37,0-2A12.73,12.73,0,0,0,969,539.19a12.05,12.05,0,0,0-4.78,4.15c-.13.2-.27.41-.56.22s-.51-.22-.4-.67a3.29,3.29,0,0,0-2.28-4c-.4-.12-.47-.35-.44-.71s.3-.35.55-.36a9.41,9.41,0,0,0,3.21-.64A12.5,12.5,0,0,0,968,535a13.69,13.69,0,0,0,3.27-4,12.53,12.53,0,0,0-.33-12.48,12.35,12.35,0,0,0-4.53-4.49c-.16-.1-.41-.06-.48-.31.18-.11.33,0,.47.06a17.58,17.58,0,0,1,9.31,8.43,17.07,17.07,0,0,1,1.88,9,.83.83,0,0,0,.54,1,17.31,17.31,0,0,1,8,8.22,17.83,17.83,0,0,1,1.59,9.57,3,3,0,0,1-.39,1.5A.19.19,0,0,0,987.41,551.82Z" transform="translate(-917.23 -497.28)"/><path class="cls-3" d="M938.22,561.26a24,24,0,0,0,3,1.36,12.73,12.73,0,0,0,16.65-14.23A9,9,0,0,0,956.7,545a.33.33,0,0,1,.11-.52c.26-.13.47-.4.8-.06a3.17,3.17,0,0,0,2.5,1,3.08,3.08,0,0,0,2.21-.95c.31-.33.51-.16.78,0s.21.36.09.59a12.34,12.34,0,0,0-1.17,7,12.55,12.55,0,0,0,5.73,9.25,10.76,10.76,0,0,0,2.11,1.14,13.31,13.31,0,0,0,5.87.86,12.17,12.17,0,0,0,5.49-1.79s.13,0,.26,0a9,9,0,0,1-2.15,1.6,17,17,0,0,1-7.69,2.51,17.21,17.21,0,0,1-11.26-3,.64.64,0,0,0-.85,0,16.92,16.92,0,0,1-7.26,2.8,17.33,17.33,0,0,1-11.58-2.32c-.79-.46-1.52-1-2.28-1.54-.08-.06-.12-.2-.18-.3Z" transform="translate(-917.23 -497.28)"/><path class="cls-3" d="M932.42,550.62c-.15,0-.14-.14-.15-.23a18.2,18.2,0,0,1,1.4-9.66,18.7,18.7,0,0,1,3.82-5.44,15.14,15.14,0,0,1,4.51-3.15.64.64,0,0,0,.42-.72,17.14,17.14,0,0,1,3.68-12,17.34,17.34,0,0,1,8-5.76h.15c-.61.48-1.29.78-1.88,1.22a12.59,12.59,0,0,0-4.34,5.82,12.74,12.74,0,0,0,8.36,16.63,12.06,12.06,0,0,0,2.52.48c.24,0,.54-.06.55.34s0,.58-.42.71a3.31,3.31,0,0,0-2.42,3.47,2.45,2.45,0,0,0,.1.54.51.51,0,0,1-.29.7c-.3.16-.44.1-.61-.16a12.77,12.77,0,0,0-20-1.39,12,12,0,0,0-2.77,4.92,13,13,0,0,0-.52,3.2C932.52,550.29,932.6,550.49,932.42,550.62Z" transform="translate(-917.23 -497.28)"/><path class="cls-3" d="M974.13,542.11a13.35,13.35,0,0,1-1.46,6.17,14.08,14.08,0,0,1-8.26,7.21c-.68.24-.69.23-.95-.42a14,14,0,0,1-.76-2.77c-.07-.37.06-.53.41-.65a9.65,9.65,0,0,0,5.25-4,9.83,9.83,0,0,0,1.48-7.66c-.08-.36,0-.54.35-.68a13.06,13.06,0,0,1,3.07-.78c.33,0,.45.06.53.41A13.94,13.94,0,0,1,974.13,542.11Z" transform="translate(-917.23 -497.28)"/><path class="cls-3" d="M946.63,538.51a14.13,14.13,0,0,1,3.26.86c.26.11.27.26.22.52a10,10,0,0,0,3,9.56,9.22,9.22,0,0,0,3.7,2.19c.38.12.5.29.44.68a12.7,12.7,0,0,1-.88,3.09c-.11.28-.27.26-.52.18a14.27,14.27,0,0,1-6.38-4.07,14.22,14.22,0,0,1-3.62-10.3c0-.73.2-1.46.31-2.19C946.2,538.68,946.34,538.41,946.63,538.51Z" transform="translate(-917.23 -497.28)"/><path class="cls-3" d="M959.76,532a9.71,9.71,0,0,0-6.38,2.49c-.4.35-.63.39-1,0a14.86,14.86,0,0,1-2.1-2.24c-.17-.21-.12-.34.06-.5a14.18,14.18,0,0,1,19.06-.27c.57.5.58.51.11,1.12a11.48,11.48,0,0,1-2.07,2,.39.39,0,0,1-.6,0A10.14,10.14,0,0,0,959.76,532Z" transform="translate(-917.23 -497.28)"/></svg>