<svg id="Layer_1" data-name="Layer 1" xmlns="http://www.w3.org/2000/svg" viewBox="0 0 70.84 59.58"><defs><style>.cls-1{fill:#f26675;}</style></defs><title>heart</title><path class="cls-1" d="M995.6,529.1a29.4,29.4,0,0,1-5.29,15.95c-5.19,7.91-12.29,13.82-20.06,19-2.91,1.93-6,3.68-9,5.41a2.43,2.43,0,0,1-2,.06c-8.39-4.59-16.3-9.86-23-16.78-4.63-4.78-8.47-10.09-10.38-16.55s-1.58-12.66,2.43-18.25c4.26-5.94,10.27-8.28,17.43-7.69A22.13,22.13,0,0,1,959,516.33a1.45,1.45,0,0,0,2.35,0,22.64,22.64,0,0,1,15.45-6.21A18.67,18.67,0,0,1,995.6,529.1Z" transform="translate(-924.75 -510.12)"/></svg>