<svg id="Layer_1" data-name="Layer 1" xmlns="http://www.w3.org/2000/svg" viewBox="0 0 229.9 198.13"><defs><style>.cls-1{fill:#bc907a;}.cls-2{fill:#b6df8b;}.cls-3{fill:#434343;}.cls-4{fill:#f2f2f2;}.cls-5{fill:#fff;}.cls-6{fill:#c2b49b;}.cls-7{fill:#bdbdc1;}.cls-8{fill:#a49489;}</style></defs><title>landfill</title><path class="cls-1" d="M959.14,620.85H850.83a8.9,8.9,0,0,1-3.2-.41,4.73,4.73,0,0,1-3.36-4.72,4.64,4.64,0,0,1,3.39-4.69c2.17-.76,4.46-.43,6.69-.44q36.67,0,73.37,0c3.44,0,3.45,0,3.44-3.35,0-10.4,0-20.8-.06-31.19,0-2.08.34-3,2.65-2.1a13.86,13.86,0,0,0,4.67.71c2.27,0,2.91.87,2.88,3.13-.11,9.81,0,19.63,0,29.44,0,3.28,0,3.29,3.21,3.3,9.82,0,19.64,0,29.45.11,2.43,0,3.31-.49,3.26-3.14-.17-9.89,0-19.79-.14-29.69,0-2.22.44-3.28,2.86-3a17.69,17.69,0,0,0,4.24,0c2.35-.26,3.16.51,3.12,3-.12,9.9.05,19.8-.07,29.69,0,2.43.69,3.11,3.09,3.1,25.7-.09,51.41-.08,77.11-.11,2,0,4,.16,5.46,1.85a4.91,4.91,0,0,1-2.23,8,12.56,12.56,0,0,1-4,.35H959.14Z" transform="translate(-844.27 -441.93)"/><path class="cls-2" d="M977.69,442.19a40.15,40.15,0,0,1,10.33.2,12.2,12.2,0,0,0,4.09,1.28.74.74,0,0,0,1,.57c.92.5,1.67,1.37,2.83,1.39a6.66,6.66,0,0,0,3,2.25,77.65,77.65,0,0,1,6.24,7.88l2.67,8.34a.66.66,0,0,0,.14.93c-.76,7.31,0,8.77,4.93,11a15.69,15.69,0,0,1,1.66,1.08c4.24,2.71,7,6.7,9.45,10.92a1.44,1.44,0,0,0,.51,1.49.7.7,0,0,0,.44,1,4.45,4.45,0,0,0,.69,2.95.64.64,0,0,0,.23,1.07,5.42,5.42,0,0,0,.22,2.93c-.32,2-.48,4-.89,6-.34,1.66-1.53,3.13-1.13,4.95-.38,2.94.59,4.41,3.4,5.15.91,1.1,2.3.74,3.44,1.11a25.66,25.66,0,0,1,17.61,25.13c-.13,10.68-7.72,20.47-18.18,23.65a27.67,27.67,0,0,1-8.12,1.06c-10.73,0-21.46-.07-32.18,0-2.11,0-3.17-.49-2.83-2.77a7.32,7.32,0,0,0,0-2.24c-1.09-6,1.37-10.32,5.88-14.22a182.49,182.49,0,0,0,13-13.1,5.07,5.07,0,0,0-2.2-8.55c-3-.8-4.85.9-6.42,3.12h0a1.32,1.32,0,0,0-1,1l0,0a1.3,1.3,0,0,0-1,1h0c-2.09,2-4.18,4-6.25,6-.42.4-.78,1-1.45.72s-.49-1-.49-1.5c0-4.75,0-9.49-.07-14.23a4.47,4.47,0,0,1,1.79-3.39c5.68-5.6,11.4-11.18,17-16.83,2.53-2.54,2.63-5.25.48-7.46s-5-2.22-7.46.16c-3.09,3-6.12,6.09-9.21,9.11-.43.42-.8,1.23-1.59.94s-.67-1.24-.67-1.94c0-5.73,0-11.47,0-17.21a5.28,5.28,0,0,0-4.26-5.41,5.49,5.49,0,0,0-5.66,3.21,6.88,6.88,0,0,0-.39,2.94c0,5.57,0,11.15,0,16.72,0,.71.36,1.72-.41,2.06-.92.4-1.37-.67-1.92-1.2-2.84-2.79-5.65-5.61-8.48-8.42s-5.65-3.18-8-.76c-2.22,2.27-2,5.16.73,7.88,5.45,5.48,10.9,11,16.42,16.36a5.24,5.24,0,0,1,1.72,4.17c-.09,4.4,0,8.81,0,13.22,0,.63.27,1.49-.48,1.79s-1.15-.47-1.6-.92c-3-3-6-6-9-9-2.76-2.69-5.38-2.86-7.66-.64s-2.17,5.19.49,7.87c5.51,5.54,11,11.07,16.59,16.54a4.79,4.79,0,0,1,1.7,3.91c-.12,3-.11,6,0,9,0,1.53-.54,2-2,2-11.64,0-23.29.17-34.94-.07-12.3-.25-23.11-10.65-24.12-22.73-1.11-13.27,7.2-24.82,19.8-27.5,4.13-.87,5.66-3.51,4.37-7.47-3.36-10.29-1-19.2,6.22-27.15a17.34,17.34,0,0,1,5.4-3.84c3.85-1.89,5.24-2.67,4.35-9.24a.66.66,0,0,0,.1-.95,5.42,5.42,0,0,0,.62-3.57,2.93,2.93,0,0,0,.35-1.92l2.56-5.46c1.63-2.85,4.12-5,6.33-7.32.62,0,.91-.35,1.06-.88l3.84-2.27c.56.32.85,0,1-.46a1.7,1.7,0,0,0,1.48-.46.7.7,0,0,0,1-.44A6.34,6.34,0,0,0,977.69,442.19Z" transform="translate(-844.27 -441.93)"/><path class="cls-2" d="M939.63,472.88c-4.62,3.84-7.4,8.9-9.18,14.47a31.26,31.26,0,0,0-1.3,15.5c.39,2-.44,2.77-2.1,3.5-8.9,3.94-15.4,10.35-18.93,19.45-5.09,13.14-2.88,25.24,5.71,36.29.47.61,1.59,1.06,1.16,2s-1.5.43-2.29.44c-5.57,0-11.14.1-16.71,0-17.06-.15-28.59-14-25.67-30.82,1.54-8.83,9.67-17.33,18.48-19.3,5.39-1.21,6.75-3.55,5.09-8.79a25.37,25.37,0,0,1,12.67-30c3.24-1.61,4.51-3.82,4.42-7.27a25.58,25.58,0,0,1,30.67-25.85,24.7,24.7,0,0,1,9.28,4c1.11.75,1.51,1.48.65,2.86a32.45,32.45,0,0,0-4.9,16,3.53,3.53,0,0,1-1.85,3,18.24,18.24,0,0,0-5.21,4.49l.1.1Z" transform="translate(-844.27 -441.93)"/><path class="cls-3" d="M973.63,624.11l-.44-.08a5.9,5.9,0,0,0-4.39,0l-.45.08a7.27,7.27,0,0,0-3.68,1.65,3.08,3.08,0,0,1-2.27.82,3.09,3.09,0,0,0-1.68,0,2,2,0,0,0-1.71.31l-.64.14a1.64,1.64,0,0,0-1.22.62l-.25.09a3.13,3.13,0,0,1-2.55.33,2.34,2.34,0,0,0-1.05-.13c-1.23-.09-1.36-.83-1.33-1.91.08-3.21,0-6.43,0-9.64a6.79,6.79,0,0,0-.18-2.2.69.69,0,0,0,0-.64,9.79,9.79,0,0,0,0-3,15.37,15.37,0,0,0,0-3.39,1.54,1.54,0,0,0,.17-.48c0-5.5-.09-11,.11-16.49l.13-1.26a.79.79,0,0,0,.2-.85,30.4,30.4,0,0,1,8.76-16,1.13,1.13,0,0,0,.16-.26.48.48,0,0,0,.47-.41h0a.48.48,0,0,0,.46-.41h0a.73.73,0,0,0,.6-.49,3.64,3.64,0,0,0,1.24-1,1.84,1.84,0,0,0,1.07-.74h0a.64.64,0,0,0,.55-.38h0l0,0a5.78,5.78,0,0,0,1.78-1h.08l.05-.06a7.41,7.41,0,0,0,2-1,.09.09,0,0,0,.14,0,24.49,24.49,0,0,0,3.57-1.36l.44-.08a19.25,19.25,0,0,0,3.18-.72l.43,0a4.13,4.13,0,0,0,2-.29h5.06l5.43,1,.29,0A33,33,0,0,0,994,566.3a.09.09,0,0,0,.14,0c2,1.11,4,2.31,6,3.58h0a28.89,28.89,0,0,0,3,2.57h0a1.08,1.08,0,0,0,.64.65h0a.53.53,0,0,0,.44.45l.13.15c.11.54.57.79.93,1.13l.31.36c1.44,2.11,2.72,4.33,4,6.57-.05.43.25.72.42,1.06a.53.53,0,0,0,.3.61l.09.45a.56.56,0,0,0,.23.64l.1.41a.92.92,0,0,0,.3.87l.06.41c0,.24-.07.48.18.64a2,2,0,0,0,.2,1.06,1.57,1.57,0,0,0,.26,1.26,2.88,2.88,0,0,0,.12,1.27c0,1.23.09,2.46.09,3.69q0,15.78,0,31.55c0,1.76,0,1.76-1.51,2.3l-.63.07a3.13,3.13,0,0,1-2.76-.31l-.25-.09c-.1-.2-.15-.43-.38-.53q0-5.08.05-10.15a1.28,1.28,0,0,0-.18-.49c-.48-1.06-1.17-1.2-2-.42h0c-.49.22-.44.68-.44,1.09,0,3.11,0,6.21,0,9.32l-1.23.09a.53.53,0,0,0-.64,0l-.42,0c-.63-.1-1.32.07-1.88-.38a.54.54,0,0,0-.54-.39,1.22,1.22,0,0,0-.93-.65h0a2.43,2.43,0,0,0-.49-.37,10.33,10.33,0,0,0-11,.84c-1,.72-1.94,1.39-3.25,1a.77.77,0,0,0-.63,0,5.2,5.2,0,0,0-3.1.11,1.64,1.64,0,0,1-1.59-.4A8.61,8.61,0,0,0,973.63,624.11Zm-13.5-23.92h0c0-2.23,0-4.45,0-6.67a18.58,18.58,0,0,1,.49-4.41,21.76,21.76,0,0,1,43,3.14c.2,3.52.07,7.06.1,10.59,0,1.17.48,1.78,1.34,1.76s1.39-.61,1.37-1.78c-.06-3.78.18-7.56-.15-11.33a23,23,0,0,0-7.42-15.35c-6.8-6.29-14.77-8.31-23.79-5.83s-16.58,11.15-17.39,20.56c-.5,5.84-.12,11.72-.19,17.58,0,1.1.56,1.66,1.44,1.55s1.25-.75,1.24-1.66C960.12,605.63,960.13,602.91,960.13,600.19Zm0,19.32h0c0-1.7,0-3.39,0-5.08a1.45,1.45,0,0,0-1.32-1.61c-.77,0-1.33.56-1.33,1.56q0,5.19,0,10.36c0,1,.55,1.61,1.32,1.59s1.36-.6,1.37-1.64Zm46.19-9.34a14.42,14.42,0,0,0,0-1.47c-.07-.79-.48-1.35-1.33-1.31a1.3,1.3,0,0,0-1.3,1.38c0,.88,0,1.76,0,2.63a1.24,1.24,0,0,0,1.31,1.34,1.2,1.2,0,0,0,1.32-1.31C1006.35,611,1006.33,610.59,1006.33,610.17Z" transform="translate(-844.27 -441.93)"/><path class="cls-1" d="M968.89,626.55l.3,0a25.59,25.59,0,0,1,3.61,0l.3,0a18.86,18.86,0,0,1,3.7,2.12h0c.28.39.55.79.84,1.17.17.21.39.52.69.32.75-.51,1.68-.59,2.45-1h2.09a27.1,27.1,0,0,1,2.58,1c.38.27.62,0,.73-.42l.05,0v-.06a12.16,12.16,0,0,1,4.51-3l.3,0a19.68,19.68,0,0,1,3.6,0l.31,0c1.24.64,2.67,1.05,3.52,2.2s1.76.89,2.76.35l.4,0a1,1,0,0,0,.87,0,1.69,1.69,0,0,0,.92,0c1.27.57,2.68.91,3.64,2a1,1,0,0,0,1.37.2A8.15,8.15,0,0,1,1020,637.8a2.27,2.27,0,0,1-.85,2.23h-.32c-.24,0-.49,0-.73,0H947.35c-.49,0-1,0-1.48.07h-.63c-.66-.17-1.25-.45-1.36-1.22a11.87,11.87,0,0,1-.08-1.33.77.77,0,0,0,.05-.19s0-.06,0-.09a1.83,1.83,0,0,0,.25-.45,8.11,8.11,0,0,1,11.53-5.43c.26.13.54.32.78.07a10.21,10.21,0,0,1,4-2.32h.28a1.44,1.44,0,0,0,1.08,0,1.69,1.69,0,0,0,.92,0c.61.28,1.36.91,1.88.37A13.62,13.62,0,0,1,968.89,626.55Z" transform="translate(-844.27 -441.93)"/><path class="cls-4" d="M960.13,600.19c0,2.72,0,5.44,0,8.15,0,.91-.3,1.54-1.24,1.66s-1.45-.45-1.44-1.55c.07-5.86-.31-11.74.19-17.58.81-9.41,8.23-18,17.39-20.56s17-.46,23.79,5.83a23,23,0,0,1,7.42,15.35c.33,3.77.09,7.55.15,11.33,0,1.17-.5,1.76-1.37,1.78s-1.34-.59-1.34-1.76c0-3.53.1-7.07-.1-10.59a21.76,21.76,0,0,0-43-3.14,18.58,18.58,0,0,0-.49,4.41c0,2.22,0,4.44,0,6.67Z" transform="translate(-844.27 -441.93)"/><path class="cls-4" d="M971.59,613.54c0-1.35,0-2.7,0-4,0-.89.23-1.17,1.09-1.21a15.64,15.64,0,0,1,2.9.07,3.44,3.44,0,0,1,1.32,6.34c-.72.44-.72.44-.13,1s1,.95,1.43,1.44a.81.81,0,0,1,.08,1.25.85.85,0,0,1-1.31-.07c-1-1-2.07-2.06-3.1-3.09-.12-.12-.23-.34-.43-.26s-.12.32-.12.48c0,.7,0,1.39,0,2.09s-.36,1.13-.9,1.12-.83-.41-.83-1.16Zm1.73-1.68v.74c0,.27,0,.54,0,.81s0,.44.29.29a2.92,2.92,0,0,1,1.51-.21,1.69,1.69,0,0,0,1.56-1.18,1.71,1.71,0,0,0-.72-2,2.94,2.94,0,0,0-2.42-.18c-.53.16-.12,1-.23,1.47A2.43,2.43,0,0,0,973.32,611.86Z" transform="translate(-844.27 -441.93)"/><path class="cls-4" d="M988.94,614.87c0,1,0,2,0,2.92a.84.84,0,0,1-.63.86.8.8,0,0,1-.86-.25,1,1,0,0,1-.24-.75c0-2.77,0-5.54,0-8.31,0-.58.27-1,.92-1a19.34,19.34,0,0,1,3.23.07,3.46,3.46,0,0,1,2.8,3.42,3.52,3.52,0,0,1-2.87,3.37A3.3,3.3,0,0,1,988.94,614.87Zm0-3c0,.54,0,1.08,0,1.62,0,.17,0,.43.29.25a2.58,2.58,0,0,1,1.44-.22,1.72,1.72,0,0,0,1.73-1.76,1.67,1.67,0,0,0-1.72-1.69c-.43,0-.85,0-1.28,0s-.49.09-.47.46S989,611.39,989,611.84Z" transform="translate(-844.27 -441.93)"/><path class="cls-4" d="M982,618.7c-.56,0-1.13,0-1.69,0s-.9-.29-.87-.89a.78.78,0,0,1,.94-.82c.59.06.76-.16.74-.75,0-1.85,0-3.69,0-5.54,0-.47-.08-.71-.61-.67s-1-.14-1.07-.83.3-.88,1.08-.91c1,0,2,0,3,0,.74,0,1.09.35,1.08.93s-.33.83-1.07.82c-.47,0-.62.13-.61.61,0,1.91,0,3.83,0,5.74,0,.47.13.62.6.61.76,0,1.09.29,1.07.9s-.32.8-1.08.83H982Z" transform="translate(-844.27 -441.93)"/><path class="cls-4" d="M960.14,619.51v5.18c0,1-.51,1.63-1.37,1.64s-1.32-.59-1.32-1.59q0-5.18,0-10.36c0-1,.56-1.59,1.33-1.56a1.45,1.45,0,0,1,1.32,1.61c0,1.69,0,3.38,0,5.08Z" transform="translate(-844.27 -441.93)"/><path class="cls-4" d="M1006.14,621.71v5.19c0,1-.51,1.63-1.37,1.64s-1.32-.59-1.32-1.59q0-5.18,0-10.36c0-1,.56-1.59,1.33-1.56a1.45,1.45,0,0,1,1.32,1.61c0,1.69,0,3.38,0,5.07Z" transform="translate(-844.27 -441.93)"/><path class="cls-4" d="M1006.33,610.17c0,.42,0,.84,0,1.26a1.2,1.2,0,0,1-1.32,1.31,1.24,1.24,0,0,1-1.31-1.34c0-.87-.05-1.75,0-2.63a1.3,1.3,0,0,1,1.3-1.38c.85,0,1.26.52,1.33,1.31A14.42,14.42,0,0,1,1006.33,610.17Z" transform="translate(-844.27 -441.93)"/><path class="cls-5" d="M977.6,583.28a.48.48,0,0,0,0,.78c.69.7,1.39,1.4,2.09,2.09.13.13.13.14,0,.27l-3.92,3.92a7.34,7.34,0,0,0-.9.95,3.65,3.65,0,0,0-.45,3.55,3.41,3.41,0,0,0,.77,1.17,8.7,8.7,0,0,0,1.16,1.11,3.54,3.54,0,0,0,2.27.7,3.41,3.41,0,0,0,2.37-1c1-1,1.92-1.94,2.9-2.87a1.21,1.21,0,0,0,.16-.16h0l.27-.28,1-1,0,0,2.47-2.47h0l.35-.35c.67-.7,1.36-1.38,2-2.06a2.73,2.73,0,0,1,1.67-.83,2.62,2.62,0,0,1,2.12.67c.32.28.61.6.91.9a2.09,2.09,0,0,1,.52.82,2.71,2.71,0,0,1-.64,3c-.43.45-.88.88-1.32,1.32l-3.11,3.12c-.09.09-.14.09-.22,0l-1.5-1.5a.45.45,0,0,0-.69,0l-2.59,2.59h0l-2.6,2.6a.45.45,0,0,0,0,.68l.21.22c.09.07.08.12,0,.19l-1.5,1.51a.46.46,0,0,0,0,.71l.62.63,1.94,1.93a.46.46,0,0,0,.65.05l.1-.09,1.45-1.46c.09-.09.15-.09.22,0l.16.17a.47.47,0,0,0,.76,0l5.12-5.11a.48.48,0,0,0,0-.76l-1.42-1.42c-.19-.19-.19-.14,0-.32,1.46-1.47,2.93-2.93,4.4-4.4a3.67,3.67,0,0,0,.29-4.92,11.28,11.28,0,0,0-1-1,3.38,3.38,0,0,0-.63-.5,3.62,3.62,0,0,0-2.22-.56,3.53,3.53,0,0,0-2.26,1c-.88.85-1.73,1.73-2.61,2.58l-.46.46-.58.58-.27.27,0,0-2.38,2.38h0l-.61.62c-.75.77-1.52,1.53-2.29,2.29a2.73,2.73,0,0,1-3.74.16c-.34-.3-.65-.63-1-1a2.18,2.18,0,0,1-.51-.82,2.68,2.68,0,0,1,.63-2.94l1.65-1.65,2.84-2.84c.07-.08.12-.07.19,0s.2.2.3.3l1.77,1.77a1.26,1.26,0,0,0,.2.2.48.48,0,0,0,.59-.1l3.7-3.71,1.47-1.48a.47.47,0,0,0,0-.7l-.16-.17c-.13-.13-.13-.13,0-.26l1.43-1.43a.52.52,0,0,0,0-.8l-3.81-3.8a.48.48,0,0,0-.76,0L984,578.22c-.22.22-.22.22-.43,0l0-.05a.48.48,0,0,0-.78,0l-2.55,2.55Zm6.88,21.85c-.07.07-.12.07-.18,0l-1.78-1.77c-.07-.08-.07-.13,0-.2l1.12-1.12c.07-.07.11-.07.18,0l.89.9h0l.88.87c.08.08.08.12,0,.2Zm7-5.91c.13.13.13.13,0,.26l-2.16,2.16h0l-2.19,2.18c-.08.09-.13.07-.21,0l-2.6-2.61c-.15-.15-.29-.29-.45-.43s-.09-.14,0-.23l1.49-1.49,2.85-2.85c.13-.12.13-.12.25,0ZM985.6,577.9c.08-.08.13-.09.21,0l.46.46c.07.06.06.1,0,.16l-.56.56a.46.46,0,0,0,0,.67.44.44,0,0,0,.65,0c.19-.17.37-.35.55-.53s.14-.09.22,0,.29.29.44.43.09.13,0,.22l-.57.56a.46.46,0,0,0,0,.6.45.45,0,0,0,.59.11.53.53,0,0,0,.12-.1l.54-.54c.07-.07.11-.07.18,0l.47.47c.08.07.07.11,0,.18l-1.13,1.14c-.07.07-.11.06-.18,0L986,580.73h0l-1.52-1.52c-.08-.08-.09-.12,0-.21Zm-4.79,3.47,2.15-2.16c.12-.12.12-.12.24,0l3.86,3.87c.16.17.33.33.51.49s.07.13,0,.2L985,586.3l-1.83,1.83c-.11.12-.11.12-.23,0l-2.84-2.84-1.48-1.48c-.14-.14-.14-.14,0-.29l2.14-2.15Z" transform="translate(-844.27 -441.93)"/><path class="cls-3" d="M882.5,615.31l-.27,0a3.63,3.63,0,0,0-2.71,0l-.27,0a4.5,4.5,0,0,0-2.27,1,1.89,1.89,0,0,1-1.4.51,1.9,1.9,0,0,0-1,0,1.22,1.22,0,0,0-1.06.19l-.4.09a1,1,0,0,0-.75.39l-.15.05a1.93,1.93,0,0,1-1.57.22,1.2,1.2,0,0,0-.65-.08c-.76-.06-.84-.51-.83-1.18,0-2,0-4,0-6a4.1,4.1,0,0,0-.11-1.35.43.43,0,0,0,0-.4,6.24,6.24,0,0,0,0-1.83,10.33,10.33,0,0,0,0-2.08,1.18,1.18,0,0,0,.1-.3c0-3.39-.09-6.78,0-10.17l.08-.78a.52.52,0,0,0,.12-.53,18.74,18.74,0,0,1,5.35-9.91c.05,0,.07-.11.11-.16a.28.28,0,0,0,.28-.26h0a.31.31,0,0,0,.29-.26h0a.46.46,0,0,0,.37-.3,2.46,2.46,0,0,0,.76-.6,1.15,1.15,0,0,0,.66-.46h0a.39.39,0,0,0,.34-.23h0l0,0a3.86,3.86,0,0,0,1.09-.64h0l0,0a4.42,4.42,0,0,0,1.22-.63s.06,0,.08,0a14.29,14.29,0,0,0,2.2-.85l.28,0a11.76,11.76,0,0,0,1.95-.46l.27,0a2.44,2.44,0,0,0,1.25-.19h3.12l3.35.63h.18a21.44,21.44,0,0,0,2.31.87.05.05,0,0,0,.09,0c1.27.68,2.5,1.42,3.71,2.2h0a15.29,15.29,0,0,0,1.83,1.57h0a.69.69,0,0,0,.4.4h0a.31.31,0,0,0,.27.27l.08.1c.07.33.36.48.58.69l.19.22c.9,1.3,1.69,2.67,2.46,4.05,0,.26.16.44.27.65a.3.3,0,0,0,.18.37l.06.29a.34.34,0,0,0,.14.39l.06.25a.6.6,0,0,0,.19.54l0,.25c0,.15,0,.3.12.39a1.26,1.26,0,0,0,.12.66,1,1,0,0,0,.16.77,1.92,1.92,0,0,0,.08.79c0,.76.07,1.51.07,2.27l.09,19.46c0,1.09,0,1.09-.93,1.43l-.39,0a1.89,1.89,0,0,1-1.7-.18l-.15-.05c-.07-.12-.1-.27-.24-.33,0-2.09,0-4.18,0-6.26a.91.91,0,0,0-.11-.3c-.3-.66-.73-.74-1.26-.25h0c-.3.14-.28.42-.27.68,0,1.91,0,3.83,0,5.74l-.76.06a.32.32,0,0,0-.39,0h-.26c-.39,0-.81,0-1.16-.22a.35.35,0,0,0-.34-.25.76.76,0,0,0-.57-.39h0a2.1,2.1,0,0,0-.3-.22,6.36,6.36,0,0,0-6.76.55,2.17,2.17,0,0,1-2,.62.47.47,0,0,0-.4,0,3.19,3.19,0,0,0-1.91.08,1,1,0,0,1-1-.25A5.33,5.33,0,0,0,882.5,615.31Zm-8.39-14.72h0c0-1.37,0-2.74,0-4.11a11.17,11.17,0,0,1,.29-2.72,13.42,13.42,0,0,1,26.52,1.81c.13,2.18.06,4.36.08,6.54,0,.72.31,1.1.84,1.08s.85-.38.84-1.11c0-2.33.09-4.66-.12-7a14.18,14.18,0,0,0-4.62-9.45,14.67,14.67,0,0,0-14.7-3.53,15,15,0,0,0-10.67,12.73c-.3,3.61,0,7.23-.07,10.85,0,.68.35,1,.9.95s.76-.47.76-1C874.11,604,874.12,602.27,874.11,600.59Zm.06,11.92h0c0-1,0-2.09,0-3.13a.89.89,0,0,0-.81-1c-.48,0-.82.35-.82,1q0,3.2,0,6.39c0,.61.35,1,.82,1s.84-.38.84-1C874.18,614.64,874.17,613.58,874.17,612.51Zm28.47-5.89c0-.3,0-.61,0-.91,0-.48-.31-.83-.83-.8a.79.79,0,0,0-.79.86c0,.54,0,1.08,0,1.62a.76.76,0,0,0,.81.82.74.74,0,0,0,.81-.81C902.65,607.14,902.64,606.88,902.64,606.62Z" transform="translate(-844.27 -441.93)"/><path class="cls-1" d="M879.59,616.83l.18,0a16.59,16.59,0,0,1,2.23,0l.18,0a12,12,0,0,1,2.29,1.29h0c.17.24.34.49.52.72s.24.32.42.2c.47-.32,1-.37,1.52-.65h1.29a14.11,14.11,0,0,1,1.59.62c.24.16.38,0,.45-.26l0,0v0a7.44,7.44,0,0,1,2.77-1.89l.19,0a11,11,0,0,1,2.22,0h.19a5.65,5.65,0,0,1,2.18,1.35c.54.73,1.09.54,1.7.2h.25a.62.62,0,0,0,.53,0,1,1,0,0,0,.57,0,6,6,0,0,1,2.26,1.22c.27.31.49.3.84.13a5,5,0,0,1,7.14,4,1.38,1.38,0,0,1-.51,1.38l-.2,0a3.42,3.42,0,0,0-.45,0l-43.63.2c-.3,0-.6,0-.91.05H865c-.41-.1-.77-.27-.84-.74a7.7,7.7,0,0,1-.05-.83l0-.11s0,0,0-.06a1.12,1.12,0,0,0,.16-.28,5,5,0,0,1,7.09-3.38c.16.08.34.19.48,0a6.16,6.16,0,0,1,2.5-1.44h.17a.91.91,0,0,0,.67,0,1.1,1.1,0,0,0,.57,0c.37.17.84.55,1.15.22A8.43,8.43,0,0,1,879.59,616.83Z" transform="translate(-844.27 -441.93)"/><path class="cls-4" d="M874.11,600.59c0,1.68,0,3.36,0,5,0,.55-.19.94-.76,1s-.9-.27-.9-.95c0-3.62-.23-7.24.07-10.85a15,15,0,0,1,10.67-12.73,14.67,14.67,0,0,1,14.7,3.53,14.18,14.18,0,0,1,4.62,9.45c.21,2.32.07,4.65.12,7,0,.73-.3,1.1-.84,1.11s-.83-.36-.84-1.08c0-2.18,0-4.36-.08-6.54a13.42,13.42,0,0,0-26.52-1.81,11.17,11.17,0,0,0-.29,2.72c0,1.37,0,2.74,0,4.11Z" transform="translate(-844.27 -441.93)"/><path class="cls-4" d="M881.21,608.8c0-.84,0-1.67,0-2.5,0-.55.14-.72.67-.75a9.75,9.75,0,0,1,1.79,0,2.12,2.12,0,0,1,.83,3.91c-.44.28-.44.28-.08.65s.6.58.89.88a.5.5,0,0,1,.06.77.53.53,0,0,1-.81,0l-1.93-1.9c-.07-.07-.14-.21-.26-.16s-.07.2-.07.3c0,.43,0,.86,0,1.29s-.22.7-.55.69-.51-.25-.52-.71C881.22,610.44,881.22,609.62,881.21,608.8Zm1.07-1v1c0,.11,0,.27.19.17a1.75,1.75,0,0,1,.93-.13,1.07,1.07,0,0,0,.51-2,1.82,1.82,0,0,0-1.49-.11c-.33.1-.08.6-.14.91A1,1,0,0,0,882.28,607.76Z" transform="translate(-844.27 -441.93)"/><path class="cls-4" d="M891.92,609.57c0,.64,0,1.22,0,1.8a.51.51,0,0,1-.39.53.49.49,0,0,1-.53-.15.64.64,0,0,1-.15-.46c0-1.71,0-3.42,0-5.13,0-.36.16-.63.56-.63a12.13,12.13,0,0,1,2,0,2.13,2.13,0,0,1,1.73,2.1,2.17,2.17,0,0,1-1.76,2.09A2,2,0,0,1,891.92,609.57Zm0-1.87v1c0,.1,0,.26.18.15a1.71,1.71,0,0,1,.89-.14,1.05,1.05,0,0,0,1.06-1.09,1,1,0,0,0-1.06-1h-.79c-.21,0-.31.06-.29.29S891.92,607.42,891.92,607.7Z" transform="translate(-844.27 -441.93)"/><path class="cls-4" d="M887.65,612c-.35,0-.69,0-1,0s-.56-.18-.54-.55a.48.48,0,0,1,.58-.5c.36,0,.46-.1.45-.47,0-1.14,0-2.28,0-3.42,0-.29-.05-.43-.38-.41s-.64-.08-.66-.51.19-.54.67-.56,1.22,0,1.83,0,.67.21.67.56-.2.52-.66.51c-.29,0-.38.09-.38.38,0,1.18,0,2.36,0,3.54,0,.29.08.38.38.38.47,0,.67.17.66.55s-.2.5-.66.51h-.92Z" transform="translate(-844.27 -441.93)"/><path class="cls-4" d="M874.17,612.51c0,1.07,0,2.13,0,3.2,0,.64-.31,1-.84,1s-.81-.37-.82-1q0-3.19,0-6.39c0-.62.34-1,.82-1a.89.89,0,0,1,.81,1c0,1,0,2.09,0,3.13Z" transform="translate(-844.27 -441.93)"/><path class="cls-4" d="M902.55,613.74c0,1.07,0,2.13,0,3.2,0,.64-.3,1-.83,1s-.82-.36-.82-1q0-3.19,0-6.39c0-.62.34-1,.82-1a.9.9,0,0,1,.82,1c0,1,0,2.09,0,3.13Z" transform="translate(-844.27 -441.93)"/><path class="cls-4" d="M902.64,606.62c0,.26,0,.52,0,.78a.74.74,0,0,1-.81.81.76.76,0,0,1-.81-.82c0-.54,0-1.08,0-1.62a.79.79,0,0,1,.79-.86c.52,0,.78.32.83.8C902.66,606,902.64,606.32,902.64,606.62Z" transform="translate(-844.27 -441.93)"/><path class="cls-4" d="M883.86,601.51a2.43,2.43,0,0,0,.43-.58.64.64,0,0,0,.32-.4s0-.06,0-.07c-.4-.07-.8-.16-1.2-.19a.45.45,0,0,0-.23,0l-1.78-.32-2.18-.37a.26.26,0,0,1-.22-.19c-.16-.49-.32-1-.49-1.45q-.83-2.35-1.66-4.7c-.07-.19,0-.21.15-.24l2-.33a.47.47,0,0,0,.43-.31,3.29,3.29,0,0,1,.21-.42l1.85-3.49c.16-.31.34-.61.51-.92.16.59.28,1.18.42,1.78.2.86.4,1.73.59,2.59s.41,1.81.61,2.71c.27,1.16.54,2.32.8,3.47.17.73.34,1.46.5,2.19,0,.15.08.17.22.14l3.41-.75a.87.87,0,0,1,.28,0c0,.18.15.28.24.42.36.53.74,1.05,1.11,1.58l0,0a.29.29,0,0,0,.1.23c.17.15,0,.15-.06.22s-.3,0-.33.23c-.36,0-.72,0-1.08,0s-.52.08-.59.39a.76.76,0,0,0-.26,0l-.85.05c-.51,0-1,0-1.53,0a18,18,0,0,1-2.19-.29c-.12,0-.12-.08-.06-.17a3.12,3.12,0,0,0,.34-.47A.88.88,0,0,0,883.86,601.51Zm-2-9.76-1.94,2s-.12.1-.06.17.12,0,.16-.06c.66-.65,1.31-1.31,2-2,0,0,.1-.07.08-.14s0-.05-.08-.05S881.93,591.71,881.89,591.75Zm1.58,6.16c0-.1-.13-.09-.21-.09l-2.09-.15a2.81,2.81,0,0,0-.5,0c-.06,0-.16,0-.16.06s.1.07.15.08c.21,0,.42,0,.62,0,.66.07,1.32.11,2,.16C883.33,597.94,883.47,598,883.47,597.91Zm-2-2.09,1.26-.31c.06,0,.13,0,.12-.09s-.1-.06-.15,0l-1.78.44-.56.14c-.06,0-.14,0-.13.09s.09,0,.14,0Z" transform="translate(-844.27 -441.93)"/><path class="cls-6" d="M882.3,587.4c.3-.09.61-.15.92-.21s.63-.08.93-.18c.47-.15,1-.12,1.44-.29a5.22,5.22,0,0,1,.57-.11c.19,0,.38-.09.58-.12a9.15,9.15,0,0,1,.91-.18,7.51,7.51,0,0,0,.94-.21c.21-.06.42-.06.63-.1s.67-.15,1-.22c.18,0,.37,0,.55-.09l1-.21a1.84,1.84,0,0,0,.25-.05c.15,0,.2,0,.24.15.29,1.18.59,2.35.89,3.52l1.2,4.69c.33,1.32.67,2.64,1,4,.07.27.06.27-.22.35,0,0,0,0-.06,0a2.6,2.6,0,0,0-.67.15c-.41.05-.81.19-1.21.26s-.92.24-1.4.32c-.1,0-.2.07-.3.1a6.59,6.59,0,0,0-1.06.27,2.71,2.71,0,0,0-.63.13l-.51.11-.48.12a.87.87,0,0,0-.28,0l-3.41.75c-.14,0-.19,0-.22-.14-.16-.73-.33-1.46-.5-2.19-.26-1.15-.53-2.31-.8-3.47-.2-.9-.4-1.81-.61-2.71s-.39-1.73-.59-2.59c-.14-.6-.26-1.19-.42-1.78C882,587.35,882.18,587.43,882.3,587.4Zm1.45,2.34c.19.77.37,1.53.56,2.29l.72,2.9c.23,1,.47,2,.71,2.92.06.24.12.47.17.71s.09.19.24.15l1.93-.45,2.41-.55,3.31-.78c.14,0,.17-.09.13-.23l-.93-3.55c-.4-1.51-.79-3-1.19-4.53-.14-.55-.3-1.11-.43-1.66,0-.17-.12-.21-.29-.17l-3.42.7-4,.83c-.09,0-.21,0-.21.12C883.55,588.9,883.65,589.32,883.75,589.74Z" transform="translate(-844.27 -441.93)"/><path class="cls-7" d="M882,591.66s-.08.05-.12.09l-1.94,2s-.12.1-.06.17.12,0,.16-.06c.66-.65,1.31-1.31,2-2,0,0,.1-.07.08-.14S882.05,591.66,882,591.66Z" transform="translate(-844.27 -441.93)"/><path class="cls-7" d="M883.28,598c.05,0,.19,0,.19-.05s-.13-.09-.21-.09l-2.09-.15a2.81,2.81,0,0,0-.5,0c-.06,0-.16,0-.16.06s.1.07.15.08c.21,0,.42,0,.62,0C881.94,597.87,882.6,597.91,883.28,598Z" transform="translate(-844.27 -441.93)"/><path class="cls-7" d="M880.35,596.08l1.1-.26,1.26-.31c.06,0,.13,0,.12-.09s-.1-.06-.15,0l-1.78.44-.56.14c-.06,0-.14,0-.13.09S880.3,596.07,880.35,596.08Z" transform="translate(-844.27 -441.93)"/><path class="cls-8" d="M883.43,588.44c.12.46.22.88.32,1.3.19.77.37,1.53.56,2.29l.72,2.9c.23,1,.47,2,.71,2.92.06.24.12.47.17.71s.09.19.24.15l1.93-.45,2.41-.55,3.31-.78c.14,0,.17-.09.13-.23l-.93-3.55c-.4-1.51-.79-3-1.19-4.53-.14-.55-.3-1.11-.43-1.66,0-.17-.12-.21-.29-.17l-3.42.7-4,.83C883.55,588.33,883.43,588.32,883.43,588.44Z" transform="translate(-844.27 -441.93)"/><polygon class="cls-5" points="45.4 145.22 45.19 146.98 45.86 147.51 46.19 149.14 45.6 147.62 44.59 147.07 44.56 145.39 45.4 145.22"/><polygon class="cls-5" points="41 153.92 42.24 153.64 42.63 152.25 42.81 154.08 41.69 154.52 41.29 155.12 41 153.92"/><path class="cls-3" d="M1027.82,616.22l-.35-.06a4.76,4.76,0,0,0-3.54,0l-.36.06a5.85,5.85,0,0,0-3,1.33,2.48,2.48,0,0,1-1.83.66,2.61,2.61,0,0,0-1.36,0,1.63,1.63,0,0,0-1.37.25l-.52.11a1.33,1.33,0,0,0-1,.51l-.19.06a2.49,2.49,0,0,1-2.06.27,1.71,1.71,0,0,0-.84-.1c-1-.08-1.09-.67-1.07-1.54.06-2.59,0-5.17,0-7.76a5.54,5.54,0,0,0-.14-1.77.59.59,0,0,0,0-.52,7.6,7.6,0,0,0,0-2.38,13.11,13.11,0,0,0,0-2.73,1.49,1.49,0,0,0,.13-.39c0-4.42-.07-8.85.09-13.27l.11-1a.66.66,0,0,0,.16-.68,24.37,24.37,0,0,1,7-12.91,1.48,1.48,0,0,0,.13-.21.39.39,0,0,0,.38-.33h0a.39.39,0,0,0,.37-.33h0a.61.61,0,0,0,.49-.4,2.79,2.79,0,0,0,1-.78,1.46,1.46,0,0,0,.87-.59h0a.54.54,0,0,0,.45-.3h0l0,0a5,5,0,0,0,1.44-.84h.06l0-.06a5.88,5.88,0,0,0,1.6-.81s.08,0,.11,0a19.92,19.92,0,0,0,2.87-1.09l.36-.07a14.72,14.72,0,0,0,2.55-.58l.36,0a3.15,3.15,0,0,0,1.63-.24h4.07l4.37.83.24,0a26.5,26.5,0,0,0,3,1.15c0,.05.07.06.11,0,1.66.89,3.26,1.86,4.84,2.89h0a21.27,21.27,0,0,0,2.38,2.07h0a.86.86,0,0,0,.52.52h0c0,.21.16.31.36.36l.1.12c.08.44.46.64.74.91l.26.29c1.16,1.71,2.19,3.49,3.19,5.29,0,.35.2.58.34.86a.41.41,0,0,0,.24.49l.07.37a.44.44,0,0,0,.18.51l.08.33a.74.74,0,0,0,.24.7l.05.33c0,.19-.06.39.15.51a1.6,1.6,0,0,0,.16.86,1.3,1.3,0,0,0,.2,1,2.57,2.57,0,0,0,.1,1c0,1,.08,2,.08,3q0,12.7,0,25.4c0,1.42,0,1.42-1.22,1.86l-.51.06a2.5,2.5,0,0,1-2.22-.26l-.2-.06c-.08-.16-.12-.35-.31-.44q0-4.08.05-8.17a1.25,1.25,0,0,0-.15-.39c-.39-.85-1-1-1.64-.34h0c-.4.18-.36.55-.36.88q0,3.75,0,7.5l-1,.07a.43.43,0,0,0-.52,0l-.33,0c-.51-.07-1.07.06-1.52-.3a.43.43,0,0,0-.43-.32,1,1,0,0,0-.75-.52h0a2.78,2.78,0,0,0-.4-.3,8.3,8.3,0,0,0-8.82.68c-.83.58-1.56,1.12-2.61.8a.61.61,0,0,0-.51,0,4.15,4.15,0,0,0-2.49.1,1.34,1.34,0,0,1-1.28-.33A6.93,6.93,0,0,0,1027.82,616.22ZM1017,597h0c0-1.79,0-3.59,0-5.38a15.09,15.09,0,0,1,.39-3.55,17.52,17.52,0,0,1,34.6,2.54c.16,2.83.06,5.68.08,8.52,0,.94.39,1.44,1.08,1.42s1.12-.5,1.1-1.44c0-3,.15-6.08-.12-9.12a18.51,18.51,0,0,0-6-12.36A19.2,19.2,0,0,0,1029,572.9a19.61,19.61,0,0,0-14,16.56c-.4,4.7-.1,9.43-.15,14.15,0,.88.45,1.33,1.16,1.24s1-.6,1-1.33C1016.94,601.34,1017,599.15,1017,597Zm0,15.55h0c0-1.36,0-2.72,0-4.09a1.16,1.16,0,0,0-1.06-1.29c-.62,0-1.07.45-1.07,1.26,0,2.78,0,5.56,0,8.34,0,.8.44,1.29,1.06,1.28s1.1-.49,1.1-1.33C1017,615.29,1017,613.9,1017,612.51Zm37.2-7.52a11.61,11.61,0,0,0,0-1.18c-.06-.63-.39-1.09-1.08-1.06a1.05,1.05,0,0,0-1,1.12c0,.7,0,1.41,0,2.12a1,1,0,0,0,1,1.07,1,1,0,0,0,1.07-1C1054.16,605.67,1054.15,605.33,1054.15,605Z" transform="translate(-844.27 -441.93)"/><path class="cls-1" d="M1024,618.18l.24,0a20.19,20.19,0,0,1,2.91,0l.24,0a14.9,14.9,0,0,1,3,1.7h0c.22.32.43.64.67.94s.31.42.55.26c.61-.41,1.36-.47,2-.84h1.68a20.39,20.39,0,0,1,2.08.82c.31.21.5,0,.59-.34l0,0v0a9.93,9.93,0,0,1,3.64-2.45l.24,0a16.52,16.52,0,0,1,2.9,0l.24,0a7.11,7.11,0,0,1,2.84,1.78c.71.95,1.42.71,2.23.27h.32a.83.83,0,0,0,.69,0,1.33,1.33,0,0,0,.74,0,7.63,7.63,0,0,1,2.94,1.61c.35.39.64.38,1.1.16a6.56,6.56,0,0,1,9.3,5.24,1.82,1.82,0,0,1-.68,1.79l-.26,0a5.87,5.87,0,0,0-.59,0h-56.93c-.4,0-.79,0-1.19.06H1005c-.54-.14-1-.36-1.1-1-.05-.36,0-.72-.06-1.08a.42.42,0,0,0,0-.15s0-.05,0-.07a1.43,1.43,0,0,0,.2-.36,6.53,6.53,0,0,1,9.28-4.37c.21.1.44.25.63.05a8.32,8.32,0,0,1,3.26-1.87h.23a1.24,1.24,0,0,0,.87,0,1.33,1.33,0,0,0,.74,0c.49.22,1.09.73,1.51.29A11.12,11.12,0,0,1,1024,618.18Z" transform="translate(-844.27 -441.93)"/><path class="cls-4" d="M1017,597c0,2.19,0,4.38,0,6.56,0,.73-.25,1.24-1,1.33s-1.17-.36-1.16-1.24c.05-4.72-.25-9.45.15-14.15a19.61,19.61,0,0,1,14-16.56,19.2,19.2,0,0,1,19.16,4.69,18.51,18.51,0,0,1,6,12.36c.27,3,.08,6.08.12,9.12,0,.94-.4,1.42-1.1,1.44s-1.08-.48-1.08-1.42c0-2.84.08-5.69-.08-8.52a17.52,17.52,0,0,0-34.6-2.54,15.09,15.09,0,0,0-.39,3.55c0,1.79,0,3.59,0,5.38Z" transform="translate(-844.27 -441.93)"/><path class="cls-4" d="M1026.17,607.71c0-1.09,0-2.18,0-3.27,0-.71.18-.94.87-1a14.07,14.07,0,0,1,2.34,0,2.83,2.83,0,0,1,2.33,2.21,2.8,2.8,0,0,1-1.27,2.9c-.58.36-.58.36-.11.84s.78.77,1.15,1.16.41.65.08,1a.69.69,0,0,1-1.06,0c-.84-.82-1.67-1.66-2.5-2.49-.1-.1-.19-.27-.35-.21s-.09.26-.09.39c0,.56,0,1.12,0,1.68s-.29.91-.73.9-.66-.32-.67-.93Zm1.4-1.36v1.26c0,.15,0,.35.24.23a2.24,2.24,0,0,1,1.22-.17,1.35,1.35,0,0,0,1.25-.95,1.38,1.38,0,0,0-.58-1.62,2.37,2.37,0,0,0-1.94-.15c-.43.13-.1.78-.19,1.19A1.47,1.47,0,0,0,1027.57,606.35Z" transform="translate(-844.27 -441.93)"/><path class="cls-4" d="M1040.15,608.78v2.35a.69.69,0,0,1-.51.69.62.62,0,0,1-.69-.2.8.8,0,0,1-.2-.6c0-2.23,0-4.47,0-6.7,0-.47.22-.82.74-.82a15.17,15.17,0,0,1,2.61,0,2.79,2.79,0,0,1,2.25,2.75A2.85,2.85,0,0,1,1042,609,2.65,2.65,0,0,1,1040.15,608.78Zm0-2.44v1.3c0,.14,0,.35.24.2a2,2,0,0,1,1.16-.17,1.39,1.39,0,0,0,1.39-1.42,1.35,1.35,0,0,0-1.38-1.36h-1c-.27,0-.39.07-.37.37S1040.15,606,1040.15,606.34Z" transform="translate(-844.27 -441.93)"/><path class="cls-4" d="M1034.56,611.86c-.46,0-.91,0-1.36,0s-.73-.23-.7-.71a.62.62,0,0,1,.75-.66c.48,0,.61-.13.6-.61,0-1.48,0-3,0-4.46,0-.38-.07-.57-.5-.54s-.83-.11-.85-.67.24-.71.87-.73c.79,0,1.59,0,2.39,0,.59,0,.88.28.87.74s-.27.67-.87.66c-.37,0-.5.11-.49.49,0,1.54,0,3.09,0,4.63,0,.37.11.5.49.49.61,0,.87.23.86.72s-.26.65-.87.67h-1.19Z" transform="translate(-844.27 -441.93)"/><path class="cls-4" d="M1017,612.51c0,1.39,0,2.78,0,4.17,0,.84-.4,1.32-1.1,1.33s-1.06-.48-1.06-1.28c0-2.78,0-5.56,0-8.34,0-.81.45-1.29,1.07-1.26a1.16,1.16,0,0,1,1.06,1.29c0,1.37,0,2.73,0,4.09Z" transform="translate(-844.27 -441.93)"/><path class="cls-4" d="M1054,614.29c0,1.39,0,2.78,0,4.17,0,.84-.4,1.31-1.1,1.33s-1.06-.48-1.06-1.28q0-4.17,0-8.35c0-.81.45-1.28,1.08-1.25a1.16,1.16,0,0,1,1.06,1.29c0,1.36,0,2.73,0,4.09Z" transform="translate(-844.27 -441.93)"/><path class="cls-4" d="M1054.15,605c0,.34,0,.68,0,1a1,1,0,0,1-1.07,1,1,1,0,0,1-1-1.07c0-.71,0-1.42,0-2.12a1.05,1.05,0,0,1,1-1.12c.69,0,1,.43,1.08,1.06A11.61,11.61,0,0,1,1054.15,605Z" transform="translate(-844.27 -441.93)"/><path class="cls-4" d="M1040.07,596.32c0,1.08.15,2.15.16,3.23a1.5,1.5,0,0,1-1.32,1.76h-8c-1.29,0-1.61-.28-1.62-1.38,0-3,0-6-.15-8.93s0-6.18-.1-9.27c0-1,.46-1.36,1.57-1.36.79,0,1.59,0,2.39,0a1.57,1.57,0,0,0,.91-.21c.32.35.71.18,1.09.1h.39a1.15,1.15,0,0,0,.89,0l.38,0c1.29,0,1.19.11,1.18-1v-3.16c.9,0,.9,0,.91.75,0,1,0,1.95,0,2.93,0,.25,0,.48.31.62a1.45,1.45,0,0,1,.84,1.48q0,3.06,0,6.13c0,1.42,0,2.83,0,4.25a.86.86,0,0,0,.11.6,13.09,13.09,0,0,0,.12,2.58C1040.2,595.74,1039.79,596,1040.07,596.32Zm-8.8-10.21h0V587c0,1,0,1.95,0,2.93,0,.24-.06.57.49.55q2.65-.06,5.31,0c.59,0,.79-.14.77-.67-.07-2.38-.1-4.76-.13-7.14,0-.42-.16-.56-.63-.55-1.75,0-3.5,0-5.25,0-.49,0-.63.16-.62.57C1031.28,583.78,1031.27,584.94,1031.27,586.11Zm0,7.88c1.1,0,1,0,1.09-.87,0-.57-.2-.78-.85-.7a5.73,5.73,0,0,1-.83,0c-.16,0-.33,0-.35.19a2,2,0,0,0,0,1.21C1030.51,594.15,1031,593.92,1031.23,594Zm6.59,5.52c1.08,0,1.08,0,1.08-.75s0-.81-.93-.81h-.71c-.15,0-.34,0-.37.17a2,2,0,0,0,0,1.22C1037.09,599.67,1037.55,599.45,1037.82,599.51Zm-3.27.09c1,0,1,0,1-.8s0-.77-1.14-.76c-.8,0-.9.08-.89.75S1033.59,599.6,1034.55,599.6Zm3.29-2.91c1,0,1,0,1-.36,0-1.19,0-1.19-.87-1.2-1.11,0-1.11,0-1.12.73S1036.84,596.69,1037.84,596.69Zm-3.33-4.27c-1,0-1,0-1,.74s0,.82,1,.82.94,0,.94-.73S1035.44,592.42,1034.51,592.42Zm-3.21,7.19c1,0,1,0,1-.65,0-.91,0-.91-1-.91s-.93,0-.93.84S1030.37,599.61,1031.3,599.61Zm-.06-2.82c1.09,0,1.06,0,1.09-.88,0-.54-.17-.76-.8-.68-.25,0-.51,0-.76,0s-.34,0-.37.16a2.11,2.11,0,0,0,0,1.22C1030.56,596.94,1031,596.73,1031.24,596.79Zm3.26-.08c1.09,0,1.09,0,1-1v-.17c0-.22-.12-.35-.39-.35h-1.29a.34.34,0,0,0-.34.2C1033.17,596.18,1033.58,596.71,1034.5,596.71Zm3.27-2.83c1,0,1,0,1-.92a2.46,2.46,0,0,0,0-.28.27.27,0,0,0-.28-.26h-1.35a.28.28,0,0,0-.3.25c0,.29,0,.59-.07.89s.13.31.36.32Z" transform="translate(-844.27 -441.93)"/></svg>