<svg id="Layer_1" data-name="Layer 1" xmlns="http://www.w3.org/2000/svg" viewBox="0 0 94.55 86"><defs><style>.cls-1{fill:#b3c041;}.cls-2{fill:#f0e8d3;}.cls-3{fill:#fff;}.cls-4{fill:#735636;}</style></defs><title>land</title><path class="cls-1" d="M967.9,541.08c1.09,1.3,2.17,2.62,3.36,3.82,6.22,6.25,13.69,8.93,22.46,7.56a38.51,38.51,0,0,0,12.81-4.76c.74-.4.57-1.06.39-1.68a39.81,39.81,0,0,0-4.59-10.45,25.79,25.79,0,0,0-10.74-9.9,23.83,23.83,0,0,0-12.12-2.09c-10.35,2.46-14.65,6.75-15.63,7.51" transform="translate(-912.52 -497.51)"/><path class="cls-1" d="M965.15,531.37c-3.57,0-6.53-2.67-10.11-2.69-2.53,0-5.58,1.19-6,4-.13,1,1.35,1.38,1.48.4.34-2.46,3.34-3.13,5.44-2.81a20.38,20.38,0,0,1,4.4,1.49,13.59,13.59,0,0,0,4.77,1.13.77.77,0,0,0,0-1.53Z" transform="translate(-912.52 -497.51)"/><path class="cls-1" d="M949.12,568.17l1.88-30.4c.2-3.25.33-6.84-1.22-9.22a99.13,99.13,0,0,0-6.2,41.88l3.63-.68" transform="translate(-912.52 -497.51)"/><path class="cls-1" d="M913.56,509.84c1.92-5.76,6-9.55,11.72-11.7,7-2.21,11.06,2.2,11,1.37v.23A14,14,0,0,1,946.42,510a5.13,5.13,0,0,0-4.17-2.67,6.49,6.49,0,0,0-5.48,1.89c-.24-.61-1,1.77-1.25,2.2a20.57,20.57,0,0,1-4,5.95,21.06,21.06,0,0,1-15.85,6.26c-2.3,0-2.37-.09-2.72-2.36A24.38,24.38,0,0,1,913.56,509.84Z" transform="translate(-912.52 -497.51)"/><path class="cls-1" d="M946.72,512.26a12.07,12.07,0,0,0-.3-2.23A3.31,3.31,0,0,1,946.72,512.26Z" transform="translate(-912.52 -497.51)"/><path class="cls-1" d="M936.47,507.47a7.94,7.94,0,0,1,7.55,1.89,13.73,13.73,0,0,1,4,7.59c1.41,6.23,1.17,13,.41,19.32-.12,1,1.41,1,1.53,0a71.67,71.67,0,0,0,.47-11.53A37.61,37.61,0,0,0,949,514.51c-1.74-5.32-6.89-10.4-12.91-8.52-.94.3-.54,1.78.41,1.48Z" transform="translate(-912.52 -497.51)"/><path class="cls-2" d="M928.27,516.9c0,.35,0,.7,0,1.05a.56.56,0,0,1-.59.59h-1.42c-.2,0-.23-.07-.22-.24,0-.59,0-1.18,0-1.78,0-.15,0-.21-.2-.2h-.67c-.19,0-.25,0-.25.23,0,.59,0,1.17,0,1.76,0,.17,0,.24-.22.23h-1.78c-.18,0-.23,0-.23-.23,0-.6,0-1.2,0-1.8,0-.15,0-.2-.19-.19h-.7c-.18,0-.23,0-.23.22,0,.6,0,1.19,0,1.79,0,.17-.05.21-.22.21H920a.58.58,0,0,1-.65-.65c0-.61,0-1.21,0-1.81a.8.8,0,0,0-.26-.63,6.42,6.42,0,0,1-1.82-6.09A6.67,6.67,0,1,1,929,515c-.23.27-.61.45-.67.82a6.45,6.45,0,0,0,0,1.08Zm0-5.59A1.67,1.67,0,1,0,926.6,513,1.66,1.66,0,0,0,928.27,511.31Zm-8.91,0a1.68,1.68,0,0,0,3.35,0,1.68,1.68,0,0,0-3.35,0Z" transform="translate(-912.52 -497.51)"/><path class="cls-3" d="M991.09,545c0,.46,0,.92,0,1.38a.71.71,0,0,1-.77.75c-.62,0-1.23,0-1.84,0-.25,0-.3-.09-.29-.31,0-.77,0-1.54,0-2.31,0-.2-.05-.28-.26-.27a6.46,6.46,0,0,1-.88,0c-.24,0-.32,0-.31.3,0,.76,0,1.52,0,2.28,0,.23,0,.31-.29.31q-1.15,0-2.31,0c-.24,0-.3-.07-.3-.3,0-.78,0-1.56,0-2.34,0-.2,0-.26-.25-.25s-.6,0-.9,0-.3.06-.3.29c0,.77,0,1.55,0,2.32,0,.22-.06.28-.28.27h-1.78a.73.73,0,0,1-.84-.84c0-.78,0-1.57,0-2.35a1,1,0,0,0-.34-.81,8.38,8.38,0,0,1-2.36-7.9A8.66,8.66,0,1,1,992,542.49c-.29.35-.78.58-.87,1.06a8.15,8.15,0,0,0,0,1.4Zm0-7.25a2.17,2.17,0,1,0-2.17,2.16A2.16,2.16,0,0,0,991.09,537.7Zm-11.56,0a2.17,2.17,0,1,0,2.14-2.18A2.17,2.17,0,0,0,979.53,537.73Z" transform="translate(-912.52 -497.51)"/><path class="cls-4" d="M954.53,568.17a19.9,19.9,0,0,0-5.58-.84c-4.91.36-9,2.57-12.63,5.73a2.28,2.28,0,0,1-2.7.51c-3.54-1.4-7.07-1.5-10.24,1-2.62,2.05-3.89,5-4.73,8.09-.23.85.37.86,1,.86h52c1.8,0,1.95-.2,1.56-2-1.12-5.2-5.06-8-10.15-8.44a4.54,4.54,0,0,1-3.46-1.5C958.21,570,956.27,569.21,954.53,568.17Z" transform="translate(-912.52 -497.51)"/></svg>