<svg id="Layer_1" data-name="Layer 1" xmlns="http://www.w3.org/2000/svg" viewBox="0 0 470.59 471.01"><defs><style>.cls-1{fill:#8db22f;}.cls-2{fill:#999fa8;}.cls-3{font-size:14.81px;fill:#fff;font-family:DINAlternate-Bold, DIN Alternate;font-weight:700;}.cls-4{font-size:14px;font-family:HiraginoSans-W6-83pv-RKSJ-H, Hiragino Sans;}.cls-4,.cls-5{fill:#498c7c;}.cls-6{fill:#a98b66;}.cls-7{fill:#9f7e57;}.cls-8{fill:#846948;}.cls-9{fill:#846947;}.cls-10{fill:#7f623e;}.cls-11{fill:#b2e5fb;}.cls-12{letter-spacing:-0.05em;}.cls-13{letter-spacing:-0.07em;}</style></defs><title>link</title><path class="cls-1" d="M958,655.87c-.08-4.18-.4-41.86-.4-41.86h-6.93v44.85c-.09,31.35,17.25,36.38,41,36.38h200.16c4.75,0,4.61-6.37,0-6.37,0,0-188.15.28-200.46,0C975.28,688.45,958.52,684.85,958,655.87Z" transform="translate(-724.79 -301.22)"/><path class="cls-1" d="M946.49,334.21v69.85h-6.25c0-30.73,0-57.33-.13-62.12-.49-20.35-16.62-33.8-30.62-33.8H865.27v-6.92H913.6C928.47,302.42,941.39,311.42,946.49,334.21Z" transform="translate(-724.79 -301.22)"/><rect class="cls-2" x="58.84" y="299" width="42.25" height="35.82"/><text class="cls-3" transform="translate(62.16 324.18)">metal </text><text class="cls-4" transform="translate(4.16 401.06)">REUSE</text><path class="cls-5" d="M767.1,681.77c-1.39,0-2.79,0-4.18,0-.82,0-1,.27-1,1.07,0,2,0,2-1.75,1L755.2,681c-.74-.41-.78-.79,0-1.22l5.54-3.17c.95-.53,1.13-.42,1.16.64a7.21,7.21,0,0,1,0,.93c0,.57.15.86.78.85,2.86,0,5.73.06,8.59,0,1.93-.06,2.85-2,1.85-3.73-1.92-3.4-3.84-6.81-5.88-10.14-.78-1.28.26-1.35.86-1.82.78-.62,1.14-.3,1.56.45,1.9,3.36,3.86,6.7,5.78,10.06,2.2,3.85-.15,7.89-4.6,7.94H767.1Z" transform="translate(-724.79 -301.22)"/><path class="cls-5" d="M744.29,681.77c-1.89,0-3.79,0-5.68,0a5.1,5.1,0,0,1-4.53-7.92c1.31-2.28,2.59-4.58,3.95-6.83.46-.75.34-1.1-.41-1.52-1.73-1-1.71-1,0-2s3.22-1.85,4.82-2.79c.71-.42,1.14-.43,1.13.59,0,2.16,0,4.33,0,6.49,0,.9-.33,1-1.05.59-1.67-.87-1.68-.85-2.65.82-1.14,2-2.3,3.94-3.42,5.93s-.13,3.9,2.31,3.91c3.83,0,7.66.05,11.48,0,1.2,0,1.17.59,1.18,1.44s0,1.38-1.14,1.34C748.32,681.71,746.3,681.77,744.29,681.77Z" transform="translate(-724.79 -301.22)"/><path class="cls-5" d="M766.52,656.7V660c0,.76-.3,1-1,.6l-5.82-3.38c-.68-.39-.52-.7,0-1.08,1.65-1.13,1.64-1.14.6-2.94s-2.18-3.83-3.3-5.73c-1.25-2.1-3.31-2.09-4.55,0-1.93,3.31-3.88,6.6-5.72,10-.57,1-1,.82-1.79.34s-1.33-.6-.66-1.69c2-3.26,3.85-6.62,5.78-9.93,2.33-4,7-4,9.37,0,1.28,2.21,2.58,4.41,3.81,6.65.43.78.81.82,1.54.38,1.67-1,1.72-1,1.72.95v2.56Z" transform="translate(-724.79 -301.22)"/><path class="cls-6" d="M778.72,512.69a5.54,5.54,0,0,1,2.5-4.68.73.73,0,0,0,.34-.85c-.51-3.33.75-6.41,3.72-7.83.34-.16.4-.35.35-.74-.32-2.18,0-4.15,1.9-5.59a.53.53,0,0,0,.22-.55,6.63,6.63,0,0,1,1.26-4.6c.65-1,.55-2.18.64-3.3a11.3,11.3,0,0,1,1-4.43,5.42,5.42,0,0,1,2.75-2.61,1.54,1.54,0,0,0,.87-1c.87-2.32,2-4.52,4.1-5.94,2.7-1.78,5.56-1.25,7.61,1.36a11.86,11.86,0,0,1,2,4.15c.11.34.15.65.67.71,5.21.64,7.92,4.84,6.31,9.88-.33,1-.39,1.56.6,2.32a6.1,6.1,0,0,1,2.51,5.13,3,3,0,0,1,0,.95,2.55,2.55,0,0,0,.65,2.51,4.8,4.8,0,0,1,.25,5.48.72.72,0,0,0,0,.91,4.54,4.54,0,0,1,.83,2.42,6.62,6.62,0,0,1-6.33,6.48,11.64,11.64,0,0,0,.59-3.31c.1-.86-.25-1.4-.84-1.43s-1,.36-1,1.34a6.69,6.69,0,0,1-.19,1.79,4.41,4.41,0,0,1-1.92,3,1.28,1.28,0,0,0-.73,1.41.41.41,0,0,1-.42.16,1.64,1.64,0,0,0-1.77.82,4.15,4.15,0,0,1-1.32,1.1l-.3,0c-.52-.4-.94,0-1.36.22-2,.92-4.59,1-5.8-1.4a1.32,1.32,0,0,0-.82-.58,5.32,5.32,0,0,1-3.36-3.88c-.2-.68-.68-1-1.24-.81s-.62.75-.5,1.25a6.83,6.83,0,0,0,4.11,5,1.22,1.22,0,0,1,.55.42,6.57,6.57,0,0,0,1.94,1.81,9.72,9.72,0,0,1-3.8,0,9.56,9.56,0,0,1-6.28-3.5.63.63,0,0,0-.69-.27,3.92,3.92,0,0,1-3.74-.94,4.62,4.62,0,0,0-2.68-1.26A16,16,0,0,1,778.72,512.69Z" transform="translate(-724.79 -301.22)"/><path class="cls-6" d="M806.9,500c0,1.26.13,1.5.94,1.67a2,2,0,0,1,1.91,2.18c0,.56.18,1.07.85,1.13s1-.39,1-1.13c.09-1-.81-3.26-2.28-3.64-.41-.11-.55-.32-.59-.77a4.74,4.74,0,0,0-2.59-4,.89.89,0,0,0-1.34.36c-.32.6,0,1,.47,1.24A2.92,2.92,0,0,1,806.9,500Z" transform="translate(-724.79 -301.22)"/><path class="cls-6" d="M793.61,492.18a.83.83,0,0,0,.7,1c.54.14.82-.23,1-.66a3.34,3.34,0,0,0,.17-.44,2.44,2.44,0,0,1,2.38-1.83c.73,0,1-.38,1-1.11a2.91,2.91,0,0,1,1.86-3.34.77.77,0,0,0,.39-1.13.87.87,0,0,0-1.09-.54,4,4,0,0,0-2.88,3.49c0,.75-.35,1-1,1.18A4.17,4.17,0,0,0,793.61,492.18Z" transform="translate(-724.79 -301.22)"/><path class="cls-6" d="M791.09,506.15a6.32,6.32,0,0,0,0,.87c.07.63.58,1.12,1,1a1,1,0,0,0,.82-1.29,2.25,2.25,0,0,1,1.4-2.73,1.2,1.2,0,0,0,.76-1,2.09,2.09,0,0,1,.92-1.67c.91-.45.61-1.05.48-1.74-.08-.47-.28-.47-.62-.33a3.87,3.87,0,0,0-2.32,2.51,1.43,1.43,0,0,1-.63.94A3.59,3.59,0,0,0,791.09,506.15Z" transform="translate(-724.79 -301.22)"/><path class="cls-6" d="M801.6,474.72a3,3,0,0,0-.49,0,4.78,4.78,0,0,0-.67.22,7.36,7.36,0,0,0-4.61,5c-.21.74,0,1.32.62,1.43s.95-.34,1.13-.92a5.35,5.35,0,0,1,3.06-3.59c.38-.17.79-.29,1.17-.47s.78-.52.63-1A.85.85,0,0,0,801.6,474.72Z" transform="translate(-724.79 -301.22)"/><path class="cls-6" d="M786,511.91a1.47,1.47,0,0,0-1.43,1.41,1.55,1.55,0,0,0,1.51,1.59,1.64,1.64,0,0,0,1.49-1.47A1.56,1.56,0,0,0,786,511.91Z" transform="translate(-724.79 -301.22)"/><path class="cls-6" d="M809.24,485.5a1.43,1.43,0,1,0,0-2.85,1.41,1.41,0,0,0-1.44,1.43A1.27,1.27,0,0,0,809.24,485.5Z" transform="translate(-724.79 -301.22)"/><path class="cls-7" d="M805.93,517.78a4.15,4.15,0,0,0,1.32-1.1,1.64,1.64,0,0,1,1.77-.82.41.41,0,0,0,.42-.16c.77.62,1.11.63,1.92,0a7.43,7.43,0,0,0,2.18-2.88,6.62,6.62,0,0,0,6.33-6.48A4.54,4.54,0,0,0,819,504a.72.72,0,0,1,0-.91,4.8,4.8,0,0,0-.25-5.48,2.55,2.55,0,0,1-.65-2.51,3,3,0,0,0,0-.95,8,8,0,0,1,3.52,7.79,2.23,2.23,0,0,0,.46,1.73,4.84,4.84,0,0,1,.48,5.87c-.14.24-.24.42,0,.7,2,2.81.48,6-1.54,7.62a6,6,0,0,1-3.22,1.38.66.66,0,0,0-.57.35,5.71,5.71,0,0,1-5,2.73,1.37,1.37,0,0,0-1.07.51,11,11,0,0,1-6.91,3.46,13.61,13.61,0,0,1-8.7-1.09,8.36,8.36,0,0,1-2.81-2.27.81.81,0,0,0-.85-.38,5.08,5.08,0,0,1-4.39-1.5,2.2,2.2,0,0,0-1.25-.58,10.34,10.34,0,0,1-6.76-3.86,4.76,4.76,0,0,1-.81-3.88,16,16,0,0,0,3.24,1.16,4.62,4.62,0,0,1,2.68,1.26,3.92,3.92,0,0,0,3.74.94.63.63,0,0,1,.69.27,9.56,9.56,0,0,0,6.28,3.5,9.72,9.72,0,0,0,3.8,0c.31.13.58.36,1,.32,1.79.76,3.44.13,5.06-.57C806.17,519.13,806.26,518.84,805.93,517.78Z" transform="translate(-724.79 -301.22)"/><path class="cls-8" d="M800.1,520.14c-.37,0-.64-.19-1-.32a6.57,6.57,0,0,1-1.94-1.81,1.22,1.22,0,0,0-.55-.42,6.83,6.83,0,0,1-4.11-5c-.12-.5-.1-1,.5-1.25s1,.13,1.24.81a5.32,5.32,0,0,0,3.36,3.88,1.32,1.32,0,0,1,.82.58c1.21,2.44,3.81,2.32,5.8,1.4.42-.2.84-.62,1.36-.22a.53.53,0,0,1-.33.49,13,13,0,0,1-4.61,1.57C800.45,519.85,800.14,519.76,800.1,520.14Z" transform="translate(-724.79 -301.22)"/><path class="cls-8" d="M806.9,500a2.92,2.92,0,0,0-1.59-2.93c-.45-.26-.79-.64-.47-1.24a.89.89,0,0,1,1.34-.36,4.74,4.74,0,0,1,2.59,4c0,.45.18.66.59.77,1.47.38,2.37,2.62,2.28,3.64-.07.74-.46,1.19-1,1.13s-.82-.57-.85-1.13a2,2,0,0,0-1.91-2.18C807,501.46,806.9,501.22,806.9,500Z" transform="translate(-724.79 -301.22)"/><path class="cls-8" d="M793.61,492.18a4.17,4.17,0,0,1,2.56-3.38c.61-.2.93-.43,1-1.18a4,4,0,0,1,2.88-3.49.87.87,0,0,1,1.09.54.77.77,0,0,1-.39,1.13,2.91,2.91,0,0,0-1.86,3.34c0,.73-.24,1.07-1,1.11a2.44,2.44,0,0,0-2.38,1.83,3.34,3.34,0,0,1-.17.44c-.2.43-.48.8-1,.66A.83.83,0,0,1,793.61,492.18Z" transform="translate(-724.79 -301.22)"/><path class="cls-8" d="M791.09,506.15a3.59,3.59,0,0,1,1.86-3.39,1.43,1.43,0,0,0,.63-.94,3.87,3.87,0,0,1,2.32-2.51c.34-.14.54-.14.62.33.13.69.43,1.29-.48,1.74a2.09,2.09,0,0,0-.92,1.67,1.2,1.2,0,0,1-.76,1,2.25,2.25,0,0,0-1.4,2.73,1,1,0,0,1-.82,1.29c-.46.08-1-.41-1-1A6.32,6.32,0,0,1,791.09,506.15Z" transform="translate(-724.79 -301.22)"/><path class="cls-8" d="M801.6,474.72a.85.85,0,0,1,.84.7c.15.52-.19.85-.63,1s-.79.3-1.17.47a5.35,5.35,0,0,0-3.06,3.59c-.18.58-.47,1-1.13.92s-.83-.69-.62-1.43a7.36,7.36,0,0,1,4.61-5,4.78,4.78,0,0,1,.67-.22A3,3,0,0,1,801.6,474.72Z" transform="translate(-724.79 -301.22)"/><path class="cls-9" d="M813.54,512.86a7.43,7.43,0,0,1-2.18,2.88c-.81.59-1.15.58-1.92,0a1.28,1.28,0,0,1,.73-1.41,4.41,4.41,0,0,0,1.92-3,6.69,6.69,0,0,0,.19-1.79c0-1,.31-1.39,1-1.34s.94.57.84,1.43A11.64,11.64,0,0,1,813.54,512.86Z" transform="translate(-724.79 -301.22)"/><path class="cls-8" d="M786,511.91a1.56,1.56,0,0,1,1.57,1.53,1.64,1.64,0,0,1-1.49,1.47,1.55,1.55,0,0,1-1.51-1.59A1.47,1.47,0,0,1,786,511.91Z" transform="translate(-724.79 -301.22)"/><path class="cls-8" d="M809.24,485.5a1.27,1.27,0,0,1-1.4-1.42,1.41,1.41,0,0,1,1.44-1.43,1.43,1.43,0,1,1,0,2.85Z" transform="translate(-724.79 -301.22)"/><path class="cls-10" d="M800.1,520.14c0-.38.35-.29.59-.32a13,13,0,0,0,4.61-1.57.53.53,0,0,0,.33-.49l.3,0c.33,1.06.24,1.35-.77,1.79C803.54,520.27,801.89,520.9,800.1,520.14Z" transform="translate(-724.79 -301.22)"/><rect class="cls-11" x="153.61" y="348" width="42.25" height="35.82"/><text class="cls-3" transform="translate(154.54 373.18)">plastic</text><path class="cls-5" d="M911.88,743.77c-1.4,0-2.79,0-4.18,0-.82,0-1.06.27-1.06,1.07,0,2,0,2-1.74,1S901.62,744,900,743c-.74-.41-.77-.79,0-1.22,1.85-1,3.68-2.12,5.54-3.17.94-.53,1.12-.42,1.16.64,0,.31,0,.62,0,.93,0,.57.15.86.77.85,2.86,0,5.73.06,8.59,0,1.93-.06,2.85-2,1.86-3.73-1.93-3.4-3.85-6.81-5.88-10.14-.78-1.28.25-1.35.85-1.82.78-.62,1.14-.3,1.56.45,1.9,3.36,3.87,6.7,5.78,10.06,2.2,3.85-.15,7.89-4.6,7.94h-3.71Z" transform="translate(-724.79 -301.22)"/><path class="cls-5" d="M889.07,743.77c-1.9,0-3.79,0-5.69,0a5.11,5.11,0,0,1-4.53-7.92c1.31-2.28,2.6-4.58,4-6.83.45-.75.33-1.1-.42-1.52-1.72-1-1.7-1,0-2s3.22-1.85,4.82-2.79c.72-.42,1.15-.43,1.14.59,0,2.16,0,4.33,0,6.49,0,.9-.33,1-1.06.59-1.66-.87-1.67-.85-2.64.82-1.15,2-2.31,3.94-3.43,5.93s-.13,3.9,2.31,3.91c3.83,0,7.66.05,11.49,0,1.19,0,1.17.59,1.18,1.44s0,1.38-1.14,1.34C893.09,743.71,891.08,743.77,889.07,743.77Z" transform="translate(-724.79 -301.22)"/><path class="cls-5" d="M911.3,718.7V722c0,.76-.31,1-1,.6q-2.91-1.69-5.83-3.38c-.68-.39-.52-.7,0-1.08,1.64-1.13,1.63-1.14.59-2.94s-2.18-3.83-3.3-5.73c-1.25-2.1-3.3-2.09-4.54,0-1.94,3.31-3.89,6.6-5.73,10-.56,1-1,.82-1.78.34s-1.33-.6-.67-1.69c2-3.26,3.86-6.62,5.78-9.93,2.34-4,7-4,9.37,0,1.29,2.21,2.59,4.41,3.81,6.65.43.78.82.82,1.54.38,1.67-1,1.73-1,1.73.95,0,.43,0,.85,0,1.28v1.28Z" transform="translate(-724.79 -301.22)"/><text class="cls-4" transform="translate(139.67 464.75)">RE<tspan class="cls-12" x="20.41" y="0">C</tspan><tspan class="cls-13" x="30.81" y="0">Y</tspan><tspan x="40.45" y="0">CLE</tspan></text></svg>