<svg id="Layer_1" data-name="Layer 1" xmlns="http://www.w3.org/2000/svg" viewBox="0 0 335.5 247.84"><defs><style>.cls-1{fill:none;stroke:#0549aa;stroke-miterlimit:10;stroke-width:3.42px;}.cls-2{fill:#b2e5fb;}.cls-3{fill:#b7dd8e;}.cls-4{fill:#0549aa;}</style></defs><title>product</title><rect class="cls-1" x="247.12" y="82.22" width="86.67" height="141.11" rx="19.22"/><rect class="cls-1" x="259.13" y="93.88" width="15.55" height="16.94" rx="4.63"/><path class="cls-2" d="M1082.52,609.7a28.82,28.82,0,1,1,28.8-28.84A28.85,28.85,0,0,1,1082.52,609.7Zm-27-31c-.06,7.9,1.61,13.12,5,17.78a26.82,26.82,0,0,0,18.31,11.18c.65.11.88-.12.88-.74,0-3.31,1.9-5.26,4.81-6.34a6.89,6.89,0,0,0,4.9-6.62,8.91,8.91,0,0,1,2.84-6.1,6.21,6.21,0,0,1,9.86,1.17,7.84,7.84,0,0,0,4,3.44c.56.24.83.14,1-.39.51-1.41,1.08-2.81,1.53-4.24.36-1.17.12-1.66-.92-2.34a6.7,6.7,0,0,0-5.29-.67,5.69,5.69,0,0,1-4.44-1,2.78,2.78,0,0,1-.43-4.51,6.27,6.27,0,0,1,1.67-1.12,41.46,41.46,0,0,0,8.12-5.57,1.1,1.1,0,0,0,.46-1.41c-.34-.79-.72-1.57-1.07-2.36-.24-.55-.58-.6-1.06-.28-.69.45-1.39.9-2.11,1.32a7.11,7.11,0,0,1-5.78,1c-1.19-.37-2.39-.72-3.59-1-1.79-.47-3.46-.8-5.07.77a3.86,3.86,0,0,1-4.88.53c-1.44-.82-1.94,0-2.07,1.16a15.55,15.55,0,0,0,.84,6.89c.45,1.3.92,2.59,1.32,3.9a6.65,6.65,0,0,1-1.41,6.62,4.45,4.45,0,0,1-5.22,1.5,11.6,11.6,0,0,1-1.94-1,3.17,3.17,0,0,0-4.18.48,18.2,18.2,0,0,1-3.1,2.21,2.71,2.71,0,0,1-3.54-.77,5.93,5.93,0,0,1-1-5.79,34.55,34.55,0,0,1,1.55-3.91c1.25-2.84,1.64-5.67.2-8.59a5.38,5.38,0,0,1,.48-6.13,4,4,0,0,0,.47-1,17.39,17.39,0,0,0,1.69-7.51,4.13,4.13,0,0,0-.22-.89,3.38,3.38,0,0,0-.84.31C1059.55,564,1055.74,571.51,1055.51,578.72Zm27-24.85a26.46,26.46,0,0,0-12,2.78,1,1,0,0,0-.66,1.28,9.52,9.52,0,0,1,.18,2.38,20.4,20.4,0,0,1-2.48,8.4,4.71,4.71,0,0,0-.23,4.62,9.63,9.63,0,0,1,.78,6.82,64,64,0,0,1-2.29,6.1,5.32,5.32,0,0,0-.21,3.64c.43,1.52,1.4,1.92,2.75,1.09.76-.47,1.38-1.13,2.1-1.66a8.41,8.41,0,0,1,1.82-1.17,5,5,0,0,1,4.71.79c1.22.78,2.51,1.19,3.76.25a4.37,4.37,0,0,0,2-4.56,19.7,19.7,0,0,0-.9-3.22,20.68,20.68,0,0,1-1.62-8.7c.17-3,2.09-4.47,4.54-3.21a2.93,2.93,0,0,0,3.84-.72,3.21,3.21,0,0,1,2.78-1,39.48,39.48,0,0,1,5.32,1.08,6.9,6.9,0,0,0,5.66-.31c.64-.35,1.25-.76,1.88-1.14,1.2-.72,1.23-.79.38-2A26.79,26.79,0,0,0,1082.5,553.87Zm23.26,40.65a1.41,1.41,0,0,0-.33-.3,12.65,12.65,0,0,1-5.45-5,4,4,0,0,0-4.67-1.24,6.56,6.56,0,0,0-4,5,32.83,32.83,0,0,1-1,4.47c-1,2.57-3,4-5.56,4.91a4.81,4.81,0,0,0-3.36,4.28c-.1,1,.12,1.18,1.11,1.18a26.56,26.56,0,0,0,19.34-8.17A20,20,0,0,0,1105.76,594.52Zm2.81-20.47c-.37.26-.58.39-.78.55a38.45,38.45,0,0,1-8,5.36,4,4,0,0,0-.81.51,1.09,1.09,0,0,0,.06,2,4.39,4.39,0,0,0,3.18.65,16.31,16.31,0,0,1,4.07,0,17.21,17.21,0,0,1,3.06,1.06C1109.55,580.76,1109.66,577.45,1108.57,574.05Z" transform="translate(-792.04 -416.22)"/><path class="cls-2" d="M1055.51,578.72c.23-7.21,4-14.68,11.71-20.11a3.38,3.38,0,0,1,.84-.31,4.13,4.13,0,0,1,.22.89,17.39,17.39,0,0,1-1.69,7.51,4,4,0,0,1-.47,1,5.38,5.38,0,0,0-.48,6.13c1.44,2.92,1,5.75-.2,8.59a34.55,34.55,0,0,0-1.55,3.91,5.93,5.93,0,0,0,1,5.79,2.71,2.71,0,0,0,3.54.77,18.2,18.2,0,0,0,3.1-2.21,3.17,3.17,0,0,1,4.18-.48,11.6,11.6,0,0,0,1.94,1,4.45,4.45,0,0,0,5.22-1.5,6.65,6.65,0,0,0,1.41-6.62c-.4-1.31-.87-2.6-1.32-3.9a15.55,15.55,0,0,1-.84-6.89c.13-1.13.63-2,2.07-1.16a3.86,3.86,0,0,0,4.88-.53c1.61-1.57,3.28-1.24,5.07-.77,1.2.32,2.4.67,3.59,1a7.11,7.11,0,0,0,5.78-1c.72-.42,1.42-.87,2.11-1.32.48-.32.82-.27,1.06.28.35.79.73,1.57,1.07,2.36a1.1,1.1,0,0,1-.46,1.41,41.46,41.46,0,0,1-8.12,5.57,6.27,6.27,0,0,0-1.67,1.12,2.78,2.78,0,0,0,.43,4.51,5.69,5.69,0,0,0,4.44,1,6.7,6.7,0,0,1,5.29.67c1,.68,1.28,1.17.92,2.34-.45,1.43-1,2.83-1.53,4.24-.19.53-.46.63-1,.39a7.84,7.84,0,0,1-4-3.44,6.21,6.21,0,0,0-9.86-1.17,8.91,8.91,0,0,0-2.84,6.1,6.89,6.89,0,0,1-4.9,6.62c-2.91,1.08-4.78,3-4.81,6.34,0,.62-.23.85-.88.74a26.82,26.82,0,0,1-18.31-11.18C1057.12,591.84,1055.45,586.62,1055.51,578.72Z" transform="translate(-792.04 -416.22)"/><path class="cls-3" d="M1082.5,553.87a26.79,26.79,0,0,1,22.15,11.55c.85,1.17.82,1.24-.38,2-.63.38-1.24.79-1.88,1.14a6.9,6.9,0,0,1-5.66.31,39.48,39.48,0,0,0-5.32-1.08,3.21,3.21,0,0,0-2.78,1,2.93,2.93,0,0,1-3.84.72c-2.45-1.26-4.37.18-4.54,3.21a20.68,20.68,0,0,0,1.62,8.7,19.7,19.7,0,0,1,.9,3.22,4.37,4.37,0,0,1-2,4.56c-1.25.94-2.54.53-3.76-.25a5,5,0,0,0-4.71-.79,8.41,8.41,0,0,0-1.82,1.17c-.72.53-1.34,1.19-2.1,1.66-1.35.83-2.32.43-2.75-1.09a5.32,5.32,0,0,1,.21-3.64,64,64,0,0,0,2.29-6.1,9.63,9.63,0,0,0-.78-6.82,4.71,4.71,0,0,1,.23-4.62,20.4,20.4,0,0,0,2.48-8.4,9.52,9.52,0,0,0-.18-2.38,1,1,0,0,1,.66-1.28A26.46,26.46,0,0,1,1082.5,553.87Z" transform="translate(-792.04 -416.22)"/><path class="cls-3" d="M1105.76,594.52a20,20,0,0,1-3.89,5.19,26.56,26.56,0,0,1-19.34,8.17c-1,0-1.21-.2-1.11-1.18a4.81,4.81,0,0,1,3.36-4.28c2.51-.91,4.6-2.34,5.56-4.91a32.83,32.83,0,0,0,1-4.47,6.56,6.56,0,0,1,4-5,4,4,0,0,1,4.67,1.24,12.65,12.65,0,0,0,5.45,5A1.41,1.41,0,0,1,1105.76,594.52Z" transform="translate(-792.04 -416.22)"/><path class="cls-3" d="M1108.57,574.05c1.09,3.4,1,6.71.78,10.13a17.21,17.21,0,0,0-3.06-1.06,16.31,16.31,0,0,0-4.07,0,4.39,4.39,0,0,1-3.18-.65,1.09,1.09,0,0,1-.06-2,4,4,0,0,1,.81-.51,38.45,38.45,0,0,0,8-5.36C1108,574.44,1108.2,574.31,1108.57,574.05Z" transform="translate(-792.04 -416.22)"/><path class="cls-4" d="M963,487.31c3.39-2.54,21.49-2.44,24.17,0Z" transform="translate(-792.04 -416.22)"/><path class="cls-4" d="M974.32,649.86c-3.09,0-6.19-.1-9.28,0-3.25.14-4.57-1.43-4.46-4.53,0-.36,0-.72,0-1.08-.05-5.82.23-6.11,5.9-6.12,6.07,0,12.14.08,18.2,0,2.89,0,4.19,1.18,4.12,4,0,1.07,0,2.15,0,3.22.08,3.1-1.24,4.66-4.49,4.53S977.65,649.86,974.32,649.86Z" transform="translate(-792.04 -416.22)"/><path class="cls-4" d="M992.6,610.42a17.26,17.26,0,1,1-34.51.2,17.26,17.26,0,1,1,34.51-.2Zm-31.68,0a14.42,14.42,0,1,0,14.38-14.61A14.47,14.47,0,0,0,960.92,610.45Z" transform="translate(-792.04 -416.22)"/><path class="cls-4" d="M992.59,521a17.24,17.24,0,0,1-17.36,17.12c-9.71,0-17.21-7.77-17.13-17.68a17.25,17.25,0,1,1,34.49.56Zm-2.85.18c.16-8.4-5.7-14.68-13.88-14.91-8.39-.23-14.72,5.63-14.93,13.83-.22,8.56,5.77,15,14,15.14S989.59,529.28,989.74,521.13Z" transform="translate(-792.04 -416.22)"/><path class="cls-4" d="M958.1,565.48a17.25,17.25,0,1,1,34.5.21,17.25,17.25,0,1,1-34.5-.21Zm31.65.2a14.42,14.42,0,1,0-14.45,14.46A14.26,14.26,0,0,0,989.75,565.68Z" transform="translate(-792.04 -416.22)"/><path class="cls-4" d="M945.26,575.64q0-36.54,0-73.09c0-8.65,3.4-12.76,11.86-14.8a3.35,3.35,0,0,0,2.16-2.13c.33-2.86,1.94-4.07,4.5-4.09q11.6-.12,23.19,0a4.06,4.06,0,0,1,4.4,3.78A4.28,4.28,0,0,0,993.9,488c7,2.41,10.18,6.59,10.18,14.12q0,73.82,0,147.63c0,8.93-5.27,14.24-14.18,14.31q-15.17.12-30.32,0c-9.09-.06-14.3-5.39-14.31-14.55Q945.24,612.55,945.26,575.64Zm4.13.24q0,36.72,0,73.46c0,7.28,3.22,10.49,10.4,10.52,9.51,0,19,0,28.54,0,8.79,0,11.7-2.88,11.72-11.78q.06-29.57,0-59.13,0-43.17,0-86.36c0-7.67-3-10.55-10.63-10.56q-14.45,0-28.9,0c-8.37,0-11.1,2.72-11.11,11.12Q949.38,539.5,949.39,575.88Z" transform="translate(-792.04 -416.22)"/><path class="cls-4" d="M971.28,452.8c0-7.65-.14-15.3.05-22.95A13.85,13.85,0,0,1,983,416.4c5.87-1,12.15,2.56,14.51,8.59a16.18,16.18,0,0,1,.88,5.6c.1,7.05,0,14.1.06,21.16,0,5.82,2.48,8.94,7,8.9s6.82-3.19,6.83-9.06c0-10.16,0-20.32,0-30.48,0-2.31.22-3.89,3.2-3.84,2.71.05,3.1,1.38,3.08,3.61-.06,11.12.06,22.23-.08,33.35-.09,6.76-4.38,11.69-11,13.14-5.32,1.16-11.81-2.26-14.19-7.93a20.47,20.47,0,0,1-1.2-7.33c-.16-7.05,0-14.1-.11-21.15-.08-4.82-2.62-7.64-6.63-7.79-4.31-.16-7.14,2.46-7.19,7-.09,9.68,0,19.37,0,29.05,0,5.62-.1,11.24,0,16.85.06,2.62-1.1,3.25-3.44,3.24s-3.52-.58-3.48-3.22c.12-7.77,0-15.54,0-23.31Z" transform="translate(-792.04 -416.22)"/><path class="cls-4" d="M968.19,608a2.89,2.89,0,0,1,0-1.06c.43-1,.94-2.07,1.42-3.1.47,1.06,1,2.12,1.39,3.21a1.67,1.67,0,0,1,0,1.06c-.47,1.41-1,2.8-1.5,4.21l-1.87-4.08Z" transform="translate(-792.04 -416.22)"/><path class="cls-4" d="M982.5,608.19a4.74,4.74,0,0,1,0,1.77,16.69,16.69,0,0,1-1.53,2.33A16.11,16.11,0,0,1,979.7,610a3,3,0,0,1,0-1.77c.44-1.5,1-3,1.55-4.44.61,1.39,1.21,2.78,1.82,4.18Z" transform="translate(-792.04 -416.22)"/><path class="cls-4" d="M967.65,517.85l1.85-4.05c.52,1.49,1,3,1.52,4.49a1.67,1.67,0,0,1,0,1.06c-.41,1-.9,1.91-1.35,2.86a29.44,29.44,0,0,1-1.45-2.71,3.89,3.89,0,0,1,0-1.41Z" transform="translate(-792.04 -416.22)"/><path class="cls-4" d="M982.46,518.25a9.84,9.84,0,0,1-.05,2.49c-.15.56-.79,1-1.21,1.48-.5-.53-1.34-1-1.44-1.6a14.62,14.62,0,0,1,0-4.28A9,9,0,0,1,981,513.8a22.83,22.83,0,0,1,1.5,2.68,5,5,0,0,1,0,1.77Z" transform="translate(-792.04 -416.22)"/><path class="cls-4" d="M971,563.16a5.49,5.49,0,0,1,0,2.11,9.11,9.11,0,0,1-1.57,1.93c-.39-.65-1-1.27-1.12-2a20.9,20.9,0,0,1,0-4.61c.07-.68.74-1.28,1.14-1.92a7.6,7.6,0,0,1,1.52,2A7.52,7.52,0,0,1,971,563.16Z" transform="translate(-792.04 -416.22)"/><path class="cls-4" d="M982.5,563.21a5.15,5.15,0,0,1,0,1.76,13.66,13.66,0,0,1-1.3,2.2,8.75,8.75,0,0,1-1.44-2.38,9,9,0,0,1,0-3.54A10.2,10.2,0,0,1,981,558.7a13.79,13.79,0,0,1,1.46,2.39A6.51,6.51,0,0,1,982.5,563.21Z" transform="translate(-792.04 -416.22)"/><path class="cls-4" d="M977.88,573.69c-1.16.74-1.88,1.58-2.49,1.5s-1.83-1.25-1.72-1.53a8.46,8.46,0,0,1,1.8-2.18Z" transform="translate(-792.04 -416.22)"/><path class="cls-4" d="M792,544.49c0,2.27,1,3.31,3.29,3.31h17.73c1.09,0,1.1,0,1.1,1.11,0,11.07,0,22.13,0,33.19a44.14,44.14,0,0,0,.21,7.8,21.72,21.72,0,0,0,13.14,16.9,21.21,21.21,0,0,0,8.17,1.72,53.9,53.9,0,0,0,9.59-.25,21.16,21.16,0,0,0,12.58-6.6,20.56,20.56,0,0,0,5.93-14.13c.13-8.13-.08-16.26.15-24.39,0-.44,0-.88,0-1.33h0v0c0-.78,0-1.55,0-2.32V551a1.45,1.45,0,0,0,0-.36V529.72h-.06c0-1,0-2,0-3-.12-5.78-.05-11.57,0-17.35a16.34,16.34,0,0,1,3.56-10.59,15.72,15.72,0,0,1,11.8-6.15c2.55-.13,5.11-.06,7.66,0a13.69,13.69,0,0,1,5.67,1.28c6.56,3,9.84,8.25,10,15.41.09,3.73,0,7.46,0,11.19q0,13.18,0,26.36c0,.73-.23.93-.94.93-4.23,0-8.46,0-12.69,0a2.73,2.73,0,0,0-3,2.87q0,11,0,21.93h0q0,11,0,22a2.72,2.72,0,0,0,2.85,2.9c.6,0,1.2,0,1.8,0s.84.2.84.85c0,4.23,0,8.46,0,12.69a2.82,2.82,0,0,0,3,3h21.63a2.75,2.75,0,0,0,2.93-2.53,5.66,5.66,0,0,0,.06-.82c0-4.11,0-8.21,0-12.32,0-.74.24-1,.94-.9a12.16,12.16,0,0,0,1.35,0c2.16,0,3.22-1.08,3.22-3.25q0-21.62,0-43.25c0-2.12-1.08-3.19-3.19-3.2h-12c-1.58,0-1.37.21-1.37-1.35q0-18.58,0-37.17a21.92,21.92,0,0,0-19.53-22.06,64.32,64.32,0,0,0-8.33-.16,20.62,20.62,0,0,0-4.76.53,21.86,21.86,0,0,0-11.76,7.06,21.06,21.06,0,0,0-5.34,13.77c-.1,7.31,0,14.62-.11,21.92,0,1.3,0,2.6,0,3.9v4.93c0,.76,0,1.52,0,2.28a2.09,2.09,0,0,0,0,.26v20.13h0c0,1.73,0,3.46,0,5.19.07,6.45,0,12.91,0,19.37a16.12,16.12,0,0,1-2.58,9,15.67,15.67,0,0,1-12.6,7.47c-2.67.18-5.36.08-8,0a13.31,13.31,0,0,1-5.66-1.32c-6.28-3.06-9.66-8.05-9.74-15.11-.05-4.65,0-9.31,0-14,0-8,0-16,0-24,0-.65.23-.82.83-.79.85.05,1.7,0,2.55,0h15a6,6,0,0,0,1.64,0,2.84,2.84,0,0,0,2.09-2.92q0-15.66-.06-31.31c0-4.16,0-8.31,0-12.47a2.8,2.8,0,0,0-3-3h-1.43c-1.08,0-1.09,0-1.09-1.11V484.9a3.07,3.07,0,0,0-3.38-3.38c-10.71.05-21.43,0-32.14,0a2.92,2.92,0,0,0-3.24,3.26v11.48c0,1.83,0,1.83-1.79,1.83h-.38c-2.28,0-3.31,1-3.31,3.28v43.11Zm121.48,63.32c0,.56-.21.74-.75.74q-7.51,0-15,0c-.63,0-.81-.24-.8-.84q0-4.77,0-9.53c0-.58.2-.73.74-.73,2.53,0,5.06,0,7.58,0h0c2.48,0,5,0,7.43,0,.62,0,.83.17.83.8Q913.49,603,913.52,607.81ZM918,553.27c1.1,0,1.1,0,1.1,1.14v18.24h0c0,6.16,0,12.32,0,18.47,0,.74-.3.87-.94.87q-11-.06-22.08-.07c-1.22,0-2.45,0-3.67.08-.75,0-1-.17-1-1,0-4.2,0-8.41,0-12.61q0-12.06,0-24.11c0-1,0-1,1-1Zm-114.9-65.33c0-.67.19-.93.89-.91,1.3,0,2.6,0,3.9,0,.53,0,.7.18.7.7,0,1.57,0,3.15,0,4.73a2.71,2.71,0,0,0,2.79,2.87,2.67,2.67,0,0,0,2.72-2.78c0-1.52.06-3.05,0-4.57,0-.74.26-1,1-.94,1.23,0,2.46,0,3.68,0,.68,0,.94.19.92.89,0,1.6-.05,3.21,0,4.81a2.64,2.64,0,0,0,2.42,2.6,2.71,2.71,0,0,0,3-2,3.41,3.41,0,0,0,.1-1c0-1.53,0-3.05,0-4.58,0-.55.18-.75.74-.74,1.33,0,2.65,0,4,0,.59,0,.78.2.78.78,0,3.2,0,6.41,0,9.61,0,.57-.2.72-.75.72-4.35,0-8.7,0-13,0h0c-4.28,0-8.56,0-12.84,0-.65,0-.92-.13-.91-.86C803.17,494.15,803.16,491.05,803.13,487.94Zm-5.6,34.92q0-9.12,0-18.25c0-1,0-1,1-1l32.67.05c1.4,0,2.8,0,4.2-.08.66,0,.87.21.87.87,0,7.13,0,14.26,0,21.4v15.47c0,1,0,1-1,1l-24,0H798.74c-1.21,0-1.22,0-1.22-1.26V522.86Z" transform="translate(-792.04 -416.22)"/></svg>