<svg id="Layer_1" data-name="Layer 1" xmlns="http://www.w3.org/2000/svg" viewBox="0 0 86.19 67.73"><defs><style>.cls-1{fill:#fff;}</style></defs><title>rain</title><path class="cls-1" d="M987.22,552.39A15.42,15.42,0,0,0,1002.85,534a15.31,15.31,0,0,0-21.44-11c-.56.27-.7.16-.9-.4-3.12-9.13-9.45-14.69-19-16-8.78-1.21-16,2-21.51,9a1,1,0,0,1-1.11.41,17.37,17.37,0,0,0-7.66.14,18.37,18.37,0,0,0-14,21.27,19.16,19.16,0,0,0,11.64,14.47,13.91,13.91,0,0,0,5.83.74c.56,0,.78-.12.78-.73a20.78,20.78,0,0,1,1.11-6.87c3.32-9.56,10-15.26,20-16.88a24.54,24.54,0,0,1,28.1,23.55c0,.61.23.76.78.71S986.65,552.4,987.22,552.39Z" transform="translate(-916.94 -506.33)"/><path class="cls-1" d="M987.22,552.39c-.57,0-1.15,0-1.73,0s-.76-.1-.78-.71a24.54,24.54,0,0,0-28.1-23.55c-10,1.62-16.65,7.32-20,16.88a20.78,20.78,0,0,0-1.11,6.87c0,.61-.22.73-.78.73a13.91,13.91,0,0,1-5.83-.74,19.16,19.16,0,0,1-11.64-14.47,18.37,18.37,0,0,1,14-21.27,17.37,17.37,0,0,1,7.66-.14,1,1,0,0,0,1.11-.41c5.5-7,12.73-10.23,21.51-9,9.54,1.33,15.87,6.89,19,16,.2.56.34.67.9.4a15.38,15.38,0,1,1,11.5,28.5A15.49,15.49,0,0,1,987.22,552.39Z" transform="translate(-916.94 -506.33)"/><path class="cls-1" d="M978.16,548.57a18.46,18.46,0,1,0-32.22,15.73c.63.75,1.68,1.23,1.87,2.25a18.6,18.6,0,0,1,.05,3h0c0,1,0,2,0,2.93a1.52,1.52,0,0,0,1.65,1.6c1.31,0,2.62,0,3.93,0,.53,0,.62-.19.61-.66,0-1.64,0-3.28,0-4.93,0-.42.1-.6.55-.57a16.67,16.67,0,0,0,1.87,0c.5,0,.69.1.67.65,0,1.62,0,3.24,0,4.86,0,.47.09.65.62.64,1.64,0,3.28,0,4.93,0,.5,0,.63-.14.62-.64,0-1.66,0-3.33,0-5,0-.41.12-.55.53-.53.64,0,1.29,0,1.93,0s.64.12.63.63c0,1.64,0,3.28,0,4.93,0,.47.15.6.61.59,1.26,0,2.53,0,3.8,0a1.58,1.58,0,0,0,1.78-1.81c0-1.66,0-3.33,0-5a2.16,2.16,0,0,1,.7-1.74A17.81,17.81,0,0,0,978.16,548.57Zm-25.71,10.09a4.6,4.6,0,1,1,4.6-4.62A4.62,4.62,0,0,1,952.45,558.66Zm15.33-.07a4.6,4.6,0,1,1,4.67-4.55A4.62,4.62,0,0,1,967.78,558.59Z" transform="translate(-916.94 -506.33)"/></svg>