<svg id="Layer_1" data-name="Layer 1" xmlns="http://www.w3.org/2000/svg" viewBox="0 0 65.12 90.97"><defs><style>.cls-1{fill:#fff;}</style></defs><title>up</title><path class="cls-1" d="M1051.57,663.88l-13.28,23.37a2.53,2.53,0,0,0,2.21,3.78h8.11a2.53,2.53,0,0,1,2.53,2.53v38a2.53,2.53,0,0,0,2.53,2.53h0a2.53,2.53,0,0,0,2.53-2.53v-38a2.54,2.54,0,0,1,2.54-2.53h8.3a2.53,2.53,0,0,0,2.21-3.78L1056,663.88A2.53,2.53,0,0,0,1051.57,663.88ZM1045.34,683l6.23-11a2.53,2.53,0,0,1,4.4,0l6.23,11a2.53,2.53,0,0,1-2.21,3.78h-12.45A2.53,2.53,0,0,1,1045.34,683Z" transform="translate(-1037.96 -662.6)"/><path class="cls-1" d="M1085.07,683.38l-13.28,23.37a2.53,2.53,0,0,0,2.21,3.78h8.11a2.53,2.53,0,0,1,2.53,2.53v38a2.53,2.53,0,0,0,2.53,2.53h0a2.53,2.53,0,0,0,2.53-2.53v-38a2.54,2.54,0,0,1,2.54-2.53h8.3a2.53,2.53,0,0,0,2.21-3.78l-13.28-23.37A2.53,2.53,0,0,0,1085.07,683.38Zm-6.23,19.15,6.23-11a2.53,2.53,0,0,1,4.4,0l6.23,11a2.53,2.53,0,0,1-2.21,3.78H1081A2.53,2.53,0,0,1,1078.84,702.53Z" transform="translate(-1037.96 -662.6)"/></svg>