<svg id="Layer_1" data-name="Layer 1" xmlns="http://www.w3.org/2000/svg" viewBox="0 0 56.3 75.33"><defs><style>.cls-1{fill:#b2e5fb;}</style></defs><title>water</title><path class="cls-1" d="M967.49,544.18a4.68,4.68,0,1,0,4.65,4.74A4.69,4.69,0,0,0,967.49,544.18Z" transform="translate(-931.48 -502.34)"/><path class="cls-1" d="M951.76,544.18a4.68,4.68,0,1,0,4.71,4.67A4.7,4.7,0,0,0,951.76,544.18Z" transform="translate(-931.48 -502.34)"/><path class="cls-1" d="M987.6,547.42c-.84-8.31-5.38-15.39-9.79-22.45-2.84-4.53-6.41-8.61-9.35-13.08l-.09-.12c-2.51-2.31-4.24-5.22-6.63-7.63s-2.82-2.45-4.9.3c-.12.15-.17.35-.29.49q-3.21,3.78-6.43,7.54l-1.26,1.65c-.34.52-.64,1.06-1,1.56-5.34,7.12-10.38,14.39-13.65,22.62a36,36,0,0,0-2.54,17.09,44.69,44.69,0,0,0,1.34,5.72l.36.86c.2.45.41.9.61,1.34l.19.42c2.24,2.81,4.11,5.9,7.2,8.06a29.82,29.82,0,0,0,18.41,5.77c.92,0,1.84.07,2.77.11l.82,0,6-1.34.82-.16c2.86-1.57,6-2.7,8.44-4.91C985.92,564.68,988.51,556.53,987.6,547.42Zm-14.75,13.11a2.18,2.18,0,0,0-.72,1.76c.06,1.7,0,3.39,0,5.09a1.6,1.6,0,0,1-1.82,1.82c-1.28,0-2.57,0-3.86,0-.47,0-.62-.13-.62-.61,0-1.67,0-3.34,0-5,0-.52-.14-.68-.65-.65a16,16,0,0,1-2,0c-.42,0-.55.13-.54.54,0,1.7,0,3.39,0,5.08,0,.51-.12.66-.64.65-1.67,0-3.34,0-5,0-.54,0-.64-.17-.63-.66,0-1.64,0-3.29,0-4.94,0-.56-.18-.7-.69-.67a15.06,15.06,0,0,1-1.9,0c-.46,0-.57.16-.56.59,0,1.67,0,3.34,0,5,0,.48-.09.69-.63.67-1.33,0-2.66,0-4,0a1.53,1.53,0,0,1-1.67-1.63c0-1,0-2,0-3h0a17.23,17.23,0,0,0,0-3.05c-.18-1-1.25-1.52-1.88-2.29A18.79,18.79,0,1,1,978,543.38,18.13,18.13,0,0,1,972.85,560.53Z" transform="translate(-931.48 -502.34)"/></svg>